<svg xmlns="http://www.w3.org/2000/svg" xmlns:xlink="http://www.w3.org/1999/xlink" width="85.471mm" height="39.624mm" viewBox="4010.5 3125.5 336.5 156"><title></title><style type="text/css">
*[layerid="1"] {stroke:#000000;fill:#000000;}
*[layerid="2"] {stroke:#000000;fill:#000000;}
*[layerid="3"] {stroke:#000000;fill:#000000;}
*[layerid="4"] {stroke:#000000;fill:#000000;}
*[layerid="5"] {stroke:#000000;fill:#000000;}
*[layerid="6"] {stroke:#000000;fill:#000000;}
*[layerid="7"] {stroke:#000000;fill:#000000;}
*[layerid="8"] {stroke:#000000;fill:#000000;}
*[layerid="9"] {stroke:#000000;fill:#000000;}
*[layerid="10"] {stroke:#000000;fill:#000000;}
*[layerid="11"] {stroke:#000000;fill:#000000;}
*[layerid="12"] {stroke:#000000;fill:#000000;}
*[layerid="13"] {stroke:#000000;fill:#000000;}
*[layerid="14"] {stroke:#000000;fill:#000000;}
*[layerid="15"] {stroke:#000000;fill:#000000;}
*[layerid="19"] {stroke:#000000;fill:#000000;}
*[layerid="21"] {stroke:#000000;fill:#000000;}
*[layerid="22"] {stroke:#000000;fill:#000000;}
*[layerid="23"] {stroke:#000000;fill:#000000;}
*[layerid="24"] {stroke:#000000;fill:#000000;}
*[layerid="25"] {stroke:#000000;fill:#000000;}
*[layerid="26"] {stroke:#000000;fill:#000000;}
*[layerid="27"] {stroke:#000000;fill:#000000;}
*[layerid="28"] {stroke:#000000;fill:#000000;}
*[layerid="29"] {stroke:#000000;fill:#000000;}
*[layerid="30"] {stroke:#000000;fill:#000000;}
*[layerid="31"] {stroke:#000000;fill:#000000;}
*[layerid="32"] {stroke:#000000;fill:#000000;}
*[layerid="33"] {stroke:#000000;fill:#000000;}
*[layerid="34"] {stroke:#000000;fill:#000000;}
*[layerid="35"] {stroke:#000000;fill:#000000;}
*[layerid="36"] {stroke:#000000;fill:#000000;}
*[layerid="37"] {stroke:#000000;fill:#000000;}
*[layerid="38"] {stroke:#000000;fill:#000000;}
*[layerid="39"] {stroke:#000000;fill:#000000;}
*[layerid="40"] {stroke:#000000;fill:#000000;}
*[layerid="41"] {stroke:#000000;fill:#000000;}
*[layerid="42"] {stroke:#000000;fill:#000000;}
*[layerid="43"] {stroke:#000000;fill:#000000;}
*[layerid="44"] {stroke:#000000;fill:#000000;}
*[layerid="45"] {stroke:#000000;fill:#000000;}
*[layerid="46"] {stroke:#000000;fill:#000000;}
*[layerid="47"] {stroke:#000000;fill:#000000;}
*[layerid="48"] {stroke:#000000;fill:#000000;}
*[layerid="49"] {stroke:#000000;fill:#000000;}
*[layerid="50"] {stroke:#000000;fill:#000000;}
*[layerid="51"] {stroke:#000000;fill:#000000;}
*[layerid="52"] {stroke:#000000;fill:#000000;}
*[layerid="99"] {stroke:#000000;fill:#000000;}
*[layerid="100"] {stroke:#000000;fill:#000000;}
*[layerid="Hole"] {stroke:#000000;fill:#000000;}
*[layerid="DRCError"] {stroke:#000000;fill:#000000;}
*[fill="none"] {fill: none;}
*[stroke="none"] {stroke: none;}
path, polyline, polygon, line {stroke-linecap:round;}
g[c_partid="part_pad"][layerid="1"] ellipse:not([c_etype="pad_outer"]) {fill:#000000;}
g[c_partid="part_pad"][layerid="1"] polygon:not([c_etype="pad_outer"]) {fill:#000000;}
g[c_partid="part_pad"][layerid="1"] polyline:not([c_etype="pad_outer"]) {stroke:#000000;}
g[c_partid="part_pad"][layerid="2"] ellipse:not([c_etype="pad_outer"]) {fill:#000000;}
g[c_partid="part_pad"][layerid="2"] polygon:not([c_etype="pad_outer"]) {fill:#000000;}
g[c_partid="part_pad"][layerid="2"] polyline:not([c_etype="pad_outer"]) {stroke:#000000;}
g[c_partid="part_pad"][layerid="11"] ellipse:not([c_etype="pad_outer"]) {fill:#000000;}
g[c_partid="part_pad"][layerid="11"] polygon:not([c_etype="pad_outer"]) {fill:#000000;}
g[c_partid="part_pad"][layerid="11"] polyline:not([c_etype="pad_outer"]) {stroke:#000000;}
g[c_partid="part_pad"][layerid="11"] circle {fill:#FFFFFF;}
g[c_partid="part_pad"][layerid="11"] > polyline:nth-of-type(2) {stroke:#FFFFFF;}
g[c_partid="part_pad"][layerid="11"][c_shape="ELLIPSE"]  polyline:nth-last-of-type(1) {stroke:#FFFFFF;}
g[c_partid="part_pad"][layerid="11"][c_shape="RECT"]  polyline:nth-last-of-type(1) {stroke:#FFFFFF;}
g[c_partid="part_pad"][layerid="11"][c_shape="POLYGON"]  polyline:nth-last-of-type(1) {stroke:#FFFFFF;}
g[c_partid="part_via"] > * + circle, #gCurParts g[c_partid="part_via"] > * + circle {fill:#FFFFFF;}
g[c_partid="part_pad"] > polygon[c_etype="pad_outer"], #gCurParts g[c_partid="part_pad"] > polygon[c_etype="pad_outer"] {stroke-linejoin: miter;stroke-miterlimit: 100;}
g[c_partid="part_hole"] > circle {fill: #FFFFFF;}path, polyline, polygon {stroke-linejoin:round;}
rect, circle, ellipse, polyline, line, polygon, path {shape-rendering:crispEdges;}
</style>
<rect x="4010.5" y="3125.5" width="336.5" height="156" fill="#FFFFFF" stroke="none"/><polyline points="4263 3232 4268.36 3226.64 4300 3226.64" stroke-width="3"  stroke-linecap="round" fill="none" layerid="1" net="P3_1" id="gge478" locked="0" /><polyline points="4299.5 3169.64 4299.5 3189.36" stroke-width="3"  stroke-linecap="round" fill="none" layerid="1" net="P2_1" id="gge477" locked="0" /><polyline points="4264 3182 4271.36 3189.36 4299.5 3189.36" stroke-width="3"  stroke-linecap="round" fill="none" layerid="1" net="P2_1" id="gge476" locked="0" /><polyline points="4157 3236.5 4142.5 3251 4120 3251 4112.5 3243.5 4101.5 3243.5" stroke-width="2"  stroke-linecap="round" fill="none" layerid="1" net="Q1_1" id="gge454" locked="0" /><polyline points="4183 3206 4171.5 3194.5 4171.5 3186.5 4162 3177 4158 3177" stroke-width="2"  stroke-linecap="round" fill="none" layerid="1" net="Q2_2" id="gge458" locked="0" /><polyline points="4158 3187 4139.001 3205.999 4131.5 3205.999" stroke-width="2"  stroke-linecap="round" fill="none" layerid="1" net="Q2_1" id="gge459" locked="0" /><polyline points="4102 3186.499 4111.001 3195.5 4139 3195.5 4144.5 3190 4144.5 3180.5 4158 3167" stroke-width="2"  stroke-linecap="round" fill="none" layerid="1" net="Q1_2" id="gge463" locked="0" /><polyline points="4054 3213.86 4093.639 3213.86 4101.5 3205.999" stroke-width="2"  stroke-linecap="round" fill="none" layerid="1" net="Q1_2" id="gge449" locked="0" /><polyline points="4101.5 3206 4115 3219.5 4115 3224.12 4110.62 3228.5 4039.5 3228.5 4039.5 3208.5 4044 3204 4075 3204 4092.5 3186.5 4102 3186.5" stroke-width="2"  stroke-linecap="round" fill="none" layerid="1" net="Q1_2" id="gge470" locked="0" /><polyline points="4102 3221 4099 3224 4046 3224 4046 3208 4077.5 3208 4087.5 3198 4107.5 3198 4115.5 3206 4131.5 3206" stroke-width="2"  stroke-linecap="round" fill="none" layerid="1" net="Q2_1" id="gge467" locked="0" /><polyline points="4132 3186.5 4121 3175.5 4097.5 3175.5 4072.5 3200.5 4041 3200.5 4035 3206.5 4035 3233 4141 3233 4144.5 3236.5 4157 3236.5" stroke-width="2"  stroke-linecap="round" fill="none" layerid="1" net="Q1_1" id="gge462" locked="0" /><polyline points="4107.6852 3228.5 4107.5 3229 4148.5 3229 4151 3226.5 4157 3226.5" stroke-width="2"  stroke-linecap="round" fill="none" layerid="1" net="Q1_2" id="gge475" locked="0" /><polyline points="4131.5 3243.5 4125 3237 4093.5 3237 4093.5 3258 4184 3258 4193 3249 4193 3216 4183 3206" stroke-width="2"  stroke-linecap="round" fill="none" layerid="1" net="Q2_2" id="gge455" locked="0" /><polyline points="4054 3194.14 4065.36 3194.14 4112.5 3147 4167 3147 4179 3159 4179 3178 4183 3182" stroke-width="2"  stroke-linecap="round" fill="none" layerid="1" net="P1_2" id="gge448" locked="0" /><polyline points="4183 3232 4167.5 3216.5 4157 3216.5" stroke-width="2"  stroke-linecap="round" fill="none" layerid="1" net="Q1_3" id="gge464" locked="0" /><polyline points="4132 3221 4136.5 3216.5 4157 3216.5" stroke-width="2"  stroke-linecap="round" fill="none" layerid="1" net="Q1_3" id="gge473" locked="0" /><polyline points="4300 3226.64 4300 3246.36" stroke-width="3"  stroke-linecap="round" fill="none" layerid="1" net="P3_1" id="gge479" locked="0" /><g c_partid="part_pad" c_etype="pinpart" c_origin="4157,3226.5" layerid="11" number="2" net="Q1_2" plated ="Y"  id="gge12" locked="0" c_rotation="90" c_width="7.874" c_height="9.8425" title="Q1_2" c_shape="OVAL" pasteexpansion="0" solderexpansion="0.4"><polyline  c_etype="pad_shell" points="4156.0158 3226.5 4157.9842 3226.5" layerid="11" stroke-width="7.874" /><circle c_etype="pad_hole" cx="4157" cy="3226.5" r="2.7559" layerid="11" stroke-width="0"/></g><g c_partid="part_pad" c_etype="pinpart" c_origin="4157,3216.5" layerid="11" number="3" net="Q1_3" plated ="Y"  id="gge17" locked="0" c_rotation="90" c_width="7.874" c_height="9.8425" title="Q1_3" c_shape="OVAL" pasteexpansion="0" solderexpansion="0.4"><polyline  c_etype="pad_shell" points="4156.0158 3216.5 4157.9842 3216.5" layerid="11" stroke-width="7.874" /><circle c_etype="pad_hole" cx="4157" cy="3216.5" r="2.7559" layerid="11" stroke-width="0"/></g><g c_partid="part_pad" c_etype="pinpart" c_origin="4157,3236.5" layerid="11" number="1" net="Q1_1" plated ="Y"  id="gge22" locked="0" c_rotation="90" c_width="7.874" c_height="9.8425" title="Q1_1" c_shape="RECT" pasteexpansion="0" solderexpansion="0.4"><polygon  c_etype="pad_shell" points="4152.08 3240.44 4152.08 3232.56 4161.92 3232.56 4161.92 3240.44" layerid="11" stroke-width="0" /><circle c_etype="pad_hole" cx="4157" cy="3236.5" r="2.7559" layerid="11" stroke-width="0"/></g><g c_partid="part_pad" c_etype="pinpart" c_origin="4158,3177" layerid="11" number="2" net="Q2_2" plated ="Y"  id="gge38" locked="0" c_rotation="90" c_width="7.874" c_height="9.8425" title="Q2_2" c_shape="OVAL" pasteexpansion="0" solderexpansion="0.4"><polyline  c_etype="pad_shell" points="4157.0158 3177 4158.9842 3177" layerid="11" stroke-width="7.874" /><circle c_etype="pad_hole" cx="4158" cy="3177" r="2.7559" layerid="11" stroke-width="0"/></g><g c_partid="part_pad" c_etype="pinpart" c_origin="4158,3167" layerid="11" number="3" net="Q1_2" plated ="Y"  id="gge43" locked="0" c_rotation="90" c_width="7.874" c_height="9.8425" title="Q1_2" c_shape="OVAL" pasteexpansion="0" solderexpansion="0.4"><polyline  c_etype="pad_shell" points="4157.0158 3167 4158.9842 3167" layerid="11" stroke-width="7.874" /><circle c_etype="pad_hole" cx="4158" cy="3167" r="2.7559" layerid="11" stroke-width="0"/></g><g c_partid="part_pad" c_etype="pinpart" c_origin="4158,3187" layerid="11" number="1" net="Q2_1" plated ="Y"  id="gge48" locked="0" c_rotation="90" c_width="7.874" c_height="9.8425" title="Q2_1" c_shape="RECT" pasteexpansion="0" solderexpansion="0.4"><polygon  c_etype="pad_shell" points="4153.08 3190.94 4153.08 3183.06 4162.92 3183.06 4162.92 3190.94" layerid="11" stroke-width="0" /><circle c_etype="pad_hole" cx="4158" cy="3187" r="2.7559" layerid="11" stroke-width="0"/></g><g c_partid="part_pad" c_etype="pinpart" c_origin="4054,3213.86" layerid="11" number="1" net="Q1_2" plated ="Y"  id="gge67" locked="0" c_rotation="90" c_width="7.874" c_height="7.874" title="Q1_2" c_shape="ELLIPSE" pasteexpansion="0" solderexpansion="0.4"><ellipse c_etype="pad_shell" cx="4054" cy="3213.86" rx="3.937" ry="3.937" layerid="11" stroke-width="0"/><circle c_etype="pad_hole" cx="4054" cy="3213.86" r="2.5591" layerid="11" stroke-width="0"/></g><g c_partid="part_pad" c_etype="pinpart" c_origin="4054,3194.14" layerid="11" number="2" net="P1_2" plated ="Y"  id="gge72" locked="0" c_rotation="90" c_width="7.874" c_height="7.874" title="P1_2" c_shape="ELLIPSE" pasteexpansion="0" solderexpansion="0.4"><ellipse c_etype="pad_shell" cx="4054" cy="3194.14" rx="3.937" ry="3.937" layerid="11" stroke-width="0"/><circle c_etype="pad_hole" cx="4054" cy="3194.14" r="2.5591" layerid="11" stroke-width="0"/></g><g c_partid="part_pad" c_etype="pinpart" c_origin="4299.5,3169.64" layerid="11" number="1" net="P2_1" plated ="Y"  id="gge91" locked="0" c_rotation="270" c_width="7.874" c_height="7.874" title="P2_1" c_shape="ELLIPSE" pasteexpansion="0" solderexpansion="0.4"><ellipse c_etype="pad_shell" cx="4299.5" cy="3169.64" rx="3.937" ry="3.937" layerid="11" stroke-width="0"/><circle c_etype="pad_hole" cx="4299.5" cy="3169.64" r="2.5591" layerid="11" stroke-width="0"/></g><g c_partid="part_pad" c_etype="pinpart" c_origin="4299.5,3189.36" layerid="11" number="2" net="P2_1" plated ="Y"  id="gge96" locked="0" c_rotation="270" c_width="7.874" c_height="7.874" title="P2_1" c_shape="ELLIPSE" pasteexpansion="0" solderexpansion="0.4"><ellipse c_etype="pad_shell" cx="4299.5" cy="3189.36" rx="3.937" ry="3.937" layerid="11" stroke-width="0"/><circle c_etype="pad_hole" cx="4299.5" cy="3189.36" r="2.5591" layerid="11" stroke-width="0"/></g><g c_partid="part_pad" c_etype="pinpart" c_origin="4300,3226.64" layerid="11" number="1" net="P3_1" plated ="Y"  id="gge115" locked="0" c_rotation="270" c_width="7.874" c_height="7.874" title="P3_1" c_shape="ELLIPSE" pasteexpansion="0" solderexpansion="0.4"><ellipse c_etype="pad_shell" cx="4300" cy="3226.64" rx="3.937" ry="3.937" layerid="11" stroke-width="0"/><circle c_etype="pad_hole" cx="4300" cy="3226.64" r="2.5591" layerid="11" stroke-width="0"/></g><g c_partid="part_pad" c_etype="pinpart" c_origin="4300,3246.36" layerid="11" number="2" net="P3_1" plated ="Y"  id="gge120" locked="0" c_rotation="270" c_width="7.874" c_height="7.874" title="P3_1" c_shape="ELLIPSE" pasteexpansion="0" solderexpansion="0.4"><ellipse c_etype="pad_shell" cx="4300" cy="3246.36" rx="3.937" ry="3.937" layerid="11" stroke-width="0"/><circle c_etype="pad_hole" cx="4300" cy="3246.36" r="2.5591" layerid="11" stroke-width="0"/></g><g c_partid="part_pad" c_etype="pinpart" c_origin="4263,3232" layerid="11" number="1" net="P3_1" plated ="Y"  id="gge144" locked="0" c_rotation="0" c_width="11.811" c_height="11.811" title="P3_1" c_shape="ELLIPSE" pasteexpansion="0" solderexpansion="0.4"><ellipse c_etype="pad_shell" cx="4263" cy="3232" rx="5.9055" ry="5.9055" layerid="11" stroke-width="0"/><circle c_etype="pad_hole" cx="4263" cy="3232" r="3.1496" layerid="11" stroke-width="0"/></g><g c_partid="part_pad" c_etype="pinpart" c_origin="4264,3182" layerid="11" number="2" net="P2_1" plated ="Y"  id="gge149" locked="0" c_rotation="0" c_width="11.811" c_height="11.811" title="P2_1" c_shape="ELLIPSE" pasteexpansion="0" solderexpansion="0.4"><ellipse c_etype="pad_shell" cx="4264" cy="3182" rx="5.9055" ry="5.9055" layerid="11" stroke-width="0"/><circle c_etype="pad_hole" cx="4264" cy="3182" r="3.1496" layerid="11" stroke-width="0"/></g><g c_partid="part_pad" c_etype="pinpart" c_origin="4183,3182" layerid="11" number="4" net="P1_2" plated ="Y"  id="gge154" locked="0" c_rotation="0" c_width="11.811" c_height="11.811" title="P1_2" c_shape="ELLIPSE" pasteexpansion="0" solderexpansion="0.4"><ellipse c_etype="pad_shell" cx="4183" cy="3182" rx="5.9055" ry="5.9055" layerid="11" stroke-width="0"/><circle c_etype="pad_hole" cx="4183" cy="3182" r="3.1496" layerid="11" stroke-width="0"/></g><g c_partid="part_pad" c_etype="pinpart" c_origin="4183,3232" layerid="11" number="3" net="Q1_3" plated ="Y"  id="gge159" locked="0" c_rotation="0" c_width="11.811" c_height="11.811" title="Q1_3" c_shape="ELLIPSE" pasteexpansion="0" solderexpansion="0.4"><ellipse c_etype="pad_shell" cx="4183" cy="3232" rx="5.9055" ry="5.9055" layerid="11" stroke-width="0"/><circle c_etype="pad_hole" cx="4183" cy="3232" r="3.1496" layerid="11" stroke-width="0"/></g><g c_partid="part_pad" c_etype="pinpart" c_origin="4183,3206" layerid="11" number="5" net="Q2_2" plated ="Y"  id="gge164" locked="0" c_rotation="0" c_width="11.811" c_height="11.811" title="Q2_2" c_shape="ELLIPSE" pasteexpansion="0" solderexpansion="0.4"><ellipse c_etype="pad_shell" cx="4183" cy="3206" rx="5.9055" ry="5.9055" layerid="11" stroke-width="0"/><circle c_etype="pad_hole" cx="4183" cy="3206" r="3.1496" layerid="11" stroke-width="0"/></g><g c_partid="part_pad" c_etype="pinpart" c_origin="4102,3186.499" layerid="11" number="1" net="Q1_2" plated ="Y"  id="gge185" locked="0" c_rotation="0" c_width="7.4" c_height="7.4" title="Q1_2" c_shape="ELLIPSE" pasteexpansion="0" solderexpansion="0.4"><ellipse c_etype="pad_shell" cx="4102" cy="3186.499" rx="3.7" ry="3.7" layerid="11" stroke-width="0"/><circle c_etype="pad_hole" cx="4102" cy="3186.499" r="1.77" layerid="11" stroke-width="0"/></g><g c_partid="part_pad" c_etype="pinpart" c_origin="4132,3186.499" layerid="11" number="2" net="Q1_1" plated ="Y"  id="gge190" locked="0" c_rotation="0" c_width="7.4" c_height="7.4" title="Q1_1" c_shape="ELLIPSE" pasteexpansion="0" solderexpansion="0.4"><ellipse c_etype="pad_shell" cx="4132" cy="3186.499" rx="3.7" ry="3.7" layerid="11" stroke-width="0"/><circle c_etype="pad_hole" cx="4132" cy="3186.499" r="1.77" layerid="11" stroke-width="0"/></g><g c_partid="part_pad" c_etype="pinpart" c_origin="4101.5,3205.999" layerid="11" number="1" net="Q1_2" plated ="Y"  id="gge211" locked="0" c_rotation="0" c_width="7.4" c_height="7.4" title="Q1_2" c_shape="ELLIPSE" pasteexpansion="0" solderexpansion="0.4"><ellipse c_etype="pad_shell" cx="4101.5" cy="3205.999" rx="3.7" ry="3.7" layerid="11" stroke-width="0"/><circle c_etype="pad_hole" cx="4101.5" cy="3205.999" r="1.77" layerid="11" stroke-width="0"/></g><g c_partid="part_pad" c_etype="pinpart" c_origin="4131.5,3205.999" layerid="11" number="2" net="Q2_1" plated ="Y"  id="gge216" locked="0" c_rotation="0" c_width="7.4" c_height="7.4" title="Q2_1" c_shape="ELLIPSE" pasteexpansion="0" solderexpansion="0.4"><ellipse c_etype="pad_shell" cx="4131.5" cy="3205.999" rx="3.7" ry="3.7" layerid="11" stroke-width="0"/><circle c_etype="pad_hole" cx="4131.5" cy="3205.999" r="1.77" layerid="11" stroke-width="0"/></g><g c_partid="part_pad" c_etype="pinpart" c_origin="4102,3221" layerid="11" number="1" net="Q2_1" plated ="Y"  id="gge237" locked="0" c_rotation="0" c_width="7.4" c_height="7.4" title="Q2_1" c_shape="ELLIPSE" pasteexpansion="0" solderexpansion="0.4"><ellipse c_etype="pad_shell" cx="4102" cy="3221" rx="3.7" ry="3.7" layerid="11" stroke-width="0"/><circle c_etype="pad_hole" cx="4102" cy="3221" r="1.77" layerid="11" stroke-width="0"/></g><g c_partid="part_pad" c_etype="pinpart" c_origin="4132,3221" layerid="11" number="2" net="Q1_3" plated ="Y"  id="gge242" locked="0" c_rotation="0" c_width="7.4" c_height="7.4" title="Q1_3" c_shape="ELLIPSE" pasteexpansion="0" solderexpansion="0.4"><ellipse c_etype="pad_shell" cx="4132" cy="3221" rx="3.7" ry="3.7" layerid="11" stroke-width="0"/><circle c_etype="pad_hole" cx="4132" cy="3221" r="1.77" layerid="11" stroke-width="0"/></g><g c_partid="part_pad" c_etype="pinpart" c_origin="4101.5,3243.5" layerid="11" number="1" net="Q1_1" plated ="Y"  id="gge263" locked="0" c_rotation="0" c_width="7.4" c_height="7.4" title="Q1_1" c_shape="ELLIPSE" pasteexpansion="0" solderexpansion="0.4"><ellipse c_etype="pad_shell" cx="4101.5" cy="3243.5" rx="3.7" ry="3.7" layerid="11" stroke-width="0"/><circle c_etype="pad_hole" cx="4101.5" cy="3243.5" r="1.77" layerid="11" stroke-width="0"/></g><g c_partid="part_pad" c_etype="pinpart" c_origin="4131.5,3243.5" layerid="11" number="2" net="Q2_2" plated ="Y"  id="gge268" locked="0" c_rotation="0" c_width="7.4" c_height="7.4" title="Q2_2" c_shape="ELLIPSE" pasteexpansion="0" solderexpansion="0.4"><ellipse c_etype="pad_shell" cx="4131.5" cy="3243.5" rx="3.7" ry="3.7" layerid="11" stroke-width="0"/><circle c_etype="pad_hole" cx="4131.5" cy="3243.5" r="1.77" layerid="11" stroke-width="0"/></g><polyline points="4147.945 3205.634 4147.945 3247.366" stroke-width="1"  stroke-linecap="round" fill="none" layerid="3" net="" id="gge7" locked="0" /><polyline points="4145.98 3247.37 4145.98 3205.63 4164.87 3205.63 4164.87 3247.37 4146 3247.37 4145.98 3247.37" stroke-width="1"  stroke-linecap="round" fill="none" layerid="3" net="" id="gge8" locked="0" /><polyline points="4148.945 3156.134 4148.945 3197.866" stroke-width="1"  stroke-linecap="round" fill="none" layerid="3" net="" id="gge33" locked="0" /><polyline points="4146.98 3197.87 4146.98 3156.13 4165.87 3156.13 4165.87 3197.87 4147 3197.87 4146.98 3197.87" stroke-width="1"  stroke-linecap="round" fill="none" layerid="3" net="" id="gge34" locked="0" /><polyline points="4037.344 3183.507 4072.777 3183.507" stroke-width="1"  stroke-linecap="round" fill="none" layerid="3" net="" id="gge59" locked="0" /><polyline points="4037.462 3224.845 4072.895 3224.845" stroke-width="1"  stroke-linecap="round" fill="none" layerid="3" net="" id="gge60" locked="0" /><polyline points="4037.344 3224.845 4037.344 3183.507" stroke-width="1"  stroke-linecap="round" fill="none" layerid="3" net="" id="gge61" locked="0" /><polyline points="4044.548 3224.963 4044.548 3183.625" stroke-width="1"  stroke-linecap="round" fill="none" layerid="3" net="" id="gge62" locked="0" /><polyline points="4039.706 3224.845 4039.706 3183.507" stroke-width="1"  stroke-linecap="round" fill="none" layerid="3" net="" id="gge63" locked="0" /><polyline points="4072.895 3224.845 4072.895 3183.507" stroke-width="1"  stroke-linecap="round" fill="none" layerid="3" net="" id="gge64" locked="0" /><polyline points="4316.156 3199.993 4280.723 3199.993" stroke-width="1"  stroke-linecap="round" fill="none" layerid="3" net="" id="gge83" locked="0" /><polyline points="4316.038 3158.655 4280.605 3158.655" stroke-width="1"  stroke-linecap="round" fill="none" layerid="3" net="" id="gge84" locked="0" /><polyline points="4316.156 3158.655 4316.156 3199.993" stroke-width="1"  stroke-linecap="round" fill="none" layerid="3" net="" id="gge85" locked="0" /><polyline points="4308.952 3158.537 4308.952 3199.875" stroke-width="1"  stroke-linecap="round" fill="none" layerid="3" net="" id="gge86" locked="0" /><polyline points="4313.794 3158.655 4313.794 3199.993" stroke-width="1"  stroke-linecap="round" fill="none" layerid="3" net="" id="gge87" locked="0" /><polyline points="4280.605 3158.655 4280.605 3199.993" stroke-width="1"  stroke-linecap="round" fill="none" layerid="3" net="" id="gge88" locked="0" /><polyline points="4316.656 3256.993 4281.223 3256.993" stroke-width="1"  stroke-linecap="round" fill="none" layerid="3" net="" id="gge107" locked="0" /><polyline points="4316.538 3215.655 4281.105 3215.655" stroke-width="1"  stroke-linecap="round" fill="none" layerid="3" net="" id="gge108" locked="0" /><polyline points="4316.656 3215.655 4316.656 3256.993" stroke-width="1"  stroke-linecap="round" fill="none" layerid="3" net="" id="gge109" locked="0" /><polyline points="4309.452 3215.537 4309.452 3256.875" stroke-width="1"  stroke-linecap="round" fill="none" layerid="3" net="" id="gge110" locked="0" /><polyline points="4314.294 3215.655 4314.294 3256.993" stroke-width="1"  stroke-linecap="round" fill="none" layerid="3" net="" id="gge111" locked="0" /><polyline points="4281.105 3215.655 4281.105 3256.993" stroke-width="1"  stroke-linecap="round" fill="none" layerid="3" net="" id="gge112" locked="0" /><polyline points="4192 3165 4254 3165" stroke-width="1"  stroke-linecap="round" fill="none" layerid="3" net="" id="gge131" locked="0" /><polyline points="4254 3165 4254 3247" stroke-width="1"  stroke-linecap="round" fill="none" layerid="3" net="" id="gge132" locked="0" /><polyline points="4192 3165 4192 3247" stroke-width="1"  stroke-linecap="round" fill="none" layerid="3" net="" id="gge133" locked="0" /><polyline points="4192 3247 4254 3247" stroke-width="1"  stroke-linecap="round" fill="none" layerid="3" net="" id="gge134" locked="0" /><polyline points="4192 3187 4254 3187" stroke-width="1"  stroke-linecap="round" fill="none" layerid="3" net="" id="gge135" locked="0" /><polyline points="4192 3191 4254 3191" stroke-width="1"  stroke-linecap="round" fill="none" layerid="3" net="" id="gge136" locked="0" /><polyline points="4192 3226 4254 3226" stroke-width="1"  stroke-linecap="round" fill="none" layerid="3" net="" id="gge137" locked="0" /><polyline points="4192 3222 4254 3222" stroke-width="1"  stroke-linecap="round" fill="none" layerid="3" net="" id="gge138" locked="0" /><polyline points="4185 3206 4192 3206" stroke-width="1"  stroke-linecap="round" fill="none" layerid="3" net="" id="gge139" locked="0" /><polyline points="4188 3185 4192 3187" stroke-width="1"  stroke-linecap="round" fill="none" layerid="3" net="" id="gge140" locked="0" /><polyline points="4187 3230 4192 3226" stroke-width="1"  stroke-linecap="round" fill="none" layerid="3" net="" id="gge141" locked="0" /><polyline points="4254 3187 4262 3183" stroke-width="1"  stroke-linecap="round" fill="none" layerid="3" net="" id="gge142" locked="0" /><polyline points="4254 3226 4259 3228" stroke-width="1"  stroke-linecap="round" fill="none" layerid="3" net="" id="gge143" locked="0" /><polyline points="4107 3186.499 4106 3186.499" stroke-width="1"  stroke-linecap="round" fill="none" layerid="3" net="" id="gge175" locked="0" /><polyline points="4127 3186.499 4128 3186.499" stroke-width="1"  stroke-linecap="round" fill="none" layerid="3" net="" id="gge176" locked="0" /><polyline points="4107 3186.499 4107 3183.499" stroke-width="1"  stroke-linecap="round" fill="none" layerid="3" net="" id="gge177" locked="0" /><polyline points="4107 3189.499 4107 3186.499" stroke-width="1"  stroke-linecap="round" fill="none" layerid="3" net="" id="gge178" locked="0" /><polyline points="4127 3189.499 4107 3189.499" stroke-width="1"  stroke-linecap="round" fill="none" layerid="3" net="" id="gge179" locked="0" /><polyline points="4127 3186.499 4127 3189.499" stroke-width="1"  stroke-linecap="round" fill="none" layerid="3" net="" id="gge180" locked="0" /><polyline points="4127 3183.499 4127 3186.499" stroke-width="1"  stroke-linecap="round" fill="none" layerid="3" net="" id="gge181" locked="0" /><polyline points="4107 3183.499 4127 3183.499" stroke-width="1"  stroke-linecap="round" fill="none" layerid="3" net="" id="gge182" locked="0" /><polyline points="4106.5 3205.999 4105.5 3205.999" stroke-width="1"  stroke-linecap="round" fill="none" layerid="3" net="" id="gge201" locked="0" /><polyline points="4126.5 3205.999 4127.5 3205.999" stroke-width="1"  stroke-linecap="round" fill="none" layerid="3" net="" id="gge202" locked="0" /><polyline points="4106.5 3205.999 4106.5 3202.999" stroke-width="1"  stroke-linecap="round" fill="none" layerid="3" net="" id="gge203" locked="0" /><polyline points="4106.5 3208.999 4106.5 3205.999" stroke-width="1"  stroke-linecap="round" fill="none" layerid="3" net="" id="gge204" locked="0" /><polyline points="4126.5 3208.999 4106.5 3208.999" stroke-width="1"  stroke-linecap="round" fill="none" layerid="3" net="" id="gge205" locked="0" /><polyline points="4126.5 3205.999 4126.5 3208.999" stroke-width="1"  stroke-linecap="round" fill="none" layerid="3" net="" id="gge206" locked="0" /><polyline points="4126.5 3202.999 4126.5 3205.999" stroke-width="1"  stroke-linecap="round" fill="none" layerid="3" net="" id="gge207" locked="0" /><polyline points="4106.5 3202.999 4126.5 3202.999" stroke-width="1"  stroke-linecap="round" fill="none" layerid="3" net="" id="gge208" locked="0" /><polyline points="4107 3221 4106 3221" stroke-width="1"  stroke-linecap="round" fill="none" layerid="3" net="" id="gge227" locked="0" /><polyline points="4127 3221 4128 3221" stroke-width="1"  stroke-linecap="round" fill="none" layerid="3" net="" id="gge228" locked="0" /><polyline points="4107 3221 4107 3218" stroke-width="1"  stroke-linecap="round" fill="none" layerid="3" net="" id="gge229" locked="0" /><polyline points="4107 3224 4107 3221" stroke-width="1"  stroke-linecap="round" fill="none" layerid="3" net="" id="gge230" locked="0" /><polyline points="4127 3224 4107 3224" stroke-width="1"  stroke-linecap="round" fill="none" layerid="3" net="" id="gge231" locked="0" /><polyline points="4127 3221 4127 3224" stroke-width="1"  stroke-linecap="round" fill="none" layerid="3" net="" id="gge232" locked="0" /><polyline points="4127 3218 4127 3221" stroke-width="1"  stroke-linecap="round" fill="none" layerid="3" net="" id="gge233" locked="0" /><polyline points="4107 3218 4127 3218" stroke-width="1"  stroke-linecap="round" fill="none" layerid="3" net="" id="gge234" locked="0" /><polyline points="4106.5 3243.5 4105.5 3243.5" stroke-width="1"  stroke-linecap="round" fill="none" layerid="3" net="" id="gge253" locked="0" /><polyline points="4126.5 3243.5 4127.5 3243.5" stroke-width="1"  stroke-linecap="round" fill="none" layerid="3" net="" id="gge254" locked="0" /><polyline points="4106.5 3243.5 4106.5 3240.5" stroke-width="1"  stroke-linecap="round" fill="none" layerid="3" net="" id="gge255" locked="0" /><polyline points="4106.5 3246.5 4106.5 3243.5" stroke-width="1"  stroke-linecap="round" fill="none" layerid="3" net="" id="gge256" locked="0" /><polyline points="4126.5 3246.5 4106.5 3246.5" stroke-width="1"  stroke-linecap="round" fill="none" layerid="3" net="" id="gge257" locked="0" /><polyline points="4126.5 3243.5 4126.5 3246.5" stroke-width="1"  stroke-linecap="round" fill="none" layerid="3" net="" id="gge258" locked="0" /><polyline points="4126.5 3240.5 4126.5 3243.5" stroke-width="1"  stroke-linecap="round" fill="none" layerid="3" net="" id="gge259" locked="0" /><polyline points="4106.5 3240.5 4126.5 3240.5" stroke-width="1"  stroke-linecap="round" fill="none" layerid="3" net="" id="gge260" locked="0" /><g c_partid="part_pcbtext" c_etype="pinpart" c_origin="4145.5,3259.5" c_rotation="0" c_mirror="0" id="gge301" locked="0" layerid="3" c_shapetype="group" ><path c_fontsize="8" c_fontfamily="" c_text="INVERTER" d="M 4145.5 3251.43 L 4145.5 3259.06 M 4147.9 3251.43 L 4147.9 3259.06 M 4147.9 3251.43 L 4152.99 3259.06 M 4152.99 3251.43 L 4152.99 3259.06 M 4155.39 3251.43 L 4158.3 3259.06 M 4161.21 3251.43 L 4158.3 3259.06 M 4163.61 3251.43 L 4163.61 3259.06 M 4163.61 3251.43 L 4168.34 3251.43 M 4163.61 3255.06 L 4166.52 3255.06 M 4163.61 3259.06 L 4168.34 3259.06 M 4170.74 3251.43 L 4170.74 3259.06 M 4170.74 3251.43 L 4174.01 3251.43 L 4175.1 3251.79 L 4175.46 3252.15 L 4175.83 3252.88 L 4175.83 3253.61 L 4175.46 3254.34 L 4175.1 3254.7 L 4174.01 3255.06 L 4170.74 3255.06 M 4173.28 3255.06 L 4175.83 3259.06 M 4180.77 3251.43 L 4180.77 3259.06 M 4178.23 3251.43 L 4183.32 3251.43 M 4185.72 3251.43 L 4185.72 3259.06 M 4185.72 3251.43 L 4190.45 3251.43 M 4185.72 3255.06 L 4188.63 3255.06 M 4185.72 3259.06 L 4190.45 3259.06 M 4192.85 3251.43 L 4192.85 3259.06 M 4192.85 3251.43 L 4196.12 3251.43 L 4197.21 3251.79 L 4197.57 3252.15 L 4197.94 3252.88 L 4197.94 3253.61 L 4197.57 3254.34 L 4197.21 3254.7 L 4196.12 3255.06 L 4192.85 3255.06 M 4195.39 3255.06 L 4197.94 3259.06" fill="none"  stroke-width="0.8"  /></g><g c_partid="part_pcbtext" c_etype="pinpart" c_origin="4244.5,3156" c_rotation="0" c_mirror="0" id="gge295" locked="0" layerid="3" c_shapetype="group" ><path c_fontsize="8" c_fontfamily="" c_text="OUTPUT AC" d="M 4246.68 3147.93 L 4245.95 3148.29 L 4245.23 3149.02 L 4244.86 3149.75 L 4244.5 3150.84 L 4244.5 3152.65 L 4244.86 3153.75 L 4245.23 3154.47 L 4245.95 3155.2 L 4246.68 3155.56 L 4248.14 3155.56 L 4248.86 3155.2 L 4249.59 3154.47 L 4249.95 3153.75 L 4250.32 3152.65 L 4250.32 3150.84 L 4249.95 3149.75 L 4249.59 3149.02 L 4248.86 3148.29 L 4248.14 3147.93 L 4246.68 3147.93 M 4252.72 3147.93 L 4252.72 3153.38 L 4253.08 3154.47 L 4253.81 3155.2 L 4254.9 3155.56 L 4255.63 3155.56 L 4256.72 3155.2 L 4257.45 3154.47 L 4257.81 3153.38 L 4257.81 3147.93 M 4262.75 3147.93 L 4262.75 3155.56 M 4260.21 3147.93 L 4265.3 3147.93 M 4267.7 3147.93 L 4267.7 3155.56 M 4267.7 3147.93 L 4270.97 3147.93 L 4272.06 3148.29 L 4272.43 3148.65 L 4272.79 3149.38 L 4272.79 3150.47 L 4272.43 3151.2 L 4272.06 3151.56 L 4270.97 3151.93 L 4267.7 3151.93 M 4275.19 3147.93 L 4275.19 3153.38 L 4275.55 3154.47 L 4276.28 3155.2 L 4277.37 3155.56 L 4278.1 3155.56 L 4279.19 3155.2 L 4279.92 3154.47 L 4280.28 3153.38 L 4280.28 3147.93 M 4285.23 3147.93 L 4285.23 3155.56 M 4282.68 3147.93 L 4287.77 3147.93 M 4298.68 3147.93 L 4295.77 3155.56 M 4298.68 3147.93 L 4301.59 3155.56 M 4296.86 3153.02 L 4300.5 3153.02 M 4309.45 3149.75 L 4309.08 3149.02 L 4308.35 3148.29 L 4307.63 3147.93 L 4306.17 3147.93 L 4305.45 3148.29 L 4304.72 3149.02 L 4304.35 3149.75 L 4303.99 3150.84 L 4303.99 3152.65 L 4304.35 3153.75 L 4304.72 3154.47 L 4305.45 3155.2 L 4306.17 3155.56 L 4307.63 3155.56 L 4308.35 3155.2 L 4309.08 3154.47 L 4309.45 3153.75" fill="none"  stroke-width="0.8"  /></g><g c_partid="part_pcbtext" c_etype="pinpart" c_origin="4035.5,3170" c_rotation="0" c_mirror="0" id="gge293" locked="0" layerid="3" c_shapetype="group" ><path c_fontsize="8" c_fontfamily="" c_text="INPUT DC" d="M 4035.5 3161.93 L 4035.5 3169.56 M 4037.9 3161.93 L 4037.9 3169.56 M 4037.9 3161.93 L 4042.99 3169.56 M 4042.99 3161.93 L 4042.99 3169.56 M 4045.39 3161.93 L 4045.39 3169.56 M 4045.39 3161.93 L 4048.66 3161.93 L 4049.75 3162.29 L 4050.12 3162.65 L 4050.48 3163.38 L 4050.48 3164.47 L 4050.12 3165.2 L 4049.75 3165.56 L 4048.66 3165.93 L 4045.39 3165.93 M 4052.88 3161.93 L 4052.88 3167.38 L 4053.25 3168.47 L 4053.97 3169.2 L 4055.06 3169.56 L 4055.79 3169.56 L 4056.88 3169.2 L 4057.61 3168.47 L 4057.97 3167.38 L 4057.97 3161.93 M 4062.92 3161.93 L 4062.92 3169.56 M 4060.37 3161.93 L 4065.46 3161.93 M 4073.46 3161.93 L 4073.46 3169.56 M 4073.46 3161.93 L 4076.01 3161.93 L 4077.1 3162.29 L 4077.83 3163.02 L 4078.19 3163.75 L 4078.55 3164.84 L 4078.55 3166.65 L 4078.19 3167.75 L 4077.83 3168.47 L 4077.1 3169.2 L 4076.01 3169.56 L 4073.46 3169.56 M 4086.41 3163.75 L 4086.05 3163.02 L 4085.32 3162.29 L 4084.59 3161.93 L 4083.14 3161.93 L 4082.41 3162.29 L 4081.68 3163.02 L 4081.32 3163.75 L 4080.95 3164.84 L 4080.95 3166.65 L 4081.32 3167.75 L 4081.68 3168.47 L 4082.41 3169.2 L 4083.14 3169.56 L 4084.59 3169.56 L 4085.32 3169.2 L 4086.05 3168.47 L 4086.41 3167.75" fill="none"  stroke-width="0.8"  /></g><g c_partid="part_pcbtext" c_etype="" c_origin="4136,3227" c_rotation="90" c_mirror="0" id="gge3" locked="0" layerid="3" c_shapetype="group" display="none"><path c_fontsize="4.5" c_fontfamily="" c_text="MJE3055" d="M 4131.46 3227.0004 L 4135.75 3227.0004 M 4131.46 3227.0004 L 4135.75 3225.3604 M 4131.46 3223.7304 L 4135.75 3225.3604 M 4131.46 3223.7304 L 4135.75 3223.7304 M 4131.46 3220.3304 L 4134.73 3220.3304 L 4135.35 3220.5404 L 4135.55 3220.7404 L 4135.75 3221.1504 L 4135.75 3221.5604 L 4135.55 3221.9704 L 4135.35 3222.1704 L 4134.73 3222.3804 L 4134.32 3222.3804 M 4131.46 3218.9804 L 4135.75 3218.9804 M 4131.46 3218.9804 L 4131.46 3216.3204 M 4133.5 3218.9804 L 4133.5 3217.3504 M 4135.75 3218.9804 L 4135.75 3216.3204 M 4131.46 3214.5604 L 4131.46 3212.3104 L 4133.1 3213.5404 L 4133.1 3212.9304 L 4133.3 3212.5204 L 4133.5 3212.3104 L 4134.12 3212.1104 L 4134.53 3212.1104 L 4135.14 3212.3104 L 4135.55 3212.7204 L 4135.75 3213.3404 L 4135.75 3213.9504 L 4135.55 3214.5604 L 4135.35 3214.7704 L 4134.94 3214.9704 M 4131.46 3209.5304 L 4131.66 3210.1504 L 4132.28 3210.5504 L 4133.3 3210.7604 L 4133.91 3210.7604 L 4134.94 3210.5504 L 4135.55 3210.1504 L 4135.75 3209.5304 L 4135.75 3209.1204 L 4135.55 3208.5104 L 4134.94 3208.1004 L 4133.91 3207.9004 L 4133.3 3207.9004 L 4132.28 3208.1004 L 4131.66 3208.5104 L 4131.46 3209.1204 L 4131.46 3209.5304 M 4131.46 3204.0904 L 4131.46 3206.1404 L 4133.3 3206.3404 L 4133.1 3206.1404 L 4132.89 3205.5204 L 4132.89 3204.9104 L 4133.1 3204.3004 L 4133.5 3203.8904 L 4134.12 3203.6804 L 4134.53 3203.6804 L 4135.14 3203.8904 L 4135.55 3204.3004 L 4135.75 3204.9104 L 4135.75 3205.5204 L 4135.55 3206.1404 L 4135.35 3206.3404 L 4134.94 3206.5504 M 4131.46 3199.8804 L 4131.46 3201.9204 L 4133.3 3202.1304 L 4133.1 3201.9204 L 4132.89 3201.3104 L 4132.89 3200.7004 L 4133.1 3200.0804 L 4133.5 3199.6704 L 4134.12 3199.4704 L 4134.53 3199.4704 L 4135.14 3199.6704 L 4135.55 3200.0804 L 4135.75 3200.7004 L 4135.75 3201.3104 L 4135.55 3201.9204 L 4135.35 3202.1304 L 4134.94 3202.3304" fill="none"  stroke-width="0.6" c_note="note_name" /></g><g c_partid="part_pcbtext" c_etype="" c_origin="4143,3227" c_rotation="90" c_mirror="0" id="gge5" locked="0" layerid="3" c_shapetype="group" ><path c_fontsize="4.5" c_fontfamily="" c_text="Q1" d="M 4138.46 3225.77 L 4138.66 3226.18 L 4139.07 3226.59 L 4139.48 3226.8 L 4140.1 3227 L 4141.12 3227 L 4141.73 3226.8 L 4142.14 3226.59 L 4142.55 3226.18 L 4142.75 3225.77 L 4142.75 3224.95 L 4142.55 3224.55 L 4142.14 3224.14 L 4141.73 3223.93 L 4141.12 3223.73 L 4140.1 3223.73 L 4139.48 3223.93 L 4139.07 3224.14 L 4138.66 3224.55 L 4138.46 3224.95 L 4138.46 3225.77 M 4141.94 3225.16 L 4143.16 3223.93 M 4139.28 3222.38 L 4139.07 3221.97 L 4138.46 3221.35 L 4142.75 3221.35" fill="none"  stroke-width="0.6" c_note="note_pre" /></g><g c_partid="part_pcbtext" c_etype="" c_origin="4137,3177.5" c_rotation="90" c_mirror="0" id="gge29" locked="0" layerid="3" c_shapetype="group" display="none"><path c_fontsize="4.5" c_fontfamily="" c_text="MJE3055" d="M 4132.46 3177.5004 L 4136.75 3177.5004 M 4132.46 3177.5004 L 4136.75 3175.8604 M 4132.46 3174.2304 L 4136.75 3175.8604 M 4132.46 3174.2304 L 4136.75 3174.2304 M 4132.46 3170.8304 L 4135.73 3170.8304 L 4136.35 3171.0404 L 4136.55 3171.2404 L 4136.75 3171.6504 L 4136.75 3172.0604 L 4136.55 3172.4704 L 4136.35 3172.6704 L 4135.73 3172.8804 L 4135.32 3172.8804 M 4132.46 3169.4804 L 4136.75 3169.4804 M 4132.46 3169.4804 L 4132.46 3166.8204 M 4134.5 3169.4804 L 4134.5 3167.8504 M 4136.75 3169.4804 L 4136.75 3166.8204 M 4132.46 3165.0604 L 4132.46 3162.8104 L 4134.1 3164.0404 L 4134.1 3163.4304 L 4134.3 3163.0204 L 4134.5 3162.8104 L 4135.12 3162.6104 L 4135.53 3162.6104 L 4136.14 3162.8104 L 4136.55 3163.2204 L 4136.75 3163.8404 L 4136.75 3164.4504 L 4136.55 3165.0604 L 4136.35 3165.2704 L 4135.94 3165.4704 M 4132.46 3160.0304 L 4132.66 3160.6504 L 4133.28 3161.0504 L 4134.3 3161.2604 L 4134.91 3161.2604 L 4135.94 3161.0504 L 4136.55 3160.6504 L 4136.75 3160.0304 L 4136.75 3159.6204 L 4136.55 3159.0104 L 4135.94 3158.6004 L 4134.91 3158.4004 L 4134.3 3158.4004 L 4133.28 3158.6004 L 4132.66 3159.0104 L 4132.46 3159.6204 L 4132.46 3160.0304 M 4132.46 3154.5904 L 4132.46 3156.6404 L 4134.3 3156.8404 L 4134.1 3156.6404 L 4133.89 3156.0204 L 4133.89 3155.4104 L 4134.1 3154.8004 L 4134.5 3154.3904 L 4135.12 3154.1804 L 4135.53 3154.1804 L 4136.14 3154.3904 L 4136.55 3154.8004 L 4136.75 3155.4104 L 4136.75 3156.0204 L 4136.55 3156.6404 L 4136.35 3156.8404 L 4135.94 3157.0504 M 4132.46 3150.3804 L 4132.46 3152.4204 L 4134.3 3152.6304 L 4134.1 3152.4204 L 4133.89 3151.8104 L 4133.89 3151.2004 L 4134.1 3150.5804 L 4134.5 3150.1704 L 4135.12 3149.9704 L 4135.53 3149.9704 L 4136.14 3150.1704 L 4136.55 3150.5804 L 4136.75 3151.2004 L 4136.75 3151.8104 L 4136.55 3152.4204 L 4136.35 3152.6304 L 4135.94 3152.8304" fill="none"  stroke-width="0.6" c_note="note_name" /></g><g c_partid="part_pcbtext" c_etype="" c_origin="4144,3177.5" c_rotation="90" c_mirror="0" id="gge31" locked="0" layerid="3" c_shapetype="group" ><path c_fontsize="4.5" c_fontfamily="" c_text="Q2" d="M 4139.46 3176.27 L 4139.66 3176.68 L 4140.07 3177.09 L 4140.48 3177.3 L 4141.1 3177.5 L 4142.12 3177.5 L 4142.73 3177.3 L 4143.14 3177.09 L 4143.55 3176.68 L 4143.75 3176.27 L 4143.75 3175.45 L 4143.55 3175.05 L 4143.14 3174.64 L 4142.73 3174.43 L 4142.12 3174.23 L 4141.1 3174.23 L 4140.48 3174.43 L 4140.07 3174.64 L 4139.66 3175.05 L 4139.46 3175.45 L 4139.46 3176.27 M 4142.94 3175.66 L 4144.16 3174.43 M 4140.48 3172.67 L 4140.28 3172.67 L 4139.87 3172.47 L 4139.66 3172.26 L 4139.46 3171.85 L 4139.46 3171.04 L 4139.66 3170.63 L 4139.87 3170.42 L 4140.28 3170.22 L 4140.69 3170.22 L 4141.1 3170.42 L 4141.71 3170.83 L 4143.75 3172.88 L 4143.75 3170.01" fill="none"  stroke-width="0.6" c_note="note_pre" /></g><g c_partid="part_pcbtext" c_etype="" c_origin="4029.06,3204.94" c_rotation="90" c_mirror="0" id="gge55" locked="0" layerid="3" c_shapetype="group" display="none"><path c_fontsize="4.5" c_fontfamily="" c_text="12VDC" d="M 4025.34 3204.9399 L 4025.13 3204.5299 L 4024.52 3203.9199 L 4028.81 3203.9199 M 4025.54 3202.3599 L 4025.34 3202.3599 L 4024.93 3202.1599 L 4024.72 3201.9499 L 4024.52 3201.5399 L 4024.52 3200.7299 L 4024.72 3200.3199 L 4024.93 3200.1099 L 4025.34 3199.9099 L 4025.75 3199.9099 L 4026.16 3200.1099 L 4026.77 3200.5199 L 4028.81 3202.5699 L 4028.81 3199.6999 M 4024.52 3198.3499 L 4028.81 3196.7199 M 4024.52 3195.0799 L 4028.81 3196.7199 M 4024.52 3193.7299 L 4028.81 3193.7299 M 4024.52 3193.7299 L 4024.52 3192.2999 L 4024.72 3191.6899 L 4025.13 3191.2799 L 4025.54 3191.0699 L 4026.16 3190.8699 L 4027.18 3190.8699 L 4027.79 3191.0699 L 4028.2 3191.2799 L 4028.61 3191.6899 L 4028.81 3192.2999 L 4028.81 3193.7299 M 4025.54 3186.4499 L 4025.13 3186.6499 L 4024.72 3187.0599 L 4024.52 3187.4699 L 4024.52 3188.2899 L 4024.72 3188.6999 L 4025.13 3189.1099 L 4025.54 3189.3099 L 4026.16 3189.5199 L 4027.18 3189.5199 L 4027.79 3189.3099 L 4028.2 3189.1099 L 4028.61 3188.6999 L 4028.81 3188.2899 L 4028.81 3187.4699 L 4028.61 3187.0599 L 4028.2 3186.6499 L 4027.79 3186.4499" fill="none"  stroke-width="0.6" c_note="note_name" /></g><g c_partid="part_pcbtext" c_etype="" c_origin="4036.06,3204.94" c_rotation="90" c_mirror="0" id="gge57" locked="0" layerid="3" c_shapetype="group" ><path c_fontsize="4.5" c_fontfamily="" c_text="P1" d="M 4031.52 3204.94 L 4035.81 3204.94 M 4031.52 3204.94 L 4031.52 3203.1 L 4031.72 3202.49 L 4031.93 3202.28 L 4032.34 3202.08 L 4032.95 3202.08 L 4033.36 3202.28 L 4033.56 3202.49 L 4033.77 3203.1 L 4033.77 3204.94 M 4032.34 3200.73 L 4032.13 3200.32 L 4031.52 3199.7 L 4035.81 3199.7" fill="none"  stroke-width="0.6" c_note="note_pre" /></g><g c_partid="part_pcbtext" c_etype="" c_origin="4329.23,3194.06" c_rotation="90" c_mirror="0" id="gge79" locked="0" layerid="3" c_shapetype="group" display="none"><path c_fontsize="4.5" c_fontfamily="" c_text="FASE" d="M 4324.6899 3194.0595 L 4328.9799 3194.0595 M 4324.6899 3194.0595 L 4324.6899 3191.3995 M 4326.7299 3194.0595 L 4326.7299 3192.4195 M 4324.6899 3188.4095 L 4328.9799 3190.0495 M 4324.6899 3188.4095 L 4328.9799 3186.7795 M 4327.5499 3189.4395 L 4327.5499 3187.3895 M 4325.2999 3182.5595 L 4324.8899 3182.9695 L 4324.6899 3183.5895 L 4324.6899 3184.4095 L 4324.8899 3185.0195 L 4325.2999 3185.4295 L 4325.7099 3185.4295 L 4326.1199 3185.2195 L 4326.3299 3185.0195 L 4326.5299 3184.6095 L 4326.9399 3183.3795 L 4327.1399 3182.9695 L 4327.3499 3182.7695 L 4327.7599 3182.5595 L 4328.3699 3182.5595 L 4328.7799 3182.9695 L 4328.9799 3183.5895 L 4328.9799 3184.4095 L 4328.7799 3185.0195 L 4328.3699 3185.4295 M 4324.6899 3181.2095 L 4328.9799 3181.2095 M 4324.6899 3181.2095 L 4324.6899 3178.5595 M 4326.7299 3181.2095 L 4326.7299 3179.5795 M 4328.9799 3181.2095 L 4328.9799 3178.5595" fill="none"  stroke-width="0.6" c_note="note_name" /></g><g c_partid="part_pcbtext" c_etype="" c_origin="4317.44,3178.56" c_rotation="270" c_mirror="0" id="gge81" locked="0" layerid="3" c_shapetype="group" ><path c_fontsize="4.5" c_fontfamily="" c_text="P2" d="M 4321.98 3178.56 L 4317.69 3178.56 M 4321.98 3178.56 L 4321.98 3180.4 L 4321.78 3181.01 L 4321.57 3181.22 L 4321.16 3181.42 L 4320.55 3181.42 L 4320.14 3181.22 L 4319.94 3181.01 L 4319.73 3180.4 L 4319.73 3178.56 M 4320.96 3182.98 L 4321.16 3182.98 L 4321.57 3183.18 L 4321.78 3183.39 L 4321.98 3183.8 L 4321.98 3184.61 L 4321.78 3185.02 L 4321.57 3185.23 L 4321.16 3185.43 L 4320.75 3185.43 L 4320.34 3185.23 L 4319.73 3184.82 L 4317.69 3182.77 L 4317.69 3185.64" fill="none"  stroke-width="0.6" c_note="note_pre" /></g><g c_partid="part_pcbtext" c_etype="" c_origin="4329.73,3259.7" c_rotation="90" c_mirror="0" id="gge103" locked="0" layerid="3" c_shapetype="group" display="none"><path c_fontsize="4.5" c_fontfamily="" c_text="NEUTRO" d="M 4325.1899 3259.7002 L 4329.4799 3259.7002 M 4325.1899 3259.7002 L 4329.4799 3256.8402 M 4325.1899 3256.8402 L 4329.4799 3256.8402 M 4325.1899 3255.4902 L 4329.4799 3255.4902 M 4325.1899 3255.4902 L 4325.1899 3252.8302 M 4327.2299 3255.4902 L 4327.2299 3253.8502 M 4329.4799 3255.4902 L 4329.4799 3252.8302 M 4325.1899 3251.4802 L 4328.2599 3251.4802 L 4328.8699 3251.2702 L 4329.2799 3250.8602 L 4329.4799 3250.2502 L 4329.4799 3249.8402 L 4329.2799 3249.2302 L 4328.8699 3248.8202 L 4328.2599 3248.6102 L 4325.1899 3248.6102 M 4325.1899 3245.8302 L 4329.4799 3245.8302 M 4325.1899 3247.2602 L 4325.1899 3244.4002 M 4325.1899 3243.0502 L 4329.4799 3243.0502 M 4325.1899 3243.0502 L 4325.1899 3241.2102 L 4325.3899 3240.6002 L 4325.5999 3240.3902 L 4326.0099 3240.1902 L 4326.4199 3240.1902 L 4326.8299 3240.3902 L 4327.0299 3240.6002 L 4327.2299 3241.2102 L 4327.2299 3243.0502 M 4327.2299 3241.6202 L 4329.4799 3240.1902 M 4325.1899 3237.6102 L 4325.3899 3238.0202 L 4325.7999 3238.4302 L 4326.2099 3238.6302 L 4326.8299 3238.8402 L 4327.8499 3238.8402 L 4328.4599 3238.6302 L 4328.8699 3238.4302 L 4329.2799 3238.0202 L 4329.4799 3237.6102 L 4329.4799 3236.7902 L 4329.2799 3236.3802 L 4328.8699 3235.9702 L 4328.4599 3235.7702 L 4327.8499 3235.5602 L 4326.8299 3235.5602 L 4326.2099 3235.7702 L 4325.7999 3235.9702 L 4325.3899 3236.3802 L 4325.1899 3236.7902 L 4325.1899 3237.6102" fill="none"  stroke-width="0.6" c_note="note_name" /></g><g c_partid="part_pcbtext" c_etype="" c_origin="4317.94,3235.56" c_rotation="270" c_mirror="0" id="gge105" locked="0" layerid="3" c_shapetype="group" ><path c_fontsize="4.5" c_fontfamily="" c_text="P3" d="M 4322.48 3235.56 L 4318.19 3235.56 M 4322.48 3235.56 L 4322.48 3237.4 L 4322.28 3238.01 L 4322.07 3238.22 L 4321.66 3238.42 L 4321.05 3238.42 L 4320.64 3238.22 L 4320.44 3238.01 L 4320.23 3237.4 L 4320.23 3235.56 M 4322.48 3240.18 L 4322.48 3242.43 L 4320.84 3241.21 L 4320.84 3241.82 L 4320.64 3242.23 L 4320.44 3242.43 L 4319.82 3242.64 L 4319.41 3242.64 L 4318.8 3242.43 L 4318.39 3242.02 L 4318.19 3241.41 L 4318.19 3240.8 L 4318.39 3240.18 L 4318.59 3239.98 L 4319 3239.77" fill="none"  stroke-width="0.6" c_note="note_pre" /></g><g c_partid="part_pcbtext" c_etype="" c_origin="4170,3258.35" c_rotation="0" c_mirror="0" id="gge127" locked="0" layerid="3" c_shapetype="group" display="none"><path c_fontsize="4.5" c_fontfamily="" c_text="Mutual_Inductor2" d="M 4170.0004 3253.8104 L 4170.0004 3258.1004 M 4170.0004 3253.8104 L 4171.6404 3258.1004 M 4173.2704 3253.8104 L 4171.6404 3258.1004 M 4173.2704 3253.8104 L 4173.2704 3258.1004 M 4174.6204 3255.2404 L 4174.6204 3257.2904 L 4174.8304 3257.9004 L 4175.2404 3258.1004 L 4175.8504 3258.1004 L 4176.2604 3257.9004 L 4176.8704 3257.2904 M 4176.8704 3255.2404 L 4176.8704 3258.1004 M 4178.8404 3253.8104 L 4178.8404 3257.2904 L 4179.0404 3257.9004 L 4179.4504 3258.1004 L 4179.8604 3258.1004 M 4178.2204 3255.2404 L 4179.6504 3255.2404 M 4181.2104 3255.2404 L 4181.2104 3257.2904 L 4181.4104 3257.9004 L 4181.8204 3258.1004 L 4182.4404 3258.1004 L 4182.8504 3257.9004 L 4183.4604 3257.2904 M 4183.4604 3255.2404 L 4183.4604 3258.1004 M 4187.2604 3255.2404 L 4187.2604 3258.1004 M 4187.2604 3255.8504 L 4186.8504 3255.4504 L 4186.4504 3255.2404 L 4185.8304 3255.2404 L 4185.4204 3255.4504 L 4185.0104 3255.8504 L 4184.8104 3256.4704 L 4184.8104 3256.8804 L 4185.0104 3257.4904 L 4185.4204 3257.9004 L 4185.8304 3258.1004 L 4186.4504 3258.1004 L 4186.8504 3257.9004 L 4187.2604 3257.4904 M 4188.6104 3253.8104 L 4188.6104 3258.1004 M 4189.9604 3259.5404 L 4193.6504 3259.5404 M 4195.0004 3253.8104 L 4195.0004 3258.1004 M 4196.3504 3255.2404 L 4196.3504 3258.1004 M 4196.3504 3256.0604 L 4196.9604 3255.4504 L 4197.3704 3255.2404 L 4197.9804 3255.2404 L 4198.3904 3255.4504 L 4198.6004 3256.0604 L 4198.6004 3258.1004 M 4202.4004 3253.8104 L 4202.4004 3258.1004 M 4202.4004 3255.8504 L 4201.9904 3255.4504 L 4201.5804 3255.2404 L 4200.9704 3255.2404 L 4200.5604 3255.4504 L 4200.1504 3255.8504 L 4199.9504 3256.4704 L 4199.9504 3256.8804 L 4200.1504 3257.4904 L 4200.5604 3257.9004 L 4200.9704 3258.1004 L 4201.5804 3258.1004 L 4201.9904 3257.9004 L 4202.4004 3257.4904 M 4203.7504 3255.2404 L 4203.7504 3257.2904 L 4203.9504 3257.9004 L 4204.3604 3258.1004 L 4204.9804 3258.1004 L 4205.3904 3257.9004 L 4206.0004 3257.2904 M 4206.0004 3255.2404 L 4206.0004 3258.1004 M 4209.8004 3255.8504 L 4209.4004 3255.4504 L 4208.9904 3255.2404 L 4208.3704 3255.2404 L 4207.9604 3255.4504 L 4207.5504 3255.8504 L 4207.3504 3256.4704 L 4207.3504 3256.8804 L 4207.5504 3257.4904 L 4207.9604 3257.9004 L 4208.3704 3258.1004 L 4208.9904 3258.1004 L 4209.4004 3257.9004 L 4209.8004 3257.4904 M 4211.7704 3253.8104 L 4211.7704 3257.2904 L 4211.9704 3257.9004 L 4212.3804 3258.1004 L 4212.7904 3258.1004 M 4211.1504 3255.2404 L 4212.5904 3255.2404 M 4215.1604 3255.2404 L 4214.7504 3255.4504 L 4214.3504 3255.8504 L 4214.1404 3256.4704 L 4214.1404 3256.8804 L 4214.3504 3257.4904 L 4214.7504 3257.9004 L 4215.1604 3258.1004 L 4215.7804 3258.1004 L 4216.1904 3257.9004 L 4216.6004 3257.4904 L 4216.8004 3256.8804 L 4216.8004 3256.4704 L 4216.6004 3255.8504 L 4216.1904 3255.4504 L 4215.7804 3255.2404 L 4215.1604 3255.2404 M 4218.1504 3255.2404 L 4218.1504 3258.1004 M 4218.1504 3256.4704 L 4218.3504 3255.8504 L 4218.7604 3255.4504 L 4219.1704 3255.2404 L 4219.7904 3255.2404 M 4221.3404 3254.8304 L 4221.3404 3254.6304 L 4221.5504 3254.2204 L 4221.7504 3254.0104 L 4222.1604 3253.8104 L 4222.9804 3253.8104 L 4223.3904 3254.0104 L 4223.5904 3254.2204 L 4223.8004 3254.6304 L 4223.8004 3255.0404 L 4223.5904 3255.4504 L 4223.1804 3256.0604 L 4221.1404 3258.1004 L 4224.0004 3258.1004" fill="none"  stroke-width="0.6" c_note="note_name" /></g><g c_partid="part_pcbtext" c_etype="" c_origin="4224,3248" c_rotation="180" c_mirror="0" id="gge129" locked="0" layerid="3" c_shapetype="group" ><path c_fontsize="4.5" c_fontfamily="" c_text="T1" d="M 4222.57 3252.54 L 4222.57 3248.25 M 4224 3252.54 L 4221.14 3252.54 M 4219.79 3251.72 L 4219.38 3251.93 L 4218.76 3252.54 L 4218.76 3248.25" fill="none"  stroke-width="0.6" c_note="note_pre" /></g><g c_partid="part_pcbtext" c_etype="" c_origin="4117,3173.499" c_rotation="0" c_mirror="0" id="gge171" locked="0" layerid="3" c_shapetype="group" display="none"><path c_fontsize="4.5" c_fontfamily="" c_text="1k" d="M 4117.0004 3169.7792 L 4117.4104 3169.5692 L 4118.0204 3168.9592 L 4118.0204 3173.2492 M 4119.3704 3168.9592 L 4119.3704 3173.2492 M 4121.4204 3170.3892 L 4119.3704 3172.4392 M 4120.1904 3171.6192 L 4121.6204 3173.2492" fill="none"  stroke-width="0.6" c_note="note_name" /></g><g c_partid="part_pcbtext" c_etype="" c_origin="4117,3180.499" c_rotation="0" c_mirror="0" id="gge173" locked="0" layerid="3" c_shapetype="group" ><path c_fontsize="4.5" c_fontfamily="" c_text="R1" d="M 4117 3175.959 L 4117 3180.249 M 4117 3175.959 L 4118.84 3175.959 L 4119.45 3176.159 L 4119.66 3176.369 L 4119.86 3176.779 L 4119.86 3177.189 L 4119.66 3177.599 L 4119.45 3177.799 L 4118.84 3177.999 L 4117 3177.999 M 4118.43 3177.999 L 4119.86 3180.249 M 4121.21 3176.779 L 4121.62 3176.569 L 4122.24 3175.959 L 4122.24 3180.249" fill="none"  stroke-width="0.6" c_note="note_pre" /></g><g c_partid="part_pcbtext" c_etype="" c_origin="4116.5,3192.999" c_rotation="0" c_mirror="0" id="gge197" locked="0" layerid="3" c_shapetype="group" display="none"><path c_fontsize="4.5" c_fontfamily="" c_text="1k" d="M 4116.5004 3189.2792 L 4116.9104 3189.0692 L 4117.5204 3188.4592 L 4117.5204 3192.7492 M 4118.8704 3188.4592 L 4118.8704 3192.7492 M 4120.9204 3189.8892 L 4118.8704 3191.9392 M 4119.6904 3191.1192 L 4121.1204 3192.7492" fill="none"  stroke-width="0.6" c_note="note_name" /></g><g c_partid="part_pcbtext" c_etype="" c_origin="4116.5,3199.999" c_rotation="0" c_mirror="0" id="gge199" locked="0" layerid="3" c_shapetype="group" ><path c_fontsize="4.5" c_fontfamily="" c_text="R2" d="M 4116.5 3195.459 L 4116.5 3199.749 M 4116.5 3195.459 L 4118.34 3195.459 L 4118.95 3195.659 L 4119.16 3195.869 L 4119.36 3196.279 L 4119.36 3196.689 L 4119.16 3197.099 L 4118.95 3197.299 L 4118.34 3197.499 L 4116.5 3197.499 M 4117.93 3197.499 L 4119.36 3199.749 M 4120.92 3196.479 L 4120.92 3196.279 L 4121.12 3195.869 L 4121.33 3195.659 L 4121.74 3195.459 L 4122.55 3195.459 L 4122.96 3195.659 L 4123.17 3195.869 L 4123.37 3196.279 L 4123.37 3196.689 L 4123.17 3197.099 L 4122.76 3197.709 L 4120.71 3199.749 L 4123.58 3199.749" fill="none"  stroke-width="0.6" c_note="note_pre" /></g><g c_partid="part_pcbtext" c_etype="" c_origin="4117,3208" c_rotation="0" c_mirror="0" id="gge223" locked="0" layerid="3" c_shapetype="group" display="none"><path c_fontsize="4.5" c_fontfamily="" c_text="1k" d="M 4117.0004 3204.2802 L 4117.4104 3204.0702 L 4118.0204 3203.4602 L 4118.0204 3207.7502 M 4119.3704 3203.4602 L 4119.3704 3207.7502 M 4121.4204 3204.8902 L 4119.3704 3206.9402 M 4120.1904 3206.1202 L 4121.6204 3207.7502" fill="none"  stroke-width="0.6" c_note="note_name" /></g><g c_partid="part_pcbtext" c_etype="" c_origin="4117,3215" c_rotation="0" c_mirror="0" id="gge225" locked="0" layerid="3" c_shapetype="group" ><path c_fontsize="4.5" c_fontfamily="" c_text="R3" d="M 4117 3210.46 L 4117 3214.75 M 4117 3210.46 L 4118.84 3210.46 L 4119.45 3210.66 L 4119.66 3210.87 L 4119.86 3211.28 L 4119.86 3211.69 L 4119.66 3212.1 L 4119.45 3212.3 L 4118.84 3212.5 L 4117 3212.5 M 4118.43 3212.5 L 4119.86 3214.75 M 4121.62 3210.46 L 4123.87 3210.46 L 4122.65 3212.1 L 4123.26 3212.1 L 4123.67 3212.3 L 4123.87 3212.5 L 4124.08 3213.12 L 4124.08 3213.53 L 4123.87 3214.14 L 4123.46 3214.55 L 4122.85 3214.75 L 4122.24 3214.75 L 4121.62 3214.55 L 4121.42 3214.35 L 4121.21 3213.94" fill="none"  stroke-width="0.6" c_note="note_pre" /></g><g c_partid="part_pcbtext" c_etype="" c_origin="4116.5,3230.5" c_rotation="0" c_mirror="0" id="gge249" locked="0" layerid="3" c_shapetype="group" display="none"><path c_fontsize="4.5" c_fontfamily="" c_text="1k" d="M 4116.5004 3226.7802 L 4116.9104 3226.5702 L 4117.5204 3225.9602 L 4117.5204 3230.2502 M 4118.8704 3225.9602 L 4118.8704 3230.2502 M 4120.9204 3227.3902 L 4118.8704 3229.4402 M 4119.6904 3228.6202 L 4121.1204 3230.2502" fill="none"  stroke-width="0.6" c_note="note_name" /></g><g c_partid="part_pcbtext" c_etype="" c_origin="4116.5,3237.5" c_rotation="0" c_mirror="0" id="gge251" locked="0" layerid="3" c_shapetype="group" ><path c_fontsize="4.5" c_fontfamily="" c_text="R4" d="M 4116.5 3232.96 L 4116.5 3237.25 M 4116.5 3232.96 L 4118.34 3232.96 L 4118.95 3233.16 L 4119.16 3233.37 L 4119.36 3233.78 L 4119.36 3234.19 L 4119.16 3234.6 L 4118.95 3234.8 L 4118.34 3235 L 4116.5 3235 M 4117.93 3235 L 4119.36 3237.25 M 4122.76 3232.96 L 4120.71 3235.82 L 4123.78 3235.82 M 4122.76 3232.96 L 4122.76 3237.25" fill="none"  stroke-width="0.6" c_note="note_pre" /></g><path d="M 4166.7 3237.4 A 0.7874 0.7874 0 1 0 4166.7 3237.39" locked="0"  fill="none" stroke-width="1.5748" c_helper_type="arc2" net="" layerid="3" id="gge9" /><path d="M 4167.7 3187.9 A 0.7874 0.7874 0 1 0 4167.7 3187.89" locked="0"  fill="none" stroke-width="1.5748" c_helper_type="arc2" net="" layerid="3" id="gge35" /><polyline points="4020.5 3152.5 4020.5 3152.5 4020.5 3135.5 4337 3135.5 4337 3271.5 4020.5 3271.5 4020.5 3153 4020.5 3153.5 4020.5 3153" stroke-width="1"  stroke-linecap="round" fill="none" layerid="10" net="" id="gge392" locked="0" /></svg>