<svg xmlns="http://www.w3.org/2000/svg" xmlns:xlink="http://www.w3.org/1999/xlink" width="78.359mm" height="43.561mm" viewBox="4040 3118.5 308.5 171.5"><title></title><style type="text/css">
*[layerid="1"] {stroke:#000000;fill:#000000;}
*[layerid="2"] {stroke:#000000;fill:#000000;}
*[layerid="3"] {stroke:#000000;fill:#000000;}
*[layerid="4"] {stroke:#000000;fill:#000000;}
*[layerid="5"] {stroke:#000000;fill:#000000;}
*[layerid="6"] {stroke:#000000;fill:#000000;}
*[layerid="7"] {stroke:#000000;fill:#000000;}
*[layerid="8"] {stroke:#000000;fill:#000000;}
*[layerid="9"] {stroke:#000000;fill:#000000;}
*[layerid="10"] {stroke:#000000;fill:#000000;}
*[layerid="11"] {stroke:#000000;fill:#000000;}
*[layerid="12"] {stroke:#000000;fill:#000000;}
*[layerid="13"] {stroke:#000000;fill:#000000;}
*[layerid="14"] {stroke:#000000;fill:#000000;}
*[layerid="15"] {stroke:#000000;fill:#000000;}
*[layerid="19"] {stroke:#000000;fill:#000000;}
*[layerid="21"] {stroke:#000000;fill:#000000;}
*[layerid="22"] {stroke:#000000;fill:#000000;}
*[layerid="23"] {stroke:#000000;fill:#000000;}
*[layerid="24"] {stroke:#000000;fill:#000000;}
*[layerid="25"] {stroke:#000000;fill:#000000;}
*[layerid="26"] {stroke:#000000;fill:#000000;}
*[layerid="27"] {stroke:#000000;fill:#000000;}
*[layerid="28"] {stroke:#000000;fill:#000000;}
*[layerid="29"] {stroke:#000000;fill:#000000;}
*[layerid="30"] {stroke:#000000;fill:#000000;}
*[layerid="31"] {stroke:#000000;fill:#000000;}
*[layerid="32"] {stroke:#000000;fill:#000000;}
*[layerid="33"] {stroke:#000000;fill:#000000;}
*[layerid="34"] {stroke:#000000;fill:#000000;}
*[layerid="35"] {stroke:#000000;fill:#000000;}
*[layerid="36"] {stroke:#000000;fill:#000000;}
*[layerid="37"] {stroke:#000000;fill:#000000;}
*[layerid="38"] {stroke:#000000;fill:#000000;}
*[layerid="39"] {stroke:#000000;fill:#000000;}
*[layerid="40"] {stroke:#000000;fill:#000000;}
*[layerid="41"] {stroke:#000000;fill:#000000;}
*[layerid="42"] {stroke:#000000;fill:#000000;}
*[layerid="43"] {stroke:#000000;fill:#000000;}
*[layerid="44"] {stroke:#000000;fill:#000000;}
*[layerid="45"] {stroke:#000000;fill:#000000;}
*[layerid="46"] {stroke:#000000;fill:#000000;}
*[layerid="47"] {stroke:#000000;fill:#000000;}
*[layerid="48"] {stroke:#000000;fill:#000000;}
*[layerid="49"] {stroke:#000000;fill:#000000;}
*[layerid="50"] {stroke:#000000;fill:#000000;}
*[layerid="51"] {stroke:#000000;fill:#000000;}
*[layerid="52"] {stroke:#000000;fill:#000000;}
*[layerid="99"] {stroke:#000000;fill:#000000;}
*[layerid="100"] {stroke:#000000;fill:#000000;}
*[layerid="Hole"] {stroke:#000000;fill:#000000;}
*[layerid="DRCError"] {stroke:#000000;fill:#000000;}
*[fill="none"] {fill: none;}
*[stroke="none"] {stroke: none;}
path, polyline, polygon, line {stroke-linecap:round;}
g[c_partid="part_pad"][layerid="1"] ellipse:not([c_etype="pad_outer"]) {fill:#000000;}
g[c_partid="part_pad"][layerid="1"] polygon:not([c_etype="pad_outer"]) {fill:#000000;}
g[c_partid="part_pad"][layerid="1"] polyline:not([c_etype="pad_outer"]) {stroke:#000000;}
g[c_partid="part_pad"][layerid="2"] ellipse:not([c_etype="pad_outer"]) {fill:#000000;}
g[c_partid="part_pad"][layerid="2"] polygon:not([c_etype="pad_outer"]) {fill:#000000;}
g[c_partid="part_pad"][layerid="2"] polyline:not([c_etype="pad_outer"]) {stroke:#000000;}
g[c_partid="part_pad"][layerid="11"] ellipse:not([c_etype="pad_outer"]) {fill:#000000;}
g[c_partid="part_pad"][layerid="11"] polygon:not([c_etype="pad_outer"]) {fill:#000000;}
g[c_partid="part_pad"][layerid="11"] polyline:not([c_etype="pad_outer"]) {stroke:#000000;}
g[c_partid="part_pad"][layerid="11"] circle {fill:#FFFFFF;}
g[c_partid="part_pad"][layerid="11"] > polyline:nth-of-type(2) {stroke:#FFFFFF;}
g[c_partid="part_pad"][layerid="11"][c_shape="ELLIPSE"]  polyline:nth-last-of-type(1) {stroke:#FFFFFF;}
g[c_partid="part_pad"][layerid="11"][c_shape="RECT"]  polyline:nth-last-of-type(1) {stroke:#FFFFFF;}
g[c_partid="part_pad"][layerid="11"][c_shape="POLYGON"]  polyline:nth-last-of-type(1) {stroke:#FFFFFF;}
g[c_partid="part_via"] > * + circle, #gCurParts g[c_partid="part_via"] > * + circle {fill:#FFFFFF;}
g[c_partid="part_pad"] > polygon[c_etype="pad_outer"], #gCurParts g[c_partid="part_pad"] > polygon[c_etype="pad_outer"] {stroke-linejoin: miter;stroke-miterlimit: 100;}
g[c_partid="part_hole"] > circle {fill: #FFFFFF;}path, polyline, polygon {stroke-linejoin:round;}
rect, circle, ellipse, polyline, line, polygon, path {shape-rendering:crispEdges;}
</style>
<rect x="4040" y="3118.5" width="308.5" height="171.5" fill="#FFFFFF" stroke="none"/><polyline points="4207.39 3214.5 4207.39 3220.11 4184.5 3236 4171 3227 4171 3212 4188 3195" stroke-width="3"  stroke-linecap="round" fill="none" layerid="1" net="D2_1" id="gge444" locked="0" /><polyline points="4206.3901 3191 4206.3901 3202.6099 4188 3221" stroke-width="3"  stroke-linecap="round" fill="none" layerid="1" net="D5_1" id="gge445" locked="0" /><polyline points="4234.1 3134 4235.78 3133.5 4255.5 3133.5 4266 3144" stroke-width="3"  stroke-linecap="round" fill="none" layerid="1" net="R1_2" id="gge437" locked="0" /><polyline points="4150.5 3155.5 4172.5 3133.5 4237.46 3133.5 4237.46 3134" stroke-width="3"  stroke-linecap="round" fill="none" layerid="1" net="R1_2" id="gge438" locked="0" /><polyline points="4242.61 3191 4230.5 3178.89 4230.5 3134 4237.46 3134 4237.5 3134" stroke-width="3"  stroke-linecap="round" fill="none" layerid="1" net="R1_2" id="gge439" locked="0" /><polyline points="4311.5 3216.36 4326.5 3196.5 4314.5 3181.5 4258 3181.5 4258 3186.72" stroke-width="3"  stroke-linecap="round" fill="none" layerid="1" net="LED1_2" id="gge419" locked="0" /><polyline points="4311.5 3196.64 4306.36 3191.5 4268 3191.5" stroke-width="3"  stroke-linecap="round" fill="none" layerid="1" net="C3_2" id="gge431" locked="0" /><polyline points="4268 3191.5 4256.76 3202.74 4256.76 3209.57 4244.5 3221.83 4232.17 3221.83 4213 3247.5 4209 3254" stroke-width="3"  stroke-linecap="round" fill="none" layerid="1" net="C3_2" id="gge430" locked="0" /><polyline points="4140.5 3155.5 4140.5 3225.5 4171.5 3256.5 4209 3256.5 4209 3254" stroke-width="3"  stroke-linecap="round" fill="none" layerid="1" net="C3_2" id="gge432" locked="0" /><polyline points="4130.5 3155.5 4130.5 3252.5 4146 3268 4225 3268 4239 3254" stroke-width="3"  stroke-linecap="round" fill="none" layerid="1" net="RP1_3" id="gge428" locked="0" /><polyline points="4237.5 3235.5 4263.5 3209.5 4263.5 3208.5" stroke-width="3"  stroke-linecap="round" fill="none" layerid="1" net="LED1_1" id="gge447" locked="0" /><polyline points="4206.89 3169 4206.39 3169.5 4206.39 3191" stroke-width="3"  stroke-linecap="round" fill="none" layerid="1" net="D5_1" id="gge446" locked="0" /><polyline points="4206.8901 3142.5 4188 3161.3901 4188 3195" stroke-width="3"  stroke-linecap="round" fill="none" layerid="1" net="D2_1" id="gge443" locked="0" /><polyline points="4243.61 3214.5 4228.5 3214.5 4207.5 3235.5" stroke-width="3"  stroke-linecap="round" fill="none" layerid="1" net="R1_2" id="gge442" locked="0" /><polyline points="4266 3144 4266 3165.5 4268.5 3168" stroke-width="3"  stroke-linecap="round" fill="none" layerid="1" net="R1_2" id="gge441" locked="0" /><polyline points="4242.61 3191 4242.61 3213.5 4243.61 3214.5" stroke-width="3"  stroke-linecap="round" fill="none" layerid="1" net="R1_2" id="gge440" locked="0" /><polyline points="4108 3195 4091.6399 3195 4075 3178.3601" stroke-width="3"  stroke-linecap="round" fill="none" layerid="1" net="T1_1" id="gge436" locked="0" /><polyline points="4075 3178.36 4075 3158.64" stroke-width="3"  stroke-linecap="round" fill="none" layerid="1" net="T1_1" id="gge435" locked="0" /><polyline points="4107 3245 4079.1399 3245 4075 3240.8601" stroke-width="3"  stroke-linecap="round" fill="none" layerid="1" net="T1_2" id="gge434" locked="0" /><polyline points="4075 3221.14 4075 3240.86" stroke-width="3"  stroke-linecap="round" fill="none" layerid="1" net="T1_2" id="gge433" locked="0" /><polyline points="4239 3254 4245 3248 4256.96 3248" stroke-width="3"  stroke-linecap="round" fill="none" layerid="1" net="RP1_3" id="gge429" locked="0" /><polyline points="4243.11 3142.5 4254.5 3142.5 4256 3144" stroke-width="3"  stroke-linecap="round" fill="none" layerid="1" net="LED1_2" id="gge427" locked="0" /><polyline points="4256 3144 4258.5 3146.5 4258.5 3168" stroke-width="3"  stroke-linecap="round" fill="none" layerid="1" net="LED1_2" id="gge426" locked="0" /><polyline points="4243.11 3169 4257.5 3169" stroke-width="3"  stroke-linecap="round" fill="none" layerid="1" net="LED1_2" id="gge425" locked="0" /><polyline points="4257.5 3169 4258.5 3168" stroke-width="3"  stroke-linecap="round" fill="none" layerid="1" net="LED1_2" id="gge424" locked="0" /><polyline points="4277.04 3218.5 4277.04 3248" stroke-width="3"  stroke-linecap="round" fill="none" layerid="1" net="LED1_2" id="gge423" locked="0" /><polyline points="4263.5 3218.5 4277.04 3218.5" stroke-width="3"  stroke-linecap="round" fill="none" layerid="1" net="LED1_2" id="gge422" locked="0" /><polyline points="4277.04 3218.5 4309.36 3218.5 4311.5 3216.36" stroke-width="3"  stroke-linecap="round" fill="none" layerid="1" net="LED1_2" id="gge421" locked="0" /><polyline points="4258 3186.72 4258 3191.5" stroke-width="3"  stroke-linecap="round" fill="none" layerid="1" net="LED1_2" id="gge420" locked="0" /><polyline points="4258 3186.72 4257.5 3186.22 4257.5 3169" stroke-width="3"  stroke-linecap="round" fill="none" layerid="1" net="LED1_2" id="gge418" locked="0" /><g c_partid="part_pad" c_etype="pinpart" c_origin="4267.04,3248" layerid="11" number="2" net="RP1_2" plated ="Y"  id="gge14" locked="0" c_rotation="180" c_width="6" c_height="6" title="RP1_2" c_shape="ELLIPSE" pasteexpansion="0" solderexpansion="0.4"><ellipse c_etype="pad_shell" cx="4267.04" cy="3248" rx="3" ry="3" layerid="11" stroke-width="0"/><circle c_etype="pad_hole" cx="4267.0396" cy="3247.9997" r="1.5" layerid="11" stroke-width="0"/></g><g c_partid="part_pad" c_etype="pinpart" c_origin="4277.04,3248" layerid="11" number="1" net="LED1_2" plated ="Y"  id="gge19" locked="0" c_rotation="180" c_width="6" c_height="6" title="LED1_2" c_shape="ELLIPSE" pasteexpansion="0" solderexpansion="0.4"><ellipse c_etype="pad_shell" cx="4277.04" cy="3248" rx="3" ry="3" layerid="11" stroke-width="0"/><circle c_etype="pad_hole" cx="4277.0396" cy="3247.9997" r="1.5" layerid="11" stroke-width="0"/></g><g c_partid="part_pad" c_etype="pinpart" c_origin="4256.961,3248" layerid="11" number="3" net="RP1_3" plated ="Y"  id="gge24" locked="0" c_rotation="180" c_width="6" c_height="6" title="RP1_3" c_shape="ELLIPSE" pasteexpansion="0" solderexpansion="0.4"><ellipse c_etype="pad_shell" cx="4256.961" cy="3248" rx="3" ry="3" layerid="11" stroke-width="0"/><circle c_etype="pad_hole" cx="4256.9606" cy="3247.9997" r="1.5" layerid="11" stroke-width="0"/></g><g c_partid="part_pad" c_etype="pinpart" c_origin="4311.5,3196.64" layerid="11" number="1" net="C3_2" plated ="Y"  id="gge43" locked="0" c_rotation="270" c_width="7.874" c_height="7.874" title="C3_2" c_shape="ELLIPSE" pasteexpansion="0" solderexpansion="0.4"><ellipse c_etype="pad_shell" cx="4311.5" cy="3196.64" rx="3.937" ry="3.937" layerid="11" stroke-width="0"/><circle c_etype="pad_hole" cx="4311.5001" cy="3196.6397" r="2.5591" layerid="11" stroke-width="0"/></g><g c_partid="part_pad" c_etype="pinpart" c_origin="4311.5,3216.36" layerid="11" number="2" net="LED1_2" plated ="Y"  id="gge48" locked="0" c_rotation="270" c_width="7.874" c_height="7.874" title="LED1_2" c_shape="ELLIPSE" pasteexpansion="0" solderexpansion="0.4"><ellipse c_etype="pad_shell" cx="4311.5" cy="3216.36" rx="3.937" ry="3.937" layerid="11" stroke-width="0"/><circle c_etype="pad_hole" cx="4311.5001" cy="3216.3597" r="2.5591" layerid="11" stroke-width="0"/></g><g c_partid="part_pad" c_etype="pinpart" c_origin="4075,3240.86" layerid="11" number="1" net="T1_2" plated ="Y"  id="gge67" locked="0" c_rotation="90" c_width="7.874" c_height="7.874" title="T1_2" c_shape="ELLIPSE" pasteexpansion="0" solderexpansion="0.4"><ellipse c_etype="pad_shell" cx="4075" cy="3240.86" rx="3.937" ry="3.937" layerid="11" stroke-width="0"/><circle c_etype="pad_hole" cx="4075" cy="3240.86" r="2.5591" layerid="11" stroke-width="0"/></g><g c_partid="part_pad" c_etype="pinpart" c_origin="4075,3221.14" layerid="11" number="2" net="T1_2" plated ="Y"  id="gge72" locked="0" c_rotation="90" c_width="7.874" c_height="7.874" title="T1_2" c_shape="ELLIPSE" pasteexpansion="0" solderexpansion="0.4"><ellipse c_etype="pad_shell" cx="4075" cy="3221.14" rx="3.937" ry="3.937" layerid="11" stroke-width="0"/><circle c_etype="pad_hole" cx="4075" cy="3221.14" r="2.5591" layerid="11" stroke-width="0"/></g><g c_partid="part_pad" c_etype="pinpart" c_origin="4075,3178.36" layerid="11" number="1" net="T1_1" plated ="Y"  id="gge91" locked="0" c_rotation="90" c_width="7.874" c_height="7.874" title="T1_1" c_shape="ELLIPSE" pasteexpansion="0" solderexpansion="0.4"><ellipse c_etype="pad_shell" cx="4075" cy="3178.36" rx="3.937" ry="3.937" layerid="11" stroke-width="0"/><circle c_etype="pad_hole" cx="4075" cy="3178.36" r="2.5591" layerid="11" stroke-width="0"/></g><g c_partid="part_pad" c_etype="pinpart" c_origin="4075,3158.64" layerid="11" number="2" net="T1_1" plated ="Y"  id="gge96" locked="0" c_rotation="90" c_width="7.874" c_height="7.874" title="T1_1" c_shape="ELLIPSE" pasteexpansion="0" solderexpansion="0.4"><ellipse c_etype="pad_shell" cx="4075" cy="3158.64" rx="3.937" ry="3.937" layerid="11" stroke-width="0"/><circle c_etype="pad_hole" cx="4075" cy="3158.64" r="2.5591" layerid="11" stroke-width="0"/></g><g c_partid="part_pad" c_etype="pinpart" c_origin="4258.5,3168" layerid="11" number="1" net="LED1_2" plated ="Y"  id="gge110" locked="0" c_rotation="0" c_width="4.7" c_height="4.7" title="LED1_2" c_shape="ELLIPSE" pasteexpansion="0" solderexpansion="0.4"><ellipse c_etype="pad_shell" cx="4258.5" cy="3168" rx="2.35" ry="2.35" layerid="11" stroke-width="0"/><circle c_etype="pad_hole" cx="4258.5001" cy="3167.9997" r="1.4" layerid="11" stroke-width="0"/></g><g c_partid="part_pad" c_etype="pinpart" c_origin="4268.5,3168" layerid="11" number="2" net="R1_2" plated ="Y"  id="gge115" locked="0" c_rotation="0" c_width="4.7" c_height="4.7" title="R1_2" c_shape="ELLIPSE" pasteexpansion="0" solderexpansion="0.4"><ellipse c_etype="pad_shell" cx="4268.5" cy="3168" rx="2.35" ry="2.35" layerid="11" stroke-width="0"/><circle c_etype="pad_hole" cx="4268.5001" cy="3167.9997" r="1.4" layerid="11" stroke-width="0"/></g><g c_partid="part_pad" c_etype="pinpart" c_origin="4256,3144" layerid="11" number="1" net="LED1_2" plated ="Y"  id="gge129" locked="0" c_rotation="0" c_width="4.7" c_height="4.7" title="LED1_2" c_shape="ELLIPSE" pasteexpansion="0" solderexpansion="0.4"><ellipse c_etype="pad_shell" cx="4256" cy="3144" rx="2.35" ry="2.35" layerid="11" stroke-width="0"/><circle c_etype="pad_hole" cx="4256.0001" cy="3143.9997" r="1.4" layerid="11" stroke-width="0"/></g><g c_partid="part_pad" c_etype="pinpart" c_origin="4266,3144" layerid="11" number="2" net="R1_2" plated ="Y"  id="gge134" locked="0" c_rotation="0" c_width="4.7" c_height="4.7" title="R1_2" c_shape="ELLIPSE" pasteexpansion="0" solderexpansion="0.4"><ellipse c_etype="pad_shell" cx="4266" cy="3144" rx="2.35" ry="2.35" layerid="11" stroke-width="0"/><circle c_etype="pad_hole" cx="4266.0001" cy="3143.9997" r="1.4" layerid="11" stroke-width="0"/></g><g c_partid="part_pad" c_etype="pinpart" c_origin="4258,3191.5" layerid="11" number="1" net="LED1_2" plated ="Y"  id="gge148" locked="0" c_rotation="0" c_width="4.7" c_height="4.7" title="LED1_2" c_shape="ELLIPSE" pasteexpansion="0" solderexpansion="0.4"><ellipse c_etype="pad_shell" cx="4258" cy="3191.5" rx="2.35" ry="2.35" layerid="11" stroke-width="0"/><circle c_etype="pad_hole" cx="4258.0001" cy="3191.4997" r="1.4" layerid="11" stroke-width="0"/></g><g c_partid="part_pad" c_etype="pinpart" c_origin="4268,3191.5" layerid="11" number="2" net="C3_2" plated ="Y"  id="gge153" locked="0" c_rotation="0" c_width="4.7" c_height="4.7" title="C3_2" c_shape="ELLIPSE" pasteexpansion="0" solderexpansion="0.4"><ellipse c_etype="pad_shell" cx="4268" cy="3191.5" rx="2.35" ry="2.35" layerid="11" stroke-width="0"/><circle c_etype="pad_hole" cx="4268.0001" cy="3191.4997" r="1.4" layerid="11" stroke-width="0"/></g><g c_partid="part_pad" c_etype="pinpart" c_origin="4108,3195" layerid="11" number="1" net="T1_1" plated ="Y"  id="gge177" locked="0" c_rotation="180" c_width="11.811" c_height="11.811" title="T1_1" c_shape="ELLIPSE" pasteexpansion="0" solderexpansion="0.4"><ellipse c_etype="pad_shell" cx="4108" cy="3195" rx="5.9055" ry="5.9055" layerid="11" stroke-width="0"/><circle c_etype="pad_hole" cx="4108" cy="3195" r="3.1496" layerid="11" stroke-width="0"/></g><g c_partid="part_pad" c_etype="pinpart" c_origin="4107,3245" layerid="11" number="2" net="T1_2" plated ="Y"  id="gge182" locked="0" c_rotation="180" c_width="11.811" c_height="11.811" title="T1_2" c_shape="ELLIPSE" pasteexpansion="0" solderexpansion="0.4"><ellipse c_etype="pad_shell" cx="4107" cy="3245" rx="5.9055" ry="5.9055" layerid="11" stroke-width="0"/><circle c_etype="pad_hole" cx="4107" cy="3245" r="3.1496" layerid="11" stroke-width="0"/></g><g c_partid="part_pad" c_etype="pinpart" c_origin="4188,3245" layerid="11" number="4" net="T1_4" plated ="Y"  id="gge187" locked="0" c_rotation="180" c_width="11.811" c_height="11.811" title="T1_4" c_shape="ELLIPSE" pasteexpansion="0" solderexpansion="0.4"><ellipse c_etype="pad_shell" cx="4188" cy="3245" rx="5.9055" ry="5.9055" layerid="11" stroke-width="0"/><circle c_etype="pad_hole" cx="4188" cy="3245" r="3.1496" layerid="11" stroke-width="0"/></g><g c_partid="part_pad" c_etype="pinpart" c_origin="4188,3195" layerid="11" number="3" net="D2_1" plated ="Y"  id="gge192" locked="0" c_rotation="180" c_width="11.811" c_height="11.811" title="D2_1" c_shape="ELLIPSE" pasteexpansion="0" solderexpansion="0.4"><ellipse c_etype="pad_shell" cx="4188" cy="3195" rx="5.9055" ry="5.9055" layerid="11" stroke-width="0"/><circle c_etype="pad_hole" cx="4188" cy="3195" r="3.1496" layerid="11" stroke-width="0"/></g><g c_partid="part_pad" c_etype="pinpart" c_origin="4188,3221" layerid="11" number="5" net="D5_1" plated ="Y"  id="gge197" locked="0" c_rotation="180" c_width="11.811" c_height="11.811" title="D5_1" c_shape="ELLIPSE" pasteexpansion="0" solderexpansion="0.4"><ellipse c_etype="pad_shell" cx="4188" cy="3221" rx="5.9055" ry="5.9055" layerid="11" stroke-width="0"/><circle c_etype="pad_hole" cx="4188" cy="3221" r="3.1496" layerid="11" stroke-width="0"/></g><g c_partid="part_pad" c_etype="pinpart" c_origin="4130.5,3155.5" layerid="11" number="1" net="RP1_3" plated ="Y"  id="gge212" locked="0" c_rotation="0" c_width="6.35" c_height="6.35" title="RP1_3" c_shape="RECT" pasteexpansion="0" solderexpansion="0.4"><polygon  c_etype="pad_shell" points="4127.3251 3152.3247 4133.6751 3152.3247 4133.6751 3158.6747 4127.3251 3158.6747" layerid="11" stroke-width="0" /><circle c_etype="pad_hole" cx="4130.5001" cy="3155.4997" r="2.1" layerid="11" stroke-width="0"/></g><g c_partid="part_pad" c_etype="pinpart" c_origin="4140.5,3155.5" layerid="11" number="2" net="C3_2" plated ="Y"  id="gge217" locked="0" c_rotation="0" c_width="6.35" c_height="6.35" title="C3_2" c_shape="ELLIPSE" pasteexpansion="0" solderexpansion="0.4"><ellipse c_etype="pad_shell" cx="4140.5" cy="3155.5" rx="3.175" ry="3.175" layerid="11" stroke-width="0"/><circle c_etype="pad_hole" cx="4140.5001" cy="3155.4997" r="2.1" layerid="11" stroke-width="0"/></g><g c_partid="part_pad" c_etype="pinpart" c_origin="4150.5,3155.5" layerid="11" number="3" net="R1_2" plated ="Y"  id="gge222" locked="0" c_rotation="0" c_width="6.35" c_height="6.35" title="R1_2" c_shape="ELLIPSE" pasteexpansion="0" solderexpansion="0.4"><ellipse c_etype="pad_shell" cx="4150.5" cy="3155.5" rx="3.175" ry="3.175" layerid="11" stroke-width="0"/><circle c_etype="pad_hole" cx="4150.5001" cy="3155.4997" r="2.1" layerid="11" stroke-width="0"/></g><g c_partid="part_pad" c_etype="pinpart" c_origin="4263.5,3208.5" layerid="11" number="1" net="LED1_1" plated ="Y"  id="gge237" locked="0" c_rotation="90" c_width="6.5" c_height="6.5" title="LED1_1" c_shape="ELLIPSE" pasteexpansion="0" solderexpansion="0.4"><ellipse c_etype="pad_shell" cx="4263.5" cy="3208.5" rx="3.25" ry="3.25" layerid="11" stroke-width="0"/><circle c_etype="pad_hole" cx="4263.5001" cy="3208.4997" r="1.7717" layerid="11" stroke-width="0"/></g><g c_partid="part_pad" c_etype="pinpart" c_origin="4263.5,3218.5" layerid="11" number="2" net="LED1_2" plated ="Y"  id="gge242" locked="0" c_rotation="90" c_width="6.5" c_height="6.5" title="LED1_2" c_shape="ELLIPSE" pasteexpansion="0" solderexpansion="0.4"><ellipse c_etype="pad_shell" cx="4263.5" cy="3218.5" rx="3.25" ry="3.25" layerid="11" stroke-width="0"/><circle c_etype="pad_hole" cx="4263.5001" cy="3218.4997" r="1.7717" layerid="11" stroke-width="0"/></g><g c_partid="part_pad" c_etype="pinpart" c_origin="4237.5,3235.5" layerid="11" number="1" net="LED1_1" plated ="Y"  id="gge263" locked="0" c_rotation="180" c_width="7.4" c_height="7.4" title="LED1_1" c_shape="ELLIPSE" pasteexpansion="0" solderexpansion="0.4"><ellipse c_etype="pad_shell" cx="4237.5" cy="3235.5" rx="3.7" ry="3.7" layerid="11" stroke-width="0"/><circle c_etype="pad_hole" cx="4237.5001" cy="3235.4997" r="1.77" layerid="11" stroke-width="0"/></g><g c_partid="part_pad" c_etype="pinpart" c_origin="4207.5,3235.5" layerid="11" number="2" net="R1_2" plated ="Y"  id="gge268" locked="0" c_rotation="180" c_width="7.4" c_height="7.4" title="R1_2" c_shape="ELLIPSE" pasteexpansion="0" solderexpansion="0.4"><ellipse c_etype="pad_shell" cx="4207.5" cy="3235.5" rx="3.7" ry="3.7" layerid="11" stroke-width="0"/><circle c_etype="pad_hole" cx="4207.5001" cy="3235.4997" r="1.77" layerid="11" stroke-width="0"/></g><g c_partid="part_pad" c_etype="pinpart" c_origin="4239,3254" layerid="11" number="1" net="RP1_3" plated ="Y"  id="gge289" locked="0" c_rotation="180" c_width="7.4" c_height="7.4" title="RP1_3" c_shape="ELLIPSE" pasteexpansion="0" solderexpansion="0.4"><ellipse c_etype="pad_shell" cx="4239" cy="3254" rx="3.7" ry="3.7" layerid="11" stroke-width="0"/><circle c_etype="pad_hole" cx="4239.0001" cy="3253.9997" r="1.77" layerid="11" stroke-width="0"/></g><g c_partid="part_pad" c_etype="pinpart" c_origin="4209,3254" layerid="11" number="2" net="C3_2" plated ="Y"  id="gge294" locked="0" c_rotation="180" c_width="7.4" c_height="7.4" title="C3_2" c_shape="ELLIPSE" pasteexpansion="0" solderexpansion="0.4"><ellipse c_etype="pad_shell" cx="4209" cy="3254" rx="3.7" ry="3.7" layerid="11" stroke-width="0"/><circle c_etype="pad_hole" cx="4209.0001" cy="3253.9997" r="1.77" layerid="11" stroke-width="0"/></g><g c_partid="part_pad" c_etype="pinpart" c_origin="4206.89,3142.5" layerid="11" number="1" net="D2_1" plated ="Y"  id="gge312" locked="0" c_rotation="0" c_width="7.0866" c_height="7.0866" title="D2_1" c_shape="ELLIPSE" pasteexpansion="0" solderexpansion="0.4"><ellipse c_etype="pad_shell" cx="4206.89" cy="3142.5" rx="3.5433" ry="3.5433" layerid="11" stroke-width="0"/><circle c_etype="pad_hole" cx="4206.8899" cy="3142.4997" r="1.9685" layerid="11" stroke-width="0"/></g><g c_partid="part_pad" c_etype="pinpart" c_origin="4243.11,3142.5" layerid="11" number="2" net="LED1_2" plated ="Y"  id="gge317" locked="0" c_rotation="0" c_width="7.0866" c_height="7.0866" title="LED1_2" c_shape="ELLIPSE" pasteexpansion="0" solderexpansion="0.4"><ellipse c_etype="pad_shell" cx="4243.11" cy="3142.5" rx="3.5433" ry="3.5433" layerid="11" stroke-width="0"/><circle c_etype="pad_hole" cx="4243.1103" cy="3142.4997" r="1.9685" layerid="11" stroke-width="0"/></g><g c_partid="part_pad" c_etype="pinpart" c_origin="4243.61,3214.5" layerid="11" number="1" net="R1_2" plated ="Y"  id="gge335" locked="0" c_rotation="180" c_width="7.0866" c_height="7.0866" title="R1_2" c_shape="ELLIPSE" pasteexpansion="0" solderexpansion="0.4"><ellipse c_etype="pad_shell" cx="4243.61" cy="3214.5" rx="3.5433" ry="3.5433" layerid="11" stroke-width="0"/><circle c_etype="pad_hole" cx="4243.6103" cy="3214.4997" r="1.9685" layerid="11" stroke-width="0"/></g><g c_partid="part_pad" c_etype="pinpart" c_origin="4207.39,3214.5" layerid="11" number="2" net="D2_1" plated ="Y"  id="gge340" locked="0" c_rotation="180" c_width="7.0866" c_height="7.0866" title="D2_1" c_shape="ELLIPSE" pasteexpansion="0" solderexpansion="0.4"><ellipse c_etype="pad_shell" cx="4207.39" cy="3214.5" rx="3.5433" ry="3.5433" layerid="11" stroke-width="0"/><circle c_etype="pad_hole" cx="4207.3899" cy="3214.4997" r="1.9685" layerid="11" stroke-width="0"/></g><g c_partid="part_pad" c_etype="pinpart" c_origin="4242.61,3191" layerid="11" number="1" net="R1_2" plated ="Y"  id="gge358" locked="0" c_rotation="180" c_width="7.0866" c_height="7.0866" title="R1_2" c_shape="ELLIPSE" pasteexpansion="0" solderexpansion="0.4"><ellipse c_etype="pad_shell" cx="4242.61" cy="3191" rx="3.5433" ry="3.5433" layerid="11" stroke-width="0"/><circle c_etype="pad_hole" cx="4242.6103" cy="3190.9997" r="1.9685" layerid="11" stroke-width="0"/></g><g c_partid="part_pad" c_etype="pinpart" c_origin="4206.39,3191" layerid="11" number="2" net="D5_1" plated ="Y"  id="gge363" locked="0" c_rotation="180" c_width="7.0866" c_height="7.0866" title="D5_1" c_shape="ELLIPSE" pasteexpansion="0" solderexpansion="0.4"><ellipse c_etype="pad_shell" cx="4206.39" cy="3191" rx="3.5433" ry="3.5433" layerid="11" stroke-width="0"/><circle c_etype="pad_hole" cx="4206.3899" cy="3190.9997" r="1.9685" layerid="11" stroke-width="0"/></g><g c_partid="part_pad" c_etype="pinpart" c_origin="4206.89,3169" layerid="11" number="1" net="D5_1" plated ="Y"  id="gge381" locked="0" c_rotation="0" c_width="7.0866" c_height="7.0866" title="D5_1" c_shape="ELLIPSE" pasteexpansion="0" solderexpansion="0.4"><ellipse c_etype="pad_shell" cx="4206.89" cy="3169" rx="3.5433" ry="3.5433" layerid="11" stroke-width="0"/><circle c_etype="pad_hole" cx="4206.8898" cy="3169" r="1.9685" layerid="11" stroke-width="0"/></g><g c_partid="part_pad" c_etype="pinpart" c_origin="4243.11,3169" layerid="11" number="2" net="LED1_2" plated ="Y"  id="gge386" locked="0" c_rotation="0" c_width="7.0866" c_height="7.0866" title="LED1_2" c_shape="ELLIPSE" pasteexpansion="0" solderexpansion="0.4"><ellipse c_etype="pad_shell" cx="4243.11" cy="3169" rx="3.5433" ry="3.5433" layerid="11" stroke-width="0"/><circle c_etype="pad_hole" cx="4243.1102" cy="3169" r="1.9685" layerid="11" stroke-width="0"/></g><polyline points="4278.0396 3252.9997 4278.0396 3254.4997 4278.0396 3255.9997 4278.0396 3254.4997" stroke-width="1"  stroke-linecap="round" fill="none" layerid="3" net="" id="gge7" locked="0" /><polyline points="4285.7006 3239.3387 4285.7006 3256.6617 4248.2986 3256.6617 4248.2986 3239.3387 4285.7006 3239.3387" stroke-width="1"  stroke-linecap="round" fill="none" layerid="3" net="" id="gge11" locked="0" /><polyline points="4285.7006 3237.6057 4285.7006 3238.3927 4282.7006 3238.3927 4282.7006 3237.6057 4285.7006 3237.6057" stroke-width="1"  stroke-linecap="round" fill="none" layerid="3" net="" id="gge12" locked="0" /><polyline points="4251.2996 3237.6057 4251.2996 3238.3927 4248.2996 3238.3927 4248.2996 3237.6057 4251.2996 3237.6057" stroke-width="1"  stroke-linecap="round" fill="none" layerid="3" net="" id="gge13" locked="0" /><polyline points="4328.1561 3226.9927 4292.7231 3226.9927" stroke-width="1"  stroke-linecap="round" fill="none" layerid="3" net="" id="gge35" locked="0" /><polyline points="4328.0381 3185.6547 4292.6051 3185.6547" stroke-width="1"  stroke-linecap="round" fill="none" layerid="3" net="" id="gge36" locked="0" /><polyline points="4328.1561 3185.6547 4328.1561 3226.9927" stroke-width="1"  stroke-linecap="round" fill="none" layerid="3" net="" id="gge37" locked="0" /><polyline points="4320.9521 3185.5367 4320.9521 3226.8747" stroke-width="1"  stroke-linecap="round" fill="none" layerid="3" net="" id="gge38" locked="0" /><polyline points="4325.7941 3185.6547 4325.7941 3226.9927" stroke-width="1"  stroke-linecap="round" fill="none" layerid="3" net="" id="gge39" locked="0" /><polyline points="4292.6051 3185.6547 4292.6051 3226.9927" stroke-width="1"  stroke-linecap="round" fill="none" layerid="3" net="" id="gge40" locked="0" /><polyline points="4058.344 3210.507 4093.777 3210.507" stroke-width="1"  stroke-linecap="round" fill="none" layerid="3" net="" id="gge59" locked="0" /><polyline points="4058.462 3251.845 4093.895 3251.845" stroke-width="1"  stroke-linecap="round" fill="none" layerid="3" net="" id="gge60" locked="0" /><polyline points="4058.344 3251.845 4058.344 3210.507" stroke-width="1"  stroke-linecap="round" fill="none" layerid="3" net="" id="gge61" locked="0" /><polyline points="4065.548 3251.963 4065.548 3210.625" stroke-width="1"  stroke-linecap="round" fill="none" layerid="3" net="" id="gge62" locked="0" /><polyline points="4060.706 3251.845 4060.706 3210.507" stroke-width="1"  stroke-linecap="round" fill="none" layerid="3" net="" id="gge63" locked="0" /><polyline points="4093.895 3251.845 4093.895 3210.507" stroke-width="1"  stroke-linecap="round" fill="none" layerid="3" net="" id="gge64" locked="0" /><polyline points="4058.344 3148.007 4093.777 3148.007" stroke-width="1"  stroke-linecap="round" fill="none" layerid="3" net="" id="gge83" locked="0" /><polyline points="4058.462 3189.345 4093.895 3189.345" stroke-width="1"  stroke-linecap="round" fill="none" layerid="3" net="" id="gge84" locked="0" /><polyline points="4058.344 3189.345 4058.344 3148.007" stroke-width="1"  stroke-linecap="round" fill="none" layerid="3" net="" id="gge85" locked="0" /><polyline points="4065.548 3189.463 4065.548 3148.125" stroke-width="1"  stroke-linecap="round" fill="none" layerid="3" net="" id="gge86" locked="0" /><polyline points="4060.706 3189.345 4060.706 3148.007" stroke-width="1"  stroke-linecap="round" fill="none" layerid="3" net="" id="gge87" locked="0" /><polyline points="4093.895 3189.345 4093.895 3148.007" stroke-width="1"  stroke-linecap="round" fill="none" layerid="3" net="" id="gge88" locked="0" /><polyline points="4273.4901 3163.0097 4253.4901 3163.0097 4253.4901 3173.0097 4273.4901 3173.0097 4273.4901 3163.0097" stroke-width="0.79"  stroke-linecap="round" fill="none" layerid="3" net="" id="gge107" locked="0" /><polyline points="4270.9901 3139.0097 4250.9901 3139.0097 4250.9901 3149.0097 4270.9901 3149.0097 4270.9901 3139.0097" stroke-width="0.79"  stroke-linecap="round" fill="none" layerid="3" net="" id="gge126" locked="0" /><polyline points="4272.9901 3186.5097 4252.9901 3186.5097 4252.9901 3196.5097 4272.9901 3196.5097 4272.9901 3186.5097" stroke-width="0.79"  stroke-linecap="round" fill="none" layerid="3" net="" id="gge145" locked="0" /><polyline points="4179 3262 4117 3262" stroke-width="1"  stroke-linecap="round" fill="none" layerid="3" net="" id="gge164" locked="0" /><polyline points="4117 3262 4117 3180" stroke-width="1"  stroke-linecap="round" fill="none" layerid="3" net="" id="gge165" locked="0" /><polyline points="4179 3262 4179 3180" stroke-width="1"  stroke-linecap="round" fill="none" layerid="3" net="" id="gge166" locked="0" /><polyline points="4179 3180 4117 3180" stroke-width="1"  stroke-linecap="round" fill="none" layerid="3" net="" id="gge167" locked="0" /><polyline points="4179 3240 4117 3240" stroke-width="1"  stroke-linecap="round" fill="none" layerid="3" net="" id="gge168" locked="0" /><polyline points="4179 3236 4117 3236" stroke-width="1"  stroke-linecap="round" fill="none" layerid="3" net="" id="gge169" locked="0" /><polyline points="4179 3201 4117 3201" stroke-width="1"  stroke-linecap="round" fill="none" layerid="3" net="" id="gge170" locked="0" /><polyline points="4179 3205 4117 3205" stroke-width="1"  stroke-linecap="round" fill="none" layerid="3" net="" id="gge171" locked="0" /><polyline points="4186 3221 4179 3221" stroke-width="1"  stroke-linecap="round" fill="none" layerid="3" net="" id="gge172" locked="0" /><polyline points="4183 3242 4179 3240" stroke-width="1"  stroke-linecap="round" fill="none" layerid="3" net="" id="gge173" locked="0" /><polyline points="4184 3197 4179 3201" stroke-width="1"  stroke-linecap="round" fill="none" layerid="3" net="" id="gge174" locked="0" /><polyline points="4117 3240 4109 3244" stroke-width="1"  stroke-linecap="round" fill="none" layerid="3" net="" id="gge175" locked="0" /><polyline points="4117 3201 4112 3199" stroke-width="1"  stroke-linecap="round" fill="none" layerid="3" net="" id="gge176" locked="0" /><polyline points="4119.4401 3146.2497 4161.5601 3146.2497" stroke-width="0.79"  stroke-linecap="round" fill="none" layerid="3" net="" id="gge209" locked="0" /><polyline points="4119.4401 3162.7797 4119.4401 3144.2797 4161.5601 3144.2797 4161.5601 3162.7797" stroke-width="0.79"  stroke-linecap="round" fill="none" layerid="3" net="" id="gge210" locked="0" /><polyline points="4119.4401 3162.7797 4161.5601 3162.7797" stroke-width="0.79"  stroke-linecap="round" fill="none" layerid="3" net="" id="gge211" locked="0" /><polyline points="4258.5001 3220.1197 4268.5311 3220.1407" stroke-width="1"  stroke-linecap="round" fill="none" layerid="3" net="" id="gge233" locked="0" /><polyline points="4232.5001 3235.4997 4233.5001 3235.4997" stroke-width="1"  stroke-linecap="round" fill="none" layerid="3" net="" id="gge253" locked="0" /><polyline points="4212.5001 3235.4997 4211.5001 3235.4997" stroke-width="1"  stroke-linecap="round" fill="none" layerid="3" net="" id="gge254" locked="0" /><polyline points="4232.5001 3235.4997 4232.5001 3238.4997" stroke-width="1"  stroke-linecap="round" fill="none" layerid="3" net="" id="gge255" locked="0" /><polyline points="4232.5001 3232.4997 4232.5001 3235.4997" stroke-width="1"  stroke-linecap="round" fill="none" layerid="3" net="" id="gge256" locked="0" /><polyline points="4212.5001 3232.4997 4232.5001 3232.4997" stroke-width="1"  stroke-linecap="round" fill="none" layerid="3" net="" id="gge257" locked="0" /><polyline points="4212.5001 3235.4997 4212.5001 3232.4997" stroke-width="1"  stroke-linecap="round" fill="none" layerid="3" net="" id="gge258" locked="0" /><polyline points="4212.5001 3238.4997 4212.5001 3235.4997" stroke-width="1"  stroke-linecap="round" fill="none" layerid="3" net="" id="gge259" locked="0" /><polyline points="4232.5001 3238.4997 4212.5001 3238.4997" stroke-width="1"  stroke-linecap="round" fill="none" layerid="3" net="" id="gge260" locked="0" /><polyline points="4234.0001 3253.9997 4235.0001 3253.9997" stroke-width="1"  stroke-linecap="round" fill="none" layerid="3" net="" id="gge279" locked="0" /><polyline points="4214.0001 3253.9997 4213.0001 3253.9997" stroke-width="1"  stroke-linecap="round" fill="none" layerid="3" net="" id="gge280" locked="0" /><polyline points="4234.0001 3253.9997 4234.0001 3256.9997" stroke-width="1"  stroke-linecap="round" fill="none" layerid="3" net="" id="gge281" locked="0" /><polyline points="4234.0001 3250.9997 4234.0001 3253.9997" stroke-width="1"  stroke-linecap="round" fill="none" layerid="3" net="" id="gge282" locked="0" /><polyline points="4214.0001 3250.9997 4234.0001 3250.9997" stroke-width="1"  stroke-linecap="round" fill="none" layerid="3" net="" id="gge283" locked="0" /><polyline points="4214.0001 3253.9997 4214.0001 3250.9997" stroke-width="1"  stroke-linecap="round" fill="none" layerid="3" net="" id="gge284" locked="0" /><polyline points="4214.0001 3256.9997 4214.0001 3253.9997" stroke-width="1"  stroke-linecap="round" fill="none" layerid="3" net="" id="gge285" locked="0" /><polyline points="4234.0001 3256.9997 4214.0001 3256.9997" stroke-width="1"  stroke-linecap="round" fill="none" layerid="3" net="" id="gge286" locked="0" /><polyline points="4214.7639 3136.9879 4235.2363 3136.9879" stroke-width="1"  stroke-linecap="round" fill="none" layerid="3" net="" id="gge305" locked="0" /><polyline points="4235.2363 3136.9879 4235.2363 3148.0115" stroke-width="1"  stroke-linecap="round" fill="none" layerid="3" net="" id="gge306" locked="0" /><polyline points="4214.7639 3148.0115 4235.2363 3148.0115" stroke-width="1"  stroke-linecap="round" fill="none" layerid="3" net="" id="gge307" locked="0" /><polyline points="4214.7639 3136.9879 4214.7639 3148.0115" stroke-width="1"  stroke-linecap="round" fill="none" layerid="3" net="" id="gge308" locked="0" /><polyline points="4218.5405 3136.9879 4218.5405 3148.0115" stroke-width="1"  stroke-linecap="round" fill="none" layerid="3" net="" id="gge309" locked="0" /><polyline points="4235.7363 3220.0115 4215.2639 3220.0115" stroke-width="1"  stroke-linecap="round" fill="none" layerid="3" net="" id="gge328" locked="0" /><polyline points="4215.2639 3220.0115 4215.2639 3208.9879" stroke-width="1"  stroke-linecap="round" fill="none" layerid="3" net="" id="gge329" locked="0" /><polyline points="4235.7363 3208.9879 4215.2639 3208.9879" stroke-width="1"  stroke-linecap="round" fill="none" layerid="3" net="" id="gge330" locked="0" /><polyline points="4235.7363 3220.0115 4235.7363 3208.9879" stroke-width="1"  stroke-linecap="round" fill="none" layerid="3" net="" id="gge331" locked="0" /><polyline points="4231.9597 3220.0115 4231.9597 3208.9879" stroke-width="1"  stroke-linecap="round" fill="none" layerid="3" net="" id="gge332" locked="0" /><polyline points="4234.7363 3196.5115 4214.2639 3196.5115" stroke-width="1"  stroke-linecap="round" fill="none" layerid="3" net="" id="gge351" locked="0" /><polyline points="4214.2639 3196.5115 4214.2639 3185.4879" stroke-width="1"  stroke-linecap="round" fill="none" layerid="3" net="" id="gge352" locked="0" /><polyline points="4234.7363 3185.4879 4214.2639 3185.4879" stroke-width="1"  stroke-linecap="round" fill="none" layerid="3" net="" id="gge353" locked="0" /><polyline points="4234.7363 3196.5115 4234.7363 3185.4879" stroke-width="1"  stroke-linecap="round" fill="none" layerid="3" net="" id="gge354" locked="0" /><polyline points="4230.9597 3196.5115 4230.9597 3185.4879" stroke-width="1"  stroke-linecap="round" fill="none" layerid="3" net="" id="gge355" locked="0" /><polyline points="4214.7638 3163.4882 4235.2362 3163.4882" stroke-width="1"  stroke-linecap="round" fill="none" layerid="3" net="" id="gge374" locked="0" /><polyline points="4235.2362 3163.4882 4235.2362 3174.5118" stroke-width="1"  stroke-linecap="round" fill="none" layerid="3" net="" id="gge375" locked="0" /><polyline points="4214.7638 3174.5118 4235.2362 3174.5118" stroke-width="1"  stroke-linecap="round" fill="none" layerid="3" net="" id="gge376" locked="0" /><polyline points="4214.7638 3163.4882 4214.7638 3174.5118" stroke-width="1"  stroke-linecap="round" fill="none" layerid="3" net="" id="gge377" locked="0" /><polyline points="4218.5404 3163.4882 4218.5404 3174.5118" stroke-width="1"  stroke-linecap="round" fill="none" layerid="3" net="" id="gge378" locked="0" /><g c_partid="part_pcbtext" c_etype="" c_origin="4296.39,3289.54" c_rotation="90" c_mirror="0" id="gge3" locked="0" layerid="3" c_shapetype="group" display="none"><path c_fontsize="4.5" c_fontfamily="" c_text="R_3296W_EU" d="M 4291.8498 3289.5397 L 4296.1398 3289.5397 M 4291.8498 3289.5397 L 4291.8498 3287.6997 L 4292.0498 3287.0897 L 4292.2598 3286.8797 L 4292.6698 3286.6797 L 4293.0798 3286.6797 L 4293.4898 3286.8797 L 4293.6898 3287.0897 L 4293.8898 3287.6997 L 4293.8898 3289.5397 M 4293.8898 3288.1097 L 4296.1398 3286.6797 M 4297.5798 3285.3297 L 4297.5798 3281.6397 M 4291.8498 3279.8897 L 4291.8498 3277.6397 L 4293.4898 3278.8597 L 4293.4898 3278.2497 L 4293.6898 3277.8397 L 4293.8898 3277.6397 L 4294.5098 3277.4297 L 4294.9198 3277.4297 L 4295.5298 3277.6397 L 4295.9398 3278.0397 L 4296.1398 3278.6597 L 4296.1398 3279.2697 L 4295.9398 3279.8897 L 4295.7398 3280.0897 L 4295.3298 3280.2897 M 4292.8698 3275.8797 L 4292.6698 3275.8797 L 4292.2598 3275.6697 L 4292.0498 3275.4697 L 4291.8498 3275.0597 L 4291.8498 3274.2397 L 4292.0498 3273.8297 L 4292.2598 3273.6297 L 4292.6698 3273.4197 L 4293.0798 3273.4197 L 4293.4898 3273.6297 L 4294.0998 3274.0397 L 4296.1398 3276.0797 L 4296.1398 3273.2197 M 4293.2798 3269.2097 L 4293.8898 3269.4097 L 4294.2998 3269.8197 L 4294.5098 3270.4397 L 4294.5098 3270.6397 L 4294.2998 3271.2497 L 4293.8898 3271.6597 L 4293.2798 3271.8697 L 4293.0798 3271.8697 L 4292.4598 3271.6597 L 4292.0498 3271.2497 L 4291.8498 3270.6397 L 4291.8498 3270.4397 L 4292.0498 3269.8197 L 4292.4598 3269.4097 L 4293.2798 3269.2097 L 4294.2998 3269.2097 L 4295.3298 3269.4097 L 4295.9398 3269.8197 L 4296.1398 3270.4397 L 4296.1398 3270.8397 L 4295.9398 3271.4597 L 4295.5298 3271.6597 M 4292.4598 3265.3997 L 4292.0498 3265.6097 L 4291.8498 3266.2197 L 4291.8498 3266.6297 L 4292.0498 3267.2397 L 4292.6698 3267.6497 L 4293.6898 3267.8597 L 4294.7098 3267.8597 L 4295.5298 3267.6497 L 4295.9398 3267.2397 L 4296.1398 3266.6297 L 4296.1398 3266.4297 L 4295.9398 3265.8097 L 4295.5298 3265.3997 L 4294.9198 3265.1997 L 4294.7098 3265.1997 L 4294.0998 3265.3997 L 4293.6898 3265.8097 L 4293.4898 3266.4297 L 4293.4898 3266.6297 L 4293.6898 3267.2397 L 4294.0998 3267.6497 L 4294.7098 3267.8597 M 4291.8498 3263.8497 L 4296.1398 3262.8297 M 4291.8498 3261.7997 L 4296.1398 3262.8297 M 4291.8498 3261.7997 L 4296.1398 3260.7797 M 4291.8498 3259.7597 L 4296.1398 3260.7797 M 4297.5798 3258.4097 L 4297.5798 3254.7297 M 4291.8498 3253.3797 L 4296.1398 3253.3797 M 4291.8498 3253.3797 L 4291.8498 3250.7197 M 4293.8898 3253.3797 L 4293.8898 3251.7397 M 4296.1398 3253.3797 L 4296.1398 3250.7197 M 4291.8498 3249.3697 L 4294.9198 3249.3697 L 4295.5298 3249.1597 L 4295.9398 3248.7497 L 4296.1398 3248.1397 L 4296.1398 3247.7297 L 4295.9398 3247.1197 L 4295.5298 3246.7097 L 4294.9198 3246.4997 L 4291.8498 3246.4997" fill="none"  stroke-width="0.6" c_note="note_name" /></g><g c_partid="part_pcbtext" c_etype="" c_origin="4286.04,3246.5" c_rotation="270" c_mirror="0" id="gge5" locked="0" layerid="3" c_shapetype="group" ><path c_fontsize="4.5" c_fontfamily="" c_text="RP1" d="M 4290.5796 3246.4997 L 4286.2896 3246.4997 M 4290.5796 3246.4997 L 4290.5796 3248.3397 L 4290.3796 3248.9497 L 4290.1696 3249.1597 L 4289.7596 3249.3597 L 4289.3496 3249.3597 L 4288.9396 3249.1597 L 4288.7396 3248.9497 L 4288.5396 3248.3397 L 4288.5396 3246.4997 M 4288.5396 3247.9297 L 4286.2896 3249.3597 M 4290.5796 3250.7097 L 4286.2896 3250.7097 M 4290.5796 3250.7097 L 4290.5796 3252.5497 L 4290.3796 3253.1697 L 4290.1696 3253.3697 L 4289.7596 3253.5797 L 4289.1496 3253.5797 L 4288.7396 3253.3697 L 4288.5396 3253.1697 L 4288.3296 3252.5497 L 4288.3296 3250.7097 M 4289.7596 3254.9297 L 4289.9696 3255.3397 L 4290.5796 3255.9497 L 4286.2896 3255.9497" fill="none"  stroke-width="0.6" c_note="note_pre" /></g><g c_partid="part_pcbtext" c_etype="" c_origin="4341.23,3243.44" c_rotation="90" c_mirror="0" id="gge31" locked="0" layerid="3" c_shapetype="group" display="none"><path c_fontsize="4.5" c_fontfamily="" c_text="SALIDA VDC" d="M 4337.3 3240.5797 L 4336.89 3240.9897 L 4336.69 3241.5997 L 4336.69 3242.4197 L 4336.89 3243.0297 L 4337.3 3243.4397 L 4337.71 3243.4397 L 4338.12 3243.2397 L 4338.33 3243.0297 L 4338.53 3242.6197 L 4338.94 3241.3897 L 4339.14 3240.9897 L 4339.35 3240.7797 L 4339.76 3240.5797 L 4340.37 3240.5797 L 4340.78 3240.9897 L 4340.98 3241.5997 L 4340.98 3242.4197 L 4340.78 3243.0297 L 4340.37 3243.4397 M 4336.69 3237.5897 L 4340.98 3239.2297 M 4336.69 3237.5897 L 4340.98 3235.9497 M 4339.55 3238.6097 L 4339.55 3236.5697 M 4336.69 3234.5997 L 4340.98 3234.5997 M 4340.98 3234.5997 L 4340.98 3232.1497 M 4336.69 3230.7997 L 4340.98 3230.7997 M 4336.69 3229.4497 L 4340.98 3229.4497 M 4336.69 3229.4497 L 4336.69 3228.0197 L 4336.89 3227.3997 L 4337.3 3226.9897 L 4337.71 3226.7897 L 4338.33 3226.5897 L 4339.35 3226.5897 L 4339.96 3226.7897 L 4340.37 3226.9897 L 4340.78 3227.3997 L 4340.98 3228.0197 L 4340.98 3229.4497 M 4336.69 3223.5997 L 4340.98 3225.2397 M 4336.69 3223.5997 L 4340.98 3221.9597 M 4339.55 3224.6197 L 4339.55 3222.5797 M 4336.69 3217.4597 L 4340.98 3215.8297 M 4336.69 3214.1897 L 4340.98 3215.8297 M 4336.69 3212.8397 L 4340.98 3212.8397 M 4336.69 3212.8397 L 4336.69 3211.4097 L 4336.89 3210.7897 L 4337.3 3210.3897 L 4337.71 3210.1797 L 4338.33 3209.9797 L 4339.35 3209.9797 L 4339.96 3210.1797 L 4340.37 3210.3897 L 4340.78 3210.7897 L 4340.98 3211.4097 L 4340.98 3212.8397 M 4337.71 3205.5597 L 4337.3 3205.7597 L 4336.89 3206.1697 L 4336.69 3206.5797 L 4336.69 3207.3997 L 4336.89 3207.8097 L 4337.3 3208.2197 L 4337.71 3208.4197 L 4338.33 3208.6297 L 4339.35 3208.6297 L 4339.96 3208.4197 L 4340.37 3208.2197 L 4340.78 3207.8097 L 4340.98 3207.3997 L 4340.98 3206.5797 L 4340.78 3206.1697 L 4340.37 3205.7597 L 4339.96 3205.5597" fill="none"  stroke-width="0.6" c_note="note_name" /></g><g c_partid="part_pcbtext" c_etype="" c_origin="4329.44,3205.56" c_rotation="270" c_mirror="0" id="gge33" locked="0" layerid="3" c_shapetype="group" ><path c_fontsize="4.5" c_fontfamily="" c_text="P3" d="M 4333.9801 3205.5597 L 4329.6901 3205.5597 M 4333.9801 3205.5597 L 4333.9801 3207.3997 L 4333.7801 3208.0097 L 4333.5701 3208.2197 L 4333.1601 3208.4197 L 4332.5501 3208.4197 L 4332.1401 3208.2197 L 4331.9401 3208.0097 L 4331.7301 3207.3997 L 4331.7301 3205.5597 M 4333.9801 3210.1797 L 4333.9801 3212.4297 L 4332.3401 3211.2097 L 4332.3401 3211.8197 L 4332.1401 3212.2297 L 4331.9401 3212.4297 L 4331.3201 3212.6397 L 4330.9101 3212.6397 L 4330.3001 3212.4297 L 4329.8901 3212.0197 L 4329.6901 3211.4097 L 4329.6901 3210.7997 L 4329.8901 3210.1797 L 4330.0901 3209.9797 L 4330.5001 3209.7697" fill="none"  stroke-width="0.6" c_note="note_pre" /></g><g c_partid="part_pcbtext" c_etype="" c_origin="4050.06,3231.94" c_rotation="90" c_mirror="0" id="gge55" locked="0" layerid="3" c_shapetype="group" display="none"><path c_fontsize="4.5" c_fontfamily="" c_text="NEUTRO" d="M 4045.52 3231.94 L 4049.81 3231.94 M 4045.52 3231.94 L 4049.81 3229.08 M 4045.52 3229.08 L 4049.81 3229.08 M 4045.52 3227.73 L 4049.81 3227.73 M 4045.52 3227.73 L 4045.52 3225.07 M 4047.56 3227.73 L 4047.56 3226.09 M 4049.81 3227.73 L 4049.81 3225.07 M 4045.52 3223.72 L 4048.59 3223.72 L 4049.2 3223.51 L 4049.61 3223.1 L 4049.81 3222.49 L 4049.81 3222.08 L 4049.61 3221.47 L 4049.2 3221.06 L 4048.59 3220.85 L 4045.52 3220.85 M 4045.52 3218.07 L 4049.81 3218.07 M 4045.52 3219.5 L 4045.52 3216.64 M 4045.52 3215.29 L 4049.81 3215.29 M 4045.52 3215.29 L 4045.52 3213.45 L 4045.72 3212.84 L 4045.93 3212.63 L 4046.34 3212.43 L 4046.75 3212.43 L 4047.16 3212.63 L 4047.36 3212.84 L 4047.56 3213.45 L 4047.56 3215.29 M 4047.56 3213.86 L 4049.81 3212.43 M 4045.52 3209.85 L 4045.72 3210.26 L 4046.13 3210.67 L 4046.54 3210.87 L 4047.16 3211.08 L 4048.18 3211.08 L 4048.79 3210.87 L 4049.2 3210.67 L 4049.61 3210.26 L 4049.81 3209.85 L 4049.81 3209.03 L 4049.61 3208.62 L 4049.2 3208.21 L 4048.79 3208.01 L 4048.18 3207.8 L 4047.16 3207.8 L 4046.54 3208.01 L 4046.13 3208.21 L 4045.72 3208.62 L 4045.52 3209.03 L 4045.52 3209.85" fill="none"  stroke-width="0.6" c_note="note_name" /></g><g c_partid="part_pcbtext" c_etype="" c_origin="4057.06,3231.94" c_rotation="90" c_mirror="0" id="gge57" locked="0" layerid="3" c_shapetype="group" ><path c_fontsize="4.5" c_fontfamily="" c_text="P2" d="M 4052.52 3231.94 L 4056.81 3231.94 M 4052.52 3231.94 L 4052.52 3230.1 L 4052.72 3229.49 L 4052.93 3229.28 L 4053.34 3229.08 L 4053.95 3229.08 L 4054.36 3229.28 L 4054.56 3229.49 L 4054.77 3230.1 L 4054.77 3231.94 M 4053.54 3227.52 L 4053.34 3227.52 L 4052.93 3227.32 L 4052.72 3227.11 L 4052.52 3226.7 L 4052.52 3225.89 L 4052.72 3225.48 L 4052.93 3225.27 L 4053.34 3225.07 L 4053.75 3225.07 L 4054.16 3225.27 L 4054.77 3225.68 L 4056.81 3227.73 L 4056.81 3224.86" fill="none"  stroke-width="0.6" c_note="note_pre" /></g><g c_partid="part_pcbtext" c_etype="" c_origin="4050.06,3169.44" c_rotation="90" c_mirror="0" id="gge79" locked="0" layerid="3" c_shapetype="group" display="none"><path c_fontsize="4.5" c_fontfamily="" c_text="FASE" d="M 4045.52 3169.44 L 4049.81 3169.44 M 4045.52 3169.44 L 4045.52 3166.78 M 4047.56 3169.44 L 4047.56 3167.8 M 4045.52 3163.79 L 4049.81 3165.43 M 4045.52 3163.79 L 4049.81 3162.16 M 4048.38 3164.82 L 4048.38 3162.77 M 4046.13 3157.94 L 4045.72 3158.35 L 4045.52 3158.97 L 4045.52 3159.79 L 4045.72 3160.4 L 4046.13 3160.81 L 4046.54 3160.81 L 4046.95 3160.6 L 4047.16 3160.4 L 4047.36 3159.99 L 4047.77 3158.76 L 4047.97 3158.35 L 4048.18 3158.15 L 4048.59 3157.94 L 4049.2 3157.94 L 4049.61 3158.35 L 4049.81 3158.97 L 4049.81 3159.79 L 4049.61 3160.4 L 4049.2 3160.81 M 4045.52 3156.59 L 4049.81 3156.59 M 4045.52 3156.59 L 4045.52 3153.94 M 4047.56 3156.59 L 4047.56 3154.96 M 4049.81 3156.59 L 4049.81 3153.94" fill="none"  stroke-width="0.6" c_note="note_name" /></g><g c_partid="part_pcbtext" c_etype="" c_origin="4057.06,3169.44" c_rotation="90" c_mirror="0" id="gge81" locked="0" layerid="3" c_shapetype="group" ><path c_fontsize="4.5" c_fontfamily="" c_text="P1" d="M 4052.52 3169.44 L 4056.81 3169.44 M 4052.52 3169.44 L 4052.52 3167.6 L 4052.72 3166.99 L 4052.93 3166.78 L 4053.34 3166.58 L 4053.95 3166.58 L 4054.36 3166.78 L 4054.56 3166.99 L 4054.77 3167.6 L 4054.77 3169.44 M 4053.34 3165.23 L 4053.13 3164.82 L 4052.52 3164.2 L 4056.81 3164.2" fill="none"  stroke-width="0.6" c_note="note_pre" /></g><g c_partid="part_pcbtext" c_etype="" c_origin="4262.6,3154.7" c_rotation="0" c_mirror="0" id="gge103" locked="0" layerid="3" c_shapetype="group" display="none"><path c_fontsize="4.5" c_fontfamily="" c_text="0.1u" d="M 4263.8301 3150.1597 L 4263.2101 3150.3597 L 4262.8001 3150.9797 L 4262.6001 3151.9997 L 4262.6001 3152.6097 L 4262.8001 3153.6397 L 4263.2101 3154.2497 L 4263.8301 3154.4497 L 4264.2401 3154.4497 L 4264.8501 3154.2497 L 4265.2601 3153.6397 L 4265.4601 3152.6097 L 4265.4601 3151.9997 L 4265.2601 3150.9797 L 4264.8501 3150.3597 L 4264.2401 3150.1597 L 4263.8301 3150.1597 M 4267.0201 3153.4297 L 4266.8101 3153.6397 L 4267.0201 3153.8397 L 4267.2201 3153.6397 L 4267.0201 3153.4297 M 4268.5701 3150.9797 L 4268.9801 3150.7697 L 4269.6001 3150.1597 L 4269.6001 3154.4497 M 4270.9501 3151.5897 L 4270.9501 3153.6397 L 4271.1501 3154.2497 L 4271.5601 3154.4497 L 4272.1701 3154.4497 L 4272.5801 3154.2497 L 4273.2001 3153.6397 M 4273.2001 3151.5897 L 4273.2001 3154.4497" fill="none"  stroke-width="0.6" c_note="note_name" /></g><g c_partid="part_pcbtext" c_etype="" c_origin="4262.6,3161.7" c_rotation="0" c_mirror="0" id="gge105" locked="0" layerid="3" c_shapetype="group" ><path c_fontsize="4.5" c_fontfamily="" c_text="C1" d="M 4265.6701 3158.1797 L 4265.4601 3157.7697 L 4265.0501 3157.3597 L 4264.6501 3157.1597 L 4263.8301 3157.1597 L 4263.4201 3157.3597 L 4263.0101 3157.7697 L 4262.8001 3158.1797 L 4262.6001 3158.7997 L 4262.6001 3159.8197 L 4262.8001 3160.4297 L 4263.0101 3160.8397 L 4263.4201 3161.2497 L 4263.8301 3161.4497 L 4264.6501 3161.4497 L 4265.0501 3161.2497 L 4265.4601 3160.8397 L 4265.6701 3160.4297 M 4267.0201 3157.9797 L 4267.4301 3157.7697 L 4268.0401 3157.1597 L 4268.0401 3161.4497" fill="none"  stroke-width="0.6" c_note="note_pre" /></g><g c_partid="part_pcbtext" c_etype="" c_origin="4260.1,3130.7" c_rotation="0" c_mirror="0" id="gge122" locked="0" layerid="3" c_shapetype="group" display="none"><path c_fontsize="4.5" c_fontfamily="" c_text="0.1u" d="M 4261.3301 3126.1597 L 4260.7101 3126.3597 L 4260.3001 3126.9797 L 4260.1001 3127.9997 L 4260.1001 3128.6097 L 4260.3001 3129.6397 L 4260.7101 3130.2497 L 4261.3301 3130.4497 L 4261.7401 3130.4497 L 4262.3501 3130.2497 L 4262.7601 3129.6397 L 4262.9601 3128.6097 L 4262.9601 3127.9997 L 4262.7601 3126.9797 L 4262.3501 3126.3597 L 4261.7401 3126.1597 L 4261.3301 3126.1597 M 4264.5201 3129.4297 L 4264.3101 3129.6397 L 4264.5201 3129.8397 L 4264.7201 3129.6397 L 4264.5201 3129.4297 M 4266.0701 3126.9797 L 4266.4801 3126.7697 L 4267.1001 3126.1597 L 4267.1001 3130.4497 M 4268.4501 3127.5897 L 4268.4501 3129.6397 L 4268.6501 3130.2497 L 4269.0601 3130.4497 L 4269.6701 3130.4497 L 4270.0801 3130.2497 L 4270.7001 3129.6397 M 4270.7001 3127.5897 L 4270.7001 3130.4497" fill="none"  stroke-width="0.6" c_note="note_name" /></g><g c_partid="part_pcbtext" c_etype="" c_origin="4260.1,3137.7" c_rotation="0" c_mirror="0" id="gge124" locked="0" layerid="3" c_shapetype="group" ><path c_fontsize="4.5" c_fontfamily="" c_text="C2" d="M 4263.1701 3134.1797 L 4262.9601 3133.7697 L 4262.5501 3133.3597 L 4262.1501 3133.1597 L 4261.3301 3133.1597 L 4260.9201 3133.3597 L 4260.5101 3133.7697 L 4260.3001 3134.1797 L 4260.1001 3134.7997 L 4260.1001 3135.8197 L 4260.3001 3136.4297 L 4260.5101 3136.8397 L 4260.9201 3137.2497 L 4261.3301 3137.4497 L 4262.1501 3137.4497 L 4262.5501 3137.2497 L 4262.9601 3136.8397 L 4263.1701 3136.4297 M 4264.7201 3134.1797 L 4264.7201 3133.9797 L 4264.9301 3133.5697 L 4265.1301 3133.3597 L 4265.5401 3133.1597 L 4266.3601 3133.1597 L 4266.7701 3133.3597 L 4266.9701 3133.5697 L 4267.1801 3133.9797 L 4267.1801 3134.3897 L 4266.9701 3134.7997 L 4266.5601 3135.4097 L 4264.5201 3137.4497 L 4267.3801 3137.4497" fill="none"  stroke-width="0.6" c_note="note_pre" /></g><g c_partid="part_pcbtext" c_etype="" c_origin="4262.1,3178.2" c_rotation="0" c_mirror="0" id="gge141" locked="0" layerid="3" c_shapetype="group" display="none"><path c_fontsize="4.5" c_fontfamily="" c_text="0.1u" d="M 4263.3301 3173.6597 L 4262.7101 3173.8597 L 4262.3001 3174.4797 L 4262.1001 3175.4997 L 4262.1001 3176.1097 L 4262.3001 3177.1397 L 4262.7101 3177.7497 L 4263.3301 3177.9497 L 4263.7401 3177.9497 L 4264.3501 3177.7497 L 4264.7601 3177.1397 L 4264.9601 3176.1097 L 4264.9601 3175.4997 L 4264.7601 3174.4797 L 4264.3501 3173.8597 L 4263.7401 3173.6597 L 4263.3301 3173.6597 M 4266.5201 3176.9297 L 4266.3101 3177.1397 L 4266.5201 3177.3397 L 4266.7201 3177.1397 L 4266.5201 3176.9297 M 4268.0701 3174.4797 L 4268.4801 3174.2697 L 4269.1001 3173.6597 L 4269.1001 3177.9497 M 4270.4501 3175.0897 L 4270.4501 3177.1397 L 4270.6501 3177.7497 L 4271.0601 3177.9497 L 4271.6701 3177.9497 L 4272.0801 3177.7497 L 4272.7001 3177.1397 M 4272.7001 3175.0897 L 4272.7001 3177.9497" fill="none"  stroke-width="0.6" c_note="note_name" /></g><g c_partid="part_pcbtext" c_etype="" c_origin="4262.1,3185.2" c_rotation="0" c_mirror="0" id="gge143" locked="0" layerid="3" c_shapetype="group" ><path c_fontsize="4.5" c_fontfamily="" c_text="C3" d="M 4265.1701 3181.6797 L 4264.9601 3181.2697 L 4264.5501 3180.8597 L 4264.1501 3180.6597 L 4263.3301 3180.6597 L 4262.9201 3180.8597 L 4262.5101 3181.2697 L 4262.3001 3181.6797 L 4262.1001 3182.2997 L 4262.1001 3183.3197 L 4262.3001 3183.9297 L 4262.5101 3184.3397 L 4262.9201 3184.7497 L 4263.3301 3184.9497 L 4264.1501 3184.9497 L 4264.5501 3184.7497 L 4264.9601 3184.3397 L 4265.1701 3183.9297 M 4266.9301 3180.6597 L 4269.1801 3180.6597 L 4267.9501 3182.2997 L 4268.5601 3182.2997 L 4268.9701 3182.4997 L 4269.1801 3182.6997 L 4269.3801 3183.3197 L 4269.3801 3183.7297 L 4269.1801 3184.3397 L 4268.7701 3184.7497 L 4268.1501 3184.9497 L 4267.5401 3184.9497 L 4266.9301 3184.7497 L 4266.7201 3184.5497 L 4266.5201 3184.1397" fill="none"  stroke-width="0.6" c_note="note_pre" /></g><g c_partid="part_pcbtext" c_etype="" c_origin="4147,3172" c_rotation="0" c_mirror="0" id="gge160" locked="0" layerid="3" c_shapetype="group" display="none"><path c_fontsize="4.5" c_fontfamily="" c_text="4 A 1" d="M 4149.05 3167.46 L 4147 3170.32 L 4150.07 3170.32 M 4149.05 3167.46 L 4149.05 3171.75 M 4156.2 3167.46 L 4154.57 3171.75 M 4156.2 3167.46 L 4157.84 3171.75 M 4155.18 3170.32 L 4157.23 3170.32 M 4162.34 3168.28 L 4162.75 3168.07 L 4163.36 3167.46 L 4163.36 3171.75" fill="none"  stroke-width="0.6" c_note="note_name" /></g><g c_partid="part_pcbtext" c_etype="" c_origin="4147,3179" c_rotation="0" c_mirror="0" id="gge162" locked="0" layerid="3" c_shapetype="group" ><path c_fontsize="4.5" c_fontfamily="" c_text="T1" d="M 4148.43 3174.46 L 4148.43 3178.75 M 4147 3174.46 L 4149.86 3174.46 M 4151.21 3175.28 L 4151.62 3175.07 L 4152.24 3174.46 L 4152.24 3178.75" fill="none"  stroke-width="0.6" c_note="note_pre" /></g><g c_partid="part_pcbtext" c_etype="" c_origin="4175.29,3184.43" c_rotation="90" c_mirror="0" id="gge204" locked="0" layerid="3" c_shapetype="group" display="none"><path c_fontsize="4.5" c_fontfamily="" c_text="LM317HVT" d="M 4170.7501 3184.4299 L 4175.0401 3184.4299 M 4175.0401 3184.4299 L 4175.0401 3181.9799 M 4170.7501 3180.6299 L 4175.0401 3180.6299 M 4170.7501 3180.6299 L 4175.0401 3178.9899 M 4170.7501 3177.3499 L 4175.0401 3178.9899 M 4170.7501 3177.3499 L 4175.0401 3177.3499 M 4170.7501 3175.5899 L 4170.7501 3173.3399 L 4172.3901 3174.5699 L 4172.3901 3173.9599 L 4172.5901 3173.5499 L 4172.7901 3173.3399 L 4173.4101 3173.1399 L 4173.8201 3173.1399 L 4174.4301 3173.3399 L 4174.8401 3173.7499 L 4175.0401 3174.3699 L 4175.0401 3174.9799 L 4174.8401 3175.5899 L 4174.6401 3175.7999 L 4174.2301 3175.9999 M 4171.5701 3171.7899 L 4171.3601 3171.3799 L 4170.7501 3170.7699 L 4175.0401 3170.7699 M 4170.7501 3166.5499 L 4175.0401 3168.5999 M 4170.7501 3169.4199 L 4170.7501 3166.5499 M 4170.7501 3165.1999 L 4175.0401 3165.1999 M 4170.7501 3162.3399 L 4175.0401 3162.3399 M 4172.7901 3165.1999 L 4172.7901 3162.3399 M 4170.7501 3160.9899 L 4175.0401 3159.3499 M 4170.7501 3157.7199 L 4175.0401 3159.3499 M 4170.7501 3154.9299 L 4175.0401 3154.9299 M 4170.7501 3156.3699 L 4170.7501 3153.4999" fill="none"  stroke-width="0.6" c_note="note_name" /></g><g c_partid="part_pcbtext" c_etype="" c_origin="4163.5,3153.5" c_rotation="270" c_mirror="0" id="gge206" locked="0" layerid="3" c_shapetype="group" ><path c_fontsize="4.5" c_fontfamily="" c_text="U1" d="M 4168.0401 3153.4997 L 4164.9701 3153.4997 L 4164.3601 3153.6997 L 4163.9501 3154.1097 L 4163.7501 3154.7297 L 4163.7501 3155.1397 L 4163.9501 3155.7497 L 4164.3601 3156.1597 L 4164.9701 3156.3597 L 4168.0401 3156.3597 M 4167.2201 3157.7097 L 4167.4301 3158.1197 L 4168.0401 3158.7397 L 4163.7501 3158.7397" fill="none"  stroke-width="0.6" c_note="note_pre" /></g><g c_partid="part_pcbtext" c_etype="" c_origin="4262.5,3197.5" c_rotation="0" c_mirror="0" id="gge229" locked="0" layerid="3" c_shapetype="group" display="none"><path c_fontsize="4.5" c_fontfamily="" c_text="LED-TH-3mm_R" d="M 4262.5001 3192.9597 L 4262.5001 3197.2497 M 4262.5001 3197.2497 L 4264.9501 3197.2497 M 4266.3001 3192.9597 L 4266.3001 3197.2497 M 4266.3001 3192.9597 L 4268.9601 3192.9597 M 4266.3001 3194.9997 L 4267.9401 3194.9997 M 4266.3001 3197.2497 L 4268.9601 3197.2497 M 4270.3101 3192.9597 L 4270.3101 3197.2497 M 4270.3101 3192.9597 L 4271.7501 3192.9597 L 4272.3601 3193.1597 L 4272.7701 3193.5697 L 4272.9701 3193.9797 L 4273.1801 3194.5997 L 4273.1801 3195.6197 L 4272.9701 3196.2297 L 4272.7701 3196.6397 L 4272.3601 3197.0497 L 4271.7501 3197.2497 L 4270.3101 3197.2497 M 4274.5301 3195.4097 L 4278.2101 3195.4097 M 4280.9901 3192.9597 L 4280.9901 3197.2497 M 4279.5601 3192.9597 L 4282.4201 3192.9597 M 4283.7701 3192.9597 L 4283.7701 3197.2497 M 4286.6401 3192.9597 L 4286.6401 3197.2497 M 4283.7701 3194.9997 L 4286.6401 3194.9997 M 4287.9901 3195.4097 L 4291.6701 3195.4097 M 4293.4301 3192.9597 L 4295.6801 3192.9597 L 4294.4501 3194.5997 L 4295.0601 3194.5997 L 4295.4701 3194.7997 L 4295.6801 3194.9997 L 4295.8801 3195.6197 L 4295.8801 3196.0297 L 4295.6801 3196.6397 L 4295.2701 3197.0497 L 4294.6501 3197.2497 L 4294.0401 3197.2497 L 4293.4301 3197.0497 L 4293.2201 3196.8497 L 4293.0201 3196.4397 M 4297.2301 3194.3897 L 4297.2301 3197.2497 M 4297.2301 3195.2097 L 4297.8501 3194.5997 L 4298.2501 3194.3897 L 4298.8701 3194.3897 L 4299.2801 3194.5997 L 4299.4801 3195.2097 L 4299.4801 3197.2497 M 4299.4801 3195.2097 L 4300.1001 3194.5997 L 4300.5001 3194.3897 L 4301.1201 3194.3897 L 4301.5301 3194.5997 L 4301.7301 3195.2097 L 4301.7301 3197.2497 M 4303.0801 3194.3897 L 4303.0801 3197.2497 M 4303.0801 3195.2097 L 4303.7001 3194.5997 L 4304.1001 3194.3897 L 4304.7201 3194.3897 L 4305.1301 3194.5997 L 4305.3301 3195.2097 L 4305.3301 3197.2497 M 4305.3301 3195.2097 L 4305.9501 3194.5997 L 4306.3501 3194.3897 L 4306.9701 3194.3897 L 4307.3801 3194.5997 L 4307.5801 3195.2097 L 4307.5801 3197.2497 M 4308.9301 3198.6897 L 4312.6101 3198.6897 M 4313.9601 3192.9597 L 4313.9601 3197.2497 M 4313.9601 3192.9597 L 4315.8001 3192.9597 L 4316.4201 3193.1597 L 4316.6201 3193.3697 L 4316.8301 3193.7797 L 4316.8301 3194.1897 L 4316.6201 3194.5997 L 4316.4201 3194.7997 L 4315.8001 3194.9997 L 4313.9601 3194.9997 M 4315.4001 3194.9997 L 4316.8301 3197.2497" fill="none"  stroke-width="0.6" c_note="note_name" /></g><g c_partid="part_pcbtext" c_etype="" c_origin="4262.5,3204.5" c_rotation="0" c_mirror="0" id="gge231" locked="0" layerid="3" c_shapetype="group" ><path c_fontsize="4.5" c_fontfamily="" c_text="LED1" d="M 4262.5001 3199.9597 L 4262.5001 3204.2497 M 4262.5001 3204.2497 L 4264.9501 3204.2497 M 4266.3001 3199.9597 L 4266.3001 3204.2497 M 4266.3001 3199.9597 L 4268.9601 3199.9597 M 4266.3001 3201.9997 L 4267.9401 3201.9997 M 4266.3001 3204.2497 L 4268.9601 3204.2497 M 4270.3101 3199.9597 L 4270.3101 3204.2497 M 4270.3101 3199.9597 L 4271.7501 3199.9597 L 4272.3601 3200.1597 L 4272.7701 3200.5697 L 4272.9701 3200.9797 L 4273.1801 3201.5997 L 4273.1801 3202.6197 L 4272.9701 3203.2297 L 4272.7701 3203.6397 L 4272.3601 3204.0497 L 4271.7501 3204.2497 L 4270.3101 3204.2497 M 4274.5301 3200.7797 L 4274.9401 3200.5697 L 4275.5501 3199.9597 L 4275.5501 3204.2497" fill="none"  stroke-width="0.6" c_note="note_pre" /></g><g c_partid="part_pcbtext" c_etype="" c_origin="4217.88,3253.29" c_rotation="0" c_mirror="0" id="gge249" locked="0" layerid="3" c_shapetype="group" display="none"><path c_fontsize="4.5" c_fontfamily="" c_text="1k" d="M 4217.88 3249.5697 L 4218.29 3249.3597 L 4218.9 3248.7497 L 4218.9 3253.0397 M 4220.25 3248.7497 L 4220.25 3253.0397 M 4222.3 3250.1797 L 4220.25 3252.2297 M 4221.07 3251.4097 L 4222.5 3253.0397" fill="none"  stroke-width="0.6" c_note="note_name" /></g><g c_partid="part_pcbtext" c_etype="" c_origin="4222.5,3241.5" c_rotation="180" c_mirror="0" id="gge251" locked="0" layerid="3" c_shapetype="group" ><path c_fontsize="4.5" c_fontfamily="" c_text="R1" d="M 4222.5001 3246.0397 L 4222.5001 3241.7497 M 4222.5001 3246.0397 L 4220.6601 3246.0397 L 4220.0501 3245.8397 L 4219.8401 3245.6297 L 4219.6401 3245.2197 L 4219.6401 3244.8097 L 4219.8401 3244.3997 L 4220.0501 3244.1997 L 4220.6601 3243.9997 L 4222.5001 3243.9997 M 4221.0701 3243.9997 L 4219.6401 3241.7497 M 4218.2901 3245.2197 L 4217.8801 3245.4297 L 4217.2601 3246.0397 L 4217.2601 3241.7497" fill="none"  stroke-width="0.6" c_note="note_pre" /></g><g c_partid="part_pcbtext" c_etype="" c_origin="4219.38,3271.79" c_rotation="0" c_mirror="0" id="gge275" locked="0" layerid="3" c_shapetype="group" display="none"><path c_fontsize="4.5" c_fontfamily="" c_text="1k" d="M 4219.38 3268.0697 L 4219.79 3267.8597 L 4220.4 3267.2497 L 4220.4 3271.5397 M 4221.75 3267.2497 L 4221.75 3271.5397 M 4223.8 3268.6797 L 4221.75 3270.7297 M 4222.57 3269.9097 L 4224 3271.5397" fill="none"  stroke-width="0.6" c_note="note_name" /></g><g c_partid="part_pcbtext" c_etype="" c_origin="4224,3260" c_rotation="180" c_mirror="0" id="gge277" locked="0" layerid="3" c_shapetype="group" ><path c_fontsize="4.5" c_fontfamily="" c_text="R2" d="M 4224.0001 3264.5397 L 4224.0001 3260.2497 M 4224.0001 3264.5397 L 4222.1601 3264.5397 L 4221.5501 3264.3397 L 4221.3401 3264.1297 L 4221.1401 3263.7197 L 4221.1401 3263.3097 L 4221.3401 3262.8997 L 4221.5501 3262.6997 L 4222.1601 3262.4997 L 4224.0001 3262.4997 M 4222.5701 3262.4997 L 4221.1401 3260.2497 M 4219.5801 3263.5197 L 4219.5801 3263.7197 L 4219.3801 3264.1297 L 4219.1701 3264.3397 L 4218.7601 3264.5397 L 4217.9501 3264.5397 L 4217.5401 3264.3397 L 4217.3301 3264.1297 L 4217.1301 3263.7197 L 4217.1301 3263.3097 L 4217.3301 3262.8997 L 4217.7401 3262.2897 L 4219.7901 3260.2497 L 4216.9201 3260.2497" fill="none"  stroke-width="0.6" c_note="note_pre" /></g><g c_partid="part_pcbtext" c_etype="" c_origin="4224.75,3128.5" c_rotation="0" c_mirror="0" id="gge301" locked="0" layerid="3" c_shapetype="group" display="none"><path c_fontsize="4.5" c_fontfamily="" c_text="1N4007" d="M 4224.7499 3124.7798 L 4225.1599 3124.5698 L 4225.7699 3123.9598 L 4225.7699 3128.2498 M 4227.1199 3123.9598 L 4227.1199 3128.2498 M 4227.1199 3123.9598 L 4229.9899 3128.2498 M 4229.9899 3123.9598 L 4229.9899 3128.2498 M 4233.3799 3123.9598 L 4231.3399 3126.8198 L 4234.3999 3126.8198 M 4233.3799 3123.9598 L 4233.3799 3128.2498 M 4236.9799 3123.9598 L 4236.3699 3124.1598 L 4235.9599 3124.7798 L 4235.7499 3125.7998 L 4235.7499 3126.4098 L 4235.9599 3127.4398 L 4236.3699 3128.0498 L 4236.9799 3128.2498 L 4237.3899 3128.2498 L 4237.9999 3128.0498 L 4238.4099 3127.4398 L 4238.6199 3126.4098 L 4238.6199 3125.7998 L 4238.4099 3124.7798 L 4237.9999 3124.1598 L 4237.3899 3123.9598 L 4236.9799 3123.9598 M 4241.1999 3123.9598 L 4240.5799 3124.1598 L 4240.1699 3124.7798 L 4239.9699 3125.7998 L 4239.9699 3126.4098 L 4240.1699 3127.4398 L 4240.5799 3128.0498 L 4241.1999 3128.2498 L 4241.5999 3128.2498 L 4242.2199 3128.0498 L 4242.6299 3127.4398 L 4242.8299 3126.4098 L 4242.8299 3125.7998 L 4242.6299 3124.7798 L 4242.2199 3124.1598 L 4241.5999 3123.9598 L 4241.1999 3123.9598 M 4247.0499 3123.9598 L 4244.9999 3128.2498 M 4244.1799 3123.9598 L 4247.0499 3123.9598" fill="none"  stroke-width="0.6" c_note="note_name" /></g><g c_partid="part_pcbtext" c_etype="" c_origin="4224.75,3135.5" c_rotation="0" c_mirror="0" id="gge303" locked="0" layerid="3" c_shapetype="group" ><path c_fontsize="4.5" c_fontfamily="" c_text="D2" d="M 4224.7501 3130.9597 L 4224.7501 3135.2497 M 4224.7501 3130.9597 L 4226.1801 3130.9597 L 4226.8001 3131.1597 L 4227.2001 3131.5697 L 4227.4101 3131.9797 L 4227.6101 3132.5997 L 4227.6101 3133.6197 L 4227.4101 3134.2297 L 4227.2001 3134.6397 L 4226.8001 3135.0497 L 4226.1801 3135.2497 L 4224.7501 3135.2497 M 4229.1701 3131.9797 L 4229.1701 3131.7797 L 4229.3701 3131.3697 L 4229.5801 3131.1597 L 4229.9901 3130.9597 L 4230.8001 3130.9597 L 4231.2101 3131.1597 L 4231.4201 3131.3697 L 4231.6201 3131.7797 L 4231.6201 3132.1897 L 4231.4201 3132.5997 L 4231.0101 3133.2097 L 4228.9601 3135.2497 L 4231.8301 3135.2497" fill="none"  stroke-width="0.6" c_note="note_pre" /></g><g c_partid="part_pcbtext" c_etype="" c_origin="4203.451,3233.289" c_rotation="0" c_mirror="0" id="gge324" locked="0" layerid="3" c_shapetype="group" display="none"><path c_fontsize="4.5" c_fontfamily="" c_text="1N4007" d="M 4203.4506 3229.5693 L 4203.8606 3229.3593 L 4204.4706 3228.7493 L 4204.4706 3233.0393 M 4205.8206 3228.7493 L 4205.8206 3233.0393 M 4205.8206 3228.7493 L 4208.6906 3233.0393 M 4208.6906 3228.7493 L 4208.6906 3233.0393 M 4212.0806 3228.7493 L 4210.0406 3231.6093 L 4213.1006 3231.6093 M 4212.0806 3228.7493 L 4212.0806 3233.0393 M 4215.6806 3228.7493 L 4215.0706 3228.9493 L 4214.6606 3229.5693 L 4214.4506 3230.5893 L 4214.4506 3231.1993 L 4214.6606 3232.2293 L 4215.0706 3232.8393 L 4215.6806 3233.0393 L 4216.0906 3233.0393 L 4216.7006 3232.8393 L 4217.1106 3232.2293 L 4217.3206 3231.1993 L 4217.3206 3230.5893 L 4217.1106 3229.5693 L 4216.7006 3228.9493 L 4216.0906 3228.7493 L 4215.6806 3228.7493 M 4219.9006 3228.7493 L 4219.2806 3228.9493 L 4218.8706 3229.5693 L 4218.6706 3230.5893 L 4218.6706 3231.1993 L 4218.8706 3232.2293 L 4219.2806 3232.8393 L 4219.9006 3233.0393 L 4220.3006 3233.0393 L 4220.9206 3232.8393 L 4221.3306 3232.2293 L 4221.5306 3231.1993 L 4221.5306 3230.5893 L 4221.3306 3229.5693 L 4220.9206 3228.9493 L 4220.3006 3228.7493 L 4219.9006 3228.7493 M 4225.7506 3228.7493 L 4223.7006 3233.0393 M 4222.8806 3228.7493 L 4225.7506 3228.7493" fill="none"  stroke-width="0.6" c_note="note_name" /></g><g c_partid="part_pcbtext" c_etype="" c_origin="4225.75,3221.5" c_rotation="180" c_mirror="0" id="gge326" locked="0" layerid="3" c_shapetype="group" ><path c_fontsize="4.5" c_fontfamily="" c_text="D3" d="M 4225.7501 3226.0397 L 4225.7501 3221.7497 M 4225.7501 3226.0397 L 4224.3201 3226.0397 L 4223.7001 3225.8397 L 4223.3001 3225.4297 L 4223.0901 3225.0197 L 4222.8901 3224.3997 L 4222.8901 3223.3797 L 4223.0901 3222.7697 L 4223.3001 3222.3597 L 4223.7001 3221.9497 L 4224.3201 3221.7497 L 4225.7501 3221.7497 M 4221.1301 3226.0397 L 4218.8801 3226.0397 L 4220.1001 3224.3997 L 4219.4901 3224.3997 L 4219.0801 3224.1997 L 4218.8801 3223.9997 L 4218.6701 3223.3797 L 4218.6701 3222.9697 L 4218.8801 3222.3597 L 4219.2901 3221.9497 L 4219.9001 3221.7497 L 4220.5101 3221.7497 L 4221.1301 3221.9497 L 4221.3301 3222.1497 L 4221.5401 3222.5597" fill="none"  stroke-width="0.6" c_note="note_pre" /></g><g c_partid="part_pcbtext" c_etype="" c_origin="4202.451,3209.789" c_rotation="0" c_mirror="0" id="gge347" locked="0" layerid="3" c_shapetype="group" display="none"><path c_fontsize="4.5" c_fontfamily="" c_text="1N4007" d="M 4202.4506 3206.0693 L 4202.8606 3205.8593 L 4203.4706 3205.2493 L 4203.4706 3209.5393 M 4204.8206 3205.2493 L 4204.8206 3209.5393 M 4204.8206 3205.2493 L 4207.6906 3209.5393 M 4207.6906 3205.2493 L 4207.6906 3209.5393 M 4211.0806 3205.2493 L 4209.0406 3208.1093 L 4212.1006 3208.1093 M 4211.0806 3205.2493 L 4211.0806 3209.5393 M 4214.6806 3205.2493 L 4214.0706 3205.4493 L 4213.6606 3206.0693 L 4213.4506 3207.0893 L 4213.4506 3207.6993 L 4213.6606 3208.7293 L 4214.0706 3209.3393 L 4214.6806 3209.5393 L 4215.0906 3209.5393 L 4215.7006 3209.3393 L 4216.1106 3208.7293 L 4216.3206 3207.6993 L 4216.3206 3207.0893 L 4216.1106 3206.0693 L 4215.7006 3205.4493 L 4215.0906 3205.2493 L 4214.6806 3205.2493 M 4218.9006 3205.2493 L 4218.2806 3205.4493 L 4217.8706 3206.0693 L 4217.6706 3207.0893 L 4217.6706 3207.6993 L 4217.8706 3208.7293 L 4218.2806 3209.3393 L 4218.9006 3209.5393 L 4219.3006 3209.5393 L 4219.9206 3209.3393 L 4220.3306 3208.7293 L 4220.5306 3207.6993 L 4220.5306 3207.0893 L 4220.3306 3206.0693 L 4219.9206 3205.4493 L 4219.3006 3205.2493 L 4218.9006 3205.2493 M 4224.7506 3205.2493 L 4222.7006 3209.5393 M 4221.8806 3205.2493 L 4224.7506 3205.2493" fill="none"  stroke-width="0.6" c_note="note_name" /></g><g c_partid="part_pcbtext" c_etype="" c_origin="4224.75,3198" c_rotation="180" c_mirror="0" id="gge349" locked="0" layerid="3" c_shapetype="group" ><path c_fontsize="4.5" c_fontfamily="" c_text="D1" d="M 4224.7501 3202.5397 L 4224.7501 3198.2497 M 4224.7501 3202.5397 L 4223.3201 3202.5397 L 4222.7001 3202.3397 L 4222.3001 3201.9297 L 4222.0901 3201.5197 L 4221.8901 3200.8997 L 4221.8901 3199.8797 L 4222.0901 3199.2697 L 4222.3001 3198.8597 L 4222.7001 3198.4497 L 4223.3201 3198.2497 L 4224.7501 3198.2497 M 4220.5401 3201.7197 L 4220.1301 3201.9297 L 4219.5101 3202.5397 L 4219.5101 3198.2497" fill="none"  stroke-width="0.6" c_note="note_pre" /></g><g c_partid="part_pcbtext" c_etype="" c_origin="4224.75,3155" c_rotation="0" c_mirror="0" id="gge370" locked="0" layerid="3" c_shapetype="group" display="none"><path c_fontsize="4.5" c_fontfamily="" c_text="1N4007" d="M 4224.7495 3151.28 L 4225.1595 3151.07 L 4225.7695 3150.46 L 4225.7695 3154.75 M 4227.1195 3150.46 L 4227.1195 3154.75 M 4227.1195 3150.46 L 4229.9895 3154.75 M 4229.9895 3150.46 L 4229.9895 3154.75 M 4233.3795 3150.46 L 4231.3395 3153.32 L 4234.3995 3153.32 M 4233.3795 3150.46 L 4233.3795 3154.75 M 4236.9795 3150.46 L 4236.3695 3150.66 L 4235.9595 3151.28 L 4235.7495 3152.3 L 4235.7495 3152.91 L 4235.9595 3153.94 L 4236.3695 3154.55 L 4236.9795 3154.75 L 4237.3895 3154.75 L 4237.9995 3154.55 L 4238.4095 3153.94 L 4238.6195 3152.91 L 4238.6195 3152.3 L 4238.4095 3151.28 L 4237.9995 3150.66 L 4237.3895 3150.46 L 4236.9795 3150.46 M 4241.1995 3150.46 L 4240.5795 3150.66 L 4240.1695 3151.28 L 4239.9695 3152.3 L 4239.9695 3152.91 L 4240.1695 3153.94 L 4240.5795 3154.55 L 4241.1995 3154.75 L 4241.5995 3154.75 L 4242.2195 3154.55 L 4242.6295 3153.94 L 4242.8295 3152.91 L 4242.8295 3152.3 L 4242.6295 3151.28 L 4242.2195 3150.66 L 4241.5995 3150.46 L 4241.1995 3150.46 M 4247.0495 3150.46 L 4244.9995 3154.75 M 4244.1795 3150.46 L 4247.0495 3150.46" fill="none"  stroke-width="0.6" c_note="note_name" /></g><g c_partid="part_pcbtext" c_etype="" c_origin="4224.75,3162" c_rotation="0" c_mirror="0" id="gge372" locked="0" layerid="3" c_shapetype="group" ><path c_fontsize="4.5" c_fontfamily="" c_text="D5" d="M 4224.75 3157.46 L 4224.75 3161.75 M 4224.75 3157.46 L 4226.18 3157.46 L 4226.8 3157.66 L 4227.2 3158.07 L 4227.41 3158.48 L 4227.61 3159.1 L 4227.61 3160.12 L 4227.41 3160.73 L 4227.2 3161.14 L 4226.8 3161.55 L 4226.18 3161.75 L 4224.75 3161.75 M 4231.42 3157.46 L 4229.37 3157.46 L 4229.17 3159.3 L 4229.37 3159.1 L 4229.99 3158.89 L 4230.6 3158.89 L 4231.21 3159.1 L 4231.62 3159.5 L 4231.83 3160.12 L 4231.83 3160.53 L 4231.62 3161.14 L 4231.21 3161.55 L 4230.6 3161.75 L 4229.99 3161.75 L 4229.37 3161.55 L 4229.17 3161.35 L 4228.96 3160.94" fill="none"  stroke-width="0.6" c_note="note_pre" /></g><path d="M 4278.0396 3256.6197 A 2.12132 2.12132 0 1 0 4277.9996 3256.6197" locked="0"  fill="none" stroke-width="1" c_helper_type="arc2" net="" layerid="3" id="gge8" /><path d="M 4122.0001 3160.7097 A 0.49 0.49 0 1 0 4121.9901 3160.7097" locked="0"  fill="none" stroke-width="0.98" c_helper_type="arc2" net="" layerid="3" id="gge208" /><path d="M 4268.4821 3220.1197 A 7.874 7.874 0 1 0 4258.5021 3220.1197" locked="0"  fill="none" stroke-width="1" c_helper_type="arc2" net="" layerid="3" id="gge234" /><polyline points="4050.5 3128.5 4050.5 3128.5 4338.5 3128.5 4338.5 3280 4050 3280 4050.5 3128.5" stroke-width="1"  stroke-linecap="round" fill="none" layerid="10" net="" id="gge391" locked="0" /></svg>