<svg xmlns="http://www.w3.org/2000/svg" xmlns:xlink="http://www.w3.org/1999/xlink" width="51.054mm" height="40.767mm" viewBox="4010 3032 201 160.5"><title></title><style type="text/css">
*[layerid="1"] {stroke:#000000;fill:#000000;}
*[layerid="2"] {stroke:#000000;fill:#000000;}
*[layerid="3"] {stroke:#000000;fill:#000000;}
*[layerid="4"] {stroke:#000000;fill:#000000;}
*[layerid="5"] {stroke:#000000;fill:#000000;}
*[layerid="6"] {stroke:#000000;fill:#000000;}
*[layerid="7"] {stroke:#000000;fill:#000000;}
*[layerid="8"] {stroke:#000000;fill:#000000;}
*[layerid="9"] {stroke:#000000;fill:#000000;}
*[layerid="10"] {stroke:#000000;fill:#000000;}
*[layerid="11"] {stroke:#000000;fill:#000000;}
*[layerid="12"] {stroke:#000000;fill:#000000;}
*[layerid="13"] {stroke:#000000;fill:#000000;}
*[layerid="14"] {stroke:#000000;fill:#000000;}
*[layerid="15"] {stroke:#000000;fill:#000000;}
*[layerid="19"] {stroke:#000000;fill:#000000;}
*[layerid="21"] {stroke:#000000;fill:#000000;}
*[layerid="22"] {stroke:#000000;fill:#000000;}
*[layerid="23"] {stroke:#000000;fill:#000000;}
*[layerid="24"] {stroke:#000000;fill:#000000;}
*[layerid="25"] {stroke:#000000;fill:#000000;}
*[layerid="26"] {stroke:#000000;fill:#000000;}
*[layerid="27"] {stroke:#000000;fill:#000000;}
*[layerid="28"] {stroke:#000000;fill:#000000;}
*[layerid="29"] {stroke:#000000;fill:#000000;}
*[layerid="30"] {stroke:#000000;fill:#000000;}
*[layerid="31"] {stroke:#000000;fill:#000000;}
*[layerid="32"] {stroke:#000000;fill:#000000;}
*[layerid="33"] {stroke:#000000;fill:#000000;}
*[layerid="34"] {stroke:#000000;fill:#000000;}
*[layerid="35"] {stroke:#000000;fill:#000000;}
*[layerid="36"] {stroke:#000000;fill:#000000;}
*[layerid="37"] {stroke:#000000;fill:#000000;}
*[layerid="38"] {stroke:#000000;fill:#000000;}
*[layerid="39"] {stroke:#000000;fill:#000000;}
*[layerid="40"] {stroke:#000000;fill:#000000;}
*[layerid="41"] {stroke:#000000;fill:#000000;}
*[layerid="42"] {stroke:#000000;fill:#000000;}
*[layerid="43"] {stroke:#000000;fill:#000000;}
*[layerid="44"] {stroke:#000000;fill:#000000;}
*[layerid="45"] {stroke:#000000;fill:#000000;}
*[layerid="46"] {stroke:#000000;fill:#000000;}
*[layerid="47"] {stroke:#000000;fill:#000000;}
*[layerid="48"] {stroke:#000000;fill:#000000;}
*[layerid="49"] {stroke:#000000;fill:#000000;}
*[layerid="50"] {stroke:#000000;fill:#000000;}
*[layerid="51"] {stroke:#000000;fill:#000000;}
*[layerid="52"] {stroke:#000000;fill:#000000;}
*[layerid="99"] {stroke:#000000;fill:#000000;}
*[layerid="100"] {stroke:#000000;fill:#000000;}
*[layerid="Hole"] {stroke:#000000;fill:#000000;}
*[layerid="DRCError"] {stroke:#000000;fill:#000000;}
*[fill="none"] {fill: none;}
*[stroke="none"] {stroke: none;}
path, polyline, polygon, line {stroke-linecap:round;}
g[c_partid="part_pad"][layerid="1"] ellipse:not([c_etype="pad_outer"]) {fill:#000000;}
g[c_partid="part_pad"][layerid="1"] polygon:not([c_etype="pad_outer"]) {fill:#000000;}
g[c_partid="part_pad"][layerid="1"] polyline:not([c_etype="pad_outer"]) {stroke:#000000;}
g[c_partid="part_pad"][layerid="2"] ellipse:not([c_etype="pad_outer"]) {fill:#000000;}
g[c_partid="part_pad"][layerid="2"] polygon:not([c_etype="pad_outer"]) {fill:#000000;}
g[c_partid="part_pad"][layerid="2"] polyline:not([c_etype="pad_outer"]) {stroke:#000000;}
g[c_partid="part_pad"][layerid="11"] ellipse:not([c_etype="pad_outer"]) {fill:#000000;}
g[c_partid="part_pad"][layerid="11"] polygon:not([c_etype="pad_outer"]) {fill:#000000;}
g[c_partid="part_pad"][layerid="11"] polyline:not([c_etype="pad_outer"]) {stroke:#000000;}
g[c_partid="part_pad"][layerid="11"] circle {fill:#FFFFFF;}
g[c_partid="part_pad"][layerid="11"] > polyline:nth-of-type(2) {stroke:#FFFFFF;}
g[c_partid="part_pad"][layerid="11"][c_shape="ELLIPSE"]  polyline:nth-last-of-type(1) {stroke:#FFFFFF;}
g[c_partid="part_pad"][layerid="11"][c_shape="RECT"]  polyline:nth-last-of-type(1) {stroke:#FFFFFF;}
g[c_partid="part_pad"][layerid="11"][c_shape="POLYGON"]  polyline:nth-last-of-type(1) {stroke:#FFFFFF;}
g[c_partid="part_via"] > * + circle, #gCurParts g[c_partid="part_via"] > * + circle {fill:#FFFFFF;}
g[c_partid="part_pad"] > polygon[c_etype="pad_outer"], #gCurParts g[c_partid="part_pad"] > polygon[c_etype="pad_outer"] {stroke-linejoin: miter;stroke-miterlimit: 100;}
g[c_partid="part_hole"] > circle {fill: #FFFFFF;}path, polyline, polygon {stroke-linejoin:round;}
rect, circle, ellipse, polyline, line, polygon, path {shape-rendering:crispEdges;}
</style>
<rect x="4010" y="3032" width="201" height="160.5" fill="#FFFFFF" stroke="none"/><g c_partid="part_pad" c_etype="pinpart" c_origin="4040.14,3066.5" layerid="11" number="1" net="Q1_1" plated ="Y"  id="gge15" locked="0" c_rotation="0" c_width="7.874" c_height="7.874" title="Q1_1" c_shape="ELLIPSE" pasteexpansion="0" solderexpansion="0.4"><ellipse c_etype="pad_shell" cx="4040.14" cy="3066.5" rx="3.937" ry="3.937" layerid="11" stroke-width="0"/><circle c_etype="pad_hole" cx="4040.14" cy="3066.5" r="2.5591" layerid="11" stroke-width="0"/></g><g c_partid="part_pad" c_etype="pinpart" c_origin="4059.86,3066.5" layerid="11" number="2" net="Q1_1" plated ="Y"  id="gge20" locked="0" c_rotation="0" c_width="7.874" c_height="7.874" title="Q1_1" c_shape="ELLIPSE" pasteexpansion="0" solderexpansion="0.4"><ellipse c_etype="pad_shell" cx="4059.86" cy="3066.5" rx="3.937" ry="3.937" layerid="11" stroke-width="0"/><circle c_etype="pad_hole" cx="4059.86" cy="3066.5" r="2.5591" layerid="11" stroke-width="0"/></g><g c_partid="part_pad" c_etype="pinpart" c_origin="4095.64,3066.5" layerid="11" number="1" net="P2_1" plated ="Y"  id="gge39" locked="0" c_rotation="0" c_width="7.874" c_height="7.874" title="P2_1" c_shape="ELLIPSE" pasteexpansion="0" solderexpansion="0.4"><ellipse c_etype="pad_shell" cx="4095.64" cy="3066.5" rx="3.937" ry="3.937" layerid="11" stroke-width="0"/><circle c_etype="pad_hole" cx="4095.64" cy="3066.5" r="2.5591" layerid="11" stroke-width="0"/></g><g c_partid="part_pad" c_etype="pinpart" c_origin="4115.36,3066.5" layerid="11" number="2" net="P2_1" plated ="Y"  id="gge44" locked="0" c_rotation="0" c_width="7.874" c_height="7.874" title="P2_1" c_shape="ELLIPSE" pasteexpansion="0" solderexpansion="0.4"><ellipse c_etype="pad_shell" cx="4115.36" cy="3066.5" rx="3.937" ry="3.937" layerid="11" stroke-width="0"/><circle c_etype="pad_hole" cx="4115.36" cy="3066.5" r="2.5591" layerid="11" stroke-width="0"/></g><g c_partid="part_pad" c_etype="pinpart" c_origin="4154.14,3065" layerid="11" number="1" net="Q1_2" plated ="Y"  id="gge63" locked="0" c_rotation="0" c_width="7.874" c_height="7.874" title="Q1_2" c_shape="ELLIPSE" pasteexpansion="0" solderexpansion="0.4"><ellipse c_etype="pad_shell" cx="4154.14" cy="3065" rx="3.937" ry="3.937" layerid="11" stroke-width="0"/><circle c_etype="pad_hole" cx="4154.14" cy="3065" r="2.5591" layerid="11" stroke-width="0"/></g><g c_partid="part_pad" c_etype="pinpart" c_origin="4173.86,3065" layerid="11" number="2" net="Q1_2" plated ="Y"  id="gge68" locked="0" c_rotation="0" c_width="7.874" c_height="7.874" title="Q1_2" c_shape="ELLIPSE" pasteexpansion="0" solderexpansion="0.4"><ellipse c_etype="pad_shell" cx="4173.86" cy="3065" rx="3.937" ry="3.937" layerid="11" stroke-width="0"/><circle c_etype="pad_hole" cx="4173.86" cy="3065" r="2.5591" layerid="11" stroke-width="0"/></g><g c_partid="part_pad" c_etype="pinpart" c_origin="4152,3102.5" layerid="11" number="1" net="Q1_2" plated ="Y"  id="gge82" locked="0" c_rotation="0" c_width="4.7" c_height="4.7" title="Q1_2" c_shape="ELLIPSE" pasteexpansion="0" solderexpansion="0.4"><ellipse c_etype="pad_shell" cx="4152" cy="3102.5" rx="2.35" ry="2.35" layerid="11" stroke-width="0"/><circle c_etype="pad_hole" cx="4152" cy="3102.5" r="1.4" layerid="11" stroke-width="0"/></g><g c_partid="part_pad" c_etype="pinpart" c_origin="4162,3102.5" layerid="11" number="2" net="R2_1" plated ="Y"  id="gge87" locked="0" c_rotation="0" c_width="4.7" c_height="4.7" title="R2_1" c_shape="ELLIPSE" pasteexpansion="0" solderexpansion="0.4"><ellipse c_etype="pad_shell" cx="4162" cy="3102.5" rx="2.35" ry="2.35" layerid="11" stroke-width="0"/><circle c_etype="pad_hole" cx="4162" cy="3102.5" r="1.4" layerid="11" stroke-width="0"/></g><g c_partid="part_pad" c_etype="pinpart" c_origin="4068.5,3165.5" layerid="11" number="1" net="J2_1" plated ="Y"  id="gge102" locked="0" c_rotation="270" c_width="6.2" c_height="6.2" title="J2_1" c_shape="RECT" pasteexpansion="0" solderexpansion="0.4"><polygon  c_etype="pad_shell" points="4071.6 3162.4 4071.6 3168.6 4065.4 3168.6 4065.4 3162.4" layerid="11" stroke-width="0" /><circle c_etype="pad_hole" cx="4068.5" cy="3165.5" r="1.75" layerid="11" stroke-width="0"/></g><g c_partid="part_pad" c_etype="pinpart" c_origin="4102.5,3165.5" layerid="11" number="1" net="J1_1" plated ="Y"  id="gge114" locked="0" c_rotation="270" c_width="6.2" c_height="6.2" title="J1_1" c_shape="RECT" pasteexpansion="0" solderexpansion="0.4"><polygon  c_etype="pad_shell" points="4105.6 3162.4 4105.6 3168.6 4099.4 3168.6 4099.4 3162.4" layerid="11" stroke-width="0" /><circle c_etype="pad_hole" cx="4102.5" cy="3165.5" r="1.75" layerid="11" stroke-width="0"/></g><g c_partid="part_pad" c_etype="pinpart" c_origin="4170.5,3154" layerid="11" number="1" net="Q1_3" plated ="Y"  id="gge135" locked="0" c_rotation="180" c_width="7.4" c_height="7.4" title="Q1_3" c_shape="ELLIPSE" pasteexpansion="0" solderexpansion="0.4"><ellipse c_etype="pad_shell" cx="4170.5" cy="3154" rx="3.7" ry="3.7" layerid="11" stroke-width="0"/><circle c_etype="pad_hole" cx="4170.5" cy="3154" r="1.77" layerid="11" stroke-width="0"/></g><g c_partid="part_pad" c_etype="pinpart" c_origin="4140.5,3154" layerid="11" number="2" net="Q1_2" plated ="Y"  id="gge140" locked="0" c_rotation="180" c_width="7.4" c_height="7.4" title="Q1_2" c_shape="ELLIPSE" pasteexpansion="0" solderexpansion="0.4"><ellipse c_etype="pad_shell" cx="4140.5" cy="3154" rx="3.7" ry="3.7" layerid="11" stroke-width="0"/><circle c_etype="pad_hole" cx="4140.5" cy="3154" r="1.77" layerid="11" stroke-width="0"/></g><g c_partid="part_pad" c_etype="pinpart" c_origin="4173.5,3171" layerid="11" number="1" net="J1_1" plated ="Y"  id="gge161" locked="0" c_rotation="180" c_width="7.4" c_height="7.4" title="J1_1" c_shape="ELLIPSE" pasteexpansion="0" solderexpansion="0.4"><ellipse c_etype="pad_shell" cx="4173.5" cy="3171" rx="3.7" ry="3.7" layerid="11" stroke-width="0"/><circle c_etype="pad_hole" cx="4173.5" cy="3171" r="1.77" layerid="11" stroke-width="0"/></g><g c_partid="part_pad" c_etype="pinpart" c_origin="4143.5,3171" layerid="11" number="2" net="R5_2" plated ="Y"  id="gge166" locked="0" c_rotation="180" c_width="7.4" c_height="7.4" title="R5_2" c_shape="ELLIPSE" pasteexpansion="0" solderexpansion="0.4"><ellipse c_etype="pad_shell" cx="4143.5" cy="3171" rx="3.7" ry="3.7" layerid="11" stroke-width="0"/><circle c_etype="pad_hole" cx="4143.5" cy="3171" r="1.77" layerid="11" stroke-width="0"/></g><g c_partid="part_pad" c_etype="pinpart" c_origin="4171,3123" layerid="11" number="1" net="R1_1" plated ="Y"  id="gge187" locked="0" c_rotation="180" c_width="7.4" c_height="7.4" title="R1_1" c_shape="ELLIPSE" pasteexpansion="0" solderexpansion="0.4"><ellipse c_etype="pad_shell" cx="4171" cy="3123" rx="3.7" ry="3.7" layerid="11" stroke-width="0"/><circle c_etype="pad_hole" cx="4171" cy="3123" r="1.77" layerid="11" stroke-width="0"/></g><g c_partid="part_pad" c_etype="pinpart" c_origin="4141,3123" layerid="11" number="2" net="Q1_1" plated ="Y"  id="gge192" locked="0" c_rotation="180" c_width="7.4" c_height="7.4" title="Q1_1" c_shape="ELLIPSE" pasteexpansion="0" solderexpansion="0.4"><ellipse c_etype="pad_shell" cx="4141" cy="3123" rx="3.7" ry="3.7" layerid="11" stroke-width="0"/><circle c_etype="pad_hole" cx="4141" cy="3123" r="1.77" layerid="11" stroke-width="0"/></g><g c_partid="part_pad" c_etype="pinpart" c_origin="4174.5,3139" layerid="11" number="1" net="R2_1" plated ="Y"  id="gge213" locked="0" c_rotation="180" c_width="7.4" c_height="7.4" title="R2_1" c_shape="ELLIPSE" pasteexpansion="0" solderexpansion="0.4"><ellipse c_etype="pad_shell" cx="4174.5" cy="3139" rx="3.7" ry="3.7" layerid="11" stroke-width="0"/><circle c_etype="pad_hole" cx="4174.5" cy="3139" r="1.77" layerid="11" stroke-width="0"/></g><g c_partid="part_pad" c_etype="pinpart" c_origin="4144.5,3139" layerid="11" number="2" net="Q1_1" plated ="Y"  id="gge218" locked="0" c_rotation="180" c_width="7.4" c_height="7.4" title="Q1_1" c_shape="ELLIPSE" pasteexpansion="0" solderexpansion="0.4"><ellipse c_etype="pad_shell" cx="4144.5" cy="3139" rx="3.7" ry="3.7" layerid="11" stroke-width="0"/><circle c_etype="pad_hole" cx="4144.5" cy="3139" r="1.77" layerid="11" stroke-width="0"/></g><g c_partid="part_pad" c_etype="pinpart" c_origin="4050.5,3117" layerid="11" number="2" net="Q1_2" plated ="Y"  id="gge234" locked="0" c_rotation="90" c_width="7.874" c_height="9.8425" title="Q1_2" c_shape="OVAL" pasteexpansion="0" solderexpansion="0.4"><polyline  c_etype="pad_shell" points="4049.5158 3117 4051.4843 3117" layerid="11" stroke-width="7.874" /><circle c_etype="pad_hole" cx="4050.5" cy="3117" r="2.7559" layerid="11" stroke-width="0"/></g><g c_partid="part_pad" c_etype="pinpart" c_origin="4050.5,3107" layerid="11" number="3" net="Q1_3" plated ="Y"  id="gge239" locked="0" c_rotation="90" c_width="7.874" c_height="9.8425" title="Q1_3" c_shape="OVAL" pasteexpansion="0" solderexpansion="0.4"><polyline  c_etype="pad_shell" points="4049.5158 3107 4051.4843 3107" layerid="11" stroke-width="7.874" /><circle c_etype="pad_hole" cx="4050.5" cy="3107" r="2.7559" layerid="11" stroke-width="0"/></g><g c_partid="part_pad" c_etype="pinpart" c_origin="4050.5,3127" layerid="11" number="1" net="Q1_1" plated ="Y"  id="gge244" locked="0" c_rotation="90" c_width="7.874" c_height="9.8425" title="Q1_1" c_shape="RECT" pasteexpansion="0" solderexpansion="0.4"><polygon  c_etype="pad_shell" points="4045.58 3130.94 4045.58 3123.06 4055.42 3123.06 4055.42 3130.94" layerid="11" stroke-width="0" /><circle c_etype="pad_hole" cx="4050.5" cy="3127" r="2.7559" layerid="11" stroke-width="0"/></g><g c_partid="part_pad" c_etype="pinpart" c_origin="4115,3104.5" layerid="11" number="1" net="R5_2" plated ="Y"  id="gge261" locked="0" c_rotation="270" c_width="7.0866" c_height="7.0866" title="R5_2" c_shape="RECT" pasteexpansion="0" solderexpansion="0.4"><polygon  c_etype="pad_shell" points="4118.5433 3100.9567 4118.5433 3108.0433 4111.4567 3108.0433 4111.4567 3100.9567" layerid="11" stroke-width="0" /><circle c_etype="pad_hole" cx="4115" cy="3104.5" r="1.9685" layerid="11" stroke-width="0"/></g><g c_partid="part_pad" c_etype="pinpart" c_origin="4105,3104.5" layerid="11" number="2" net="J2_1" plated ="Y"  id="gge266" locked="0" c_rotation="270" c_width="7.0866" c_height="7.0866" title="J2_1" c_shape="ELLIPSE" pasteexpansion="0" solderexpansion="0.4"><ellipse c_etype="pad_shell" cx="4105" cy="3104.5" rx="3.5433" ry="3.5433" layerid="11" stroke-width="0"/><circle c_etype="pad_hole" cx="4105" cy="3104.5" r="1.9685" layerid="11" stroke-width="0"/></g><g c_partid="part_pad" c_etype="pinpart" c_origin="4095,3104.5" layerid="11" number="3" net="U2_3" plated ="Y"  id="gge271" locked="0" c_rotation="270" c_width="7.0866" c_height="7.0866" title="U2_3" c_shape="ELLIPSE" pasteexpansion="0" solderexpansion="0.4"><ellipse c_etype="pad_shell" cx="4095" cy="3104.5" rx="3.5433" ry="3.5433" layerid="11" stroke-width="0"/><circle c_etype="pad_hole" cx="4095" cy="3104.5" r="1.9685" layerid="11" stroke-width="0"/></g><g c_partid="part_pad" c_etype="pinpart" c_origin="4115,3134.5" layerid="11" number="6" net="R1_1" plated ="Y"  id="gge276" locked="0" c_rotation="270" c_width="7.0866" c_height="7.0866" title="R1_1" c_shape="ELLIPSE" pasteexpansion="0" solderexpansion="0.4"><ellipse c_etype="pad_shell" cx="4115" cy="3134.5" rx="3.5433" ry="3.5433" layerid="11" stroke-width="0"/><circle c_etype="pad_hole" cx="4115" cy="3134.5" r="1.9685" layerid="11" stroke-width="0"/></g><g c_partid="part_pad" c_etype="pinpart" c_origin="4105,3134.5" layerid="11" number="5" net="U2_5" plated ="Y"  id="gge281" locked="0" c_rotation="270" c_width="7.0866" c_height="7.0866" title="U2_5" c_shape="ELLIPSE" pasteexpansion="0" solderexpansion="0.4"><ellipse c_etype="pad_shell" cx="4105" cy="3134.5" rx="3.5433" ry="3.5433" layerid="11" stroke-width="0"/><circle c_etype="pad_hole" cx="4105" cy="3134.5" r="1.9685" layerid="11" stroke-width="0"/></g><g c_partid="part_pad" c_etype="pinpart" c_origin="4095,3134.5" layerid="11" number="4" net="Q1_3" plated ="Y"  id="gge286" locked="0" c_rotation="270" c_width="7.0866" c_height="7.0866" title="Q1_3" c_shape="ELLIPSE" pasteexpansion="0" solderexpansion="0.4"><ellipse c_etype="pad_shell" cx="4095" cy="3134.5" rx="3.5433" ry="3.5433" layerid="11" stroke-width="0"/><circle c_etype="pad_hole" cx="4095" cy="3134.5" r="1.9685" layerid="11" stroke-width="0"/></g><polyline points="4070.493 3049.844 4070.493 3085.277" stroke-width="1"  stroke-linecap="round" fill="none" layerid="3" net="" id="gge7" locked="0" /><polyline points="4029.155 3049.962 4029.155 3085.395" stroke-width="1"  stroke-linecap="round" fill="none" layerid="3" net="" id="gge8" locked="0" /><polyline points="4029.155 3049.844 4070.493 3049.844" stroke-width="1"  stroke-linecap="round" fill="none" layerid="3" net="" id="gge9" locked="0" /><polyline points="4029.037 3057.048 4070.375 3057.048" stroke-width="1"  stroke-linecap="round" fill="none" layerid="3" net="" id="gge10" locked="0" /><polyline points="4029.155 3052.206 4070.493 3052.206" stroke-width="1"  stroke-linecap="round" fill="none" layerid="3" net="" id="gge11" locked="0" /><polyline points="4029.155 3085.395 4070.493 3085.395" stroke-width="1"  stroke-linecap="round" fill="none" layerid="3" net="" id="gge12" locked="0" /><polyline points="4125.993 3049.844 4125.993 3085.277" stroke-width="1"  stroke-linecap="round" fill="none" layerid="3" net="" id="gge31" locked="0" /><polyline points="4084.655 3049.962 4084.655 3085.395" stroke-width="1"  stroke-linecap="round" fill="none" layerid="3" net="" id="gge32" locked="0" /><polyline points="4084.655 3049.844 4125.993 3049.844" stroke-width="1"  stroke-linecap="round" fill="none" layerid="3" net="" id="gge33" locked="0" /><polyline points="4084.537 3057.048 4125.875 3057.048" stroke-width="1"  stroke-linecap="round" fill="none" layerid="3" net="" id="gge34" locked="0" /><polyline points="4084.655 3052.206 4125.993 3052.206" stroke-width="1"  stroke-linecap="round" fill="none" layerid="3" net="" id="gge35" locked="0" /><polyline points="4084.655 3085.395 4125.993 3085.395" stroke-width="1"  stroke-linecap="round" fill="none" layerid="3" net="" id="gge36" locked="0" /><polyline points="4184.493 3048.344 4184.493 3083.777" stroke-width="1"  stroke-linecap="round" fill="none" layerid="3" net="" id="gge55" locked="0" /><polyline points="4143.155 3048.462 4143.155 3083.895" stroke-width="1"  stroke-linecap="round" fill="none" layerid="3" net="" id="gge56" locked="0" /><polyline points="4143.155 3048.344 4184.493 3048.344" stroke-width="1"  stroke-linecap="round" fill="none" layerid="3" net="" id="gge57" locked="0" /><polyline points="4143.037 3055.548 4184.375 3055.548" stroke-width="1"  stroke-linecap="round" fill="none" layerid="3" net="" id="gge58" locked="0" /><polyline points="4143.155 3050.706 4184.493 3050.706" stroke-width="1"  stroke-linecap="round" fill="none" layerid="3" net="" id="gge59" locked="0" /><polyline points="4143.155 3083.895 4184.493 3083.895" stroke-width="1"  stroke-linecap="round" fill="none" layerid="3" net="" id="gge60" locked="0" /><polyline points="4166.99 3097.51 4146.99 3097.51 4146.99 3107.51 4166.99 3107.51 4166.99 3097.51" stroke-width="0.79"  stroke-linecap="round" fill="none" layerid="3" net="" id="gge79" locked="0" /><polyline points="4073.5 3170.5 4063.5 3170.5 4063.5 3160.5 4073.5 3160.5 4073.5 3168" stroke-width="0.8"  stroke-linecap="round" fill="none" layerid="3" net="" id="gge98" locked="0" /><polyline points="4073.5 3170.5 4073.5 3168" stroke-width="0.79921"  stroke-linecap="round" fill="none" layerid="3" net="" id="gge99" locked="0" /><polyline points="4107.5 3170.5 4097.5 3170.5 4097.5 3160.5 4107.5 3160.5 4107.5 3168" stroke-width="0.8"  stroke-linecap="round" fill="none" layerid="3" net="" id="gge110" locked="0" /><polyline points="4107.5 3170.5 4107.5 3168" stroke-width="0.79921"  stroke-linecap="round" fill="none" layerid="3" net="" id="gge111" locked="0" /><polyline points="4165.5 3154 4166.5 3154" stroke-width="1"  stroke-linecap="round" fill="none" layerid="3" net="" id="gge125" locked="0" /><polyline points="4145.5 3154 4144.5 3154" stroke-width="1"  stroke-linecap="round" fill="none" layerid="3" net="" id="gge126" locked="0" /><polyline points="4165.5 3154 4165.5 3157" stroke-width="1"  stroke-linecap="round" fill="none" layerid="3" net="" id="gge127" locked="0" /><polyline points="4165.5 3151 4165.5 3154" stroke-width="1"  stroke-linecap="round" fill="none" layerid="3" net="" id="gge128" locked="0" /><polyline points="4145.5 3151 4165.5 3151" stroke-width="1"  stroke-linecap="round" fill="none" layerid="3" net="" id="gge129" locked="0" /><polyline points="4145.5 3154 4145.5 3151" stroke-width="1"  stroke-linecap="round" fill="none" layerid="3" net="" id="gge130" locked="0" /><polyline points="4145.5 3157 4145.5 3154" stroke-width="1"  stroke-linecap="round" fill="none" layerid="3" net="" id="gge131" locked="0" /><polyline points="4165.5 3157 4145.5 3157" stroke-width="1"  stroke-linecap="round" fill="none" layerid="3" net="" id="gge132" locked="0" /><polyline points="4168.5 3171 4169.5 3171" stroke-width="1"  stroke-linecap="round" fill="none" layerid="3" net="" id="gge151" locked="0" /><polyline points="4148.5 3171 4147.5 3171" stroke-width="1"  stroke-linecap="round" fill="none" layerid="3" net="" id="gge152" locked="0" /><polyline points="4168.5 3171 4168.5 3174" stroke-width="1"  stroke-linecap="round" fill="none" layerid="3" net="" id="gge153" locked="0" /><polyline points="4168.5 3168 4168.5 3171" stroke-width="1"  stroke-linecap="round" fill="none" layerid="3" net="" id="gge154" locked="0" /><polyline points="4148.5 3168 4168.5 3168" stroke-width="1"  stroke-linecap="round" fill="none" layerid="3" net="" id="gge155" locked="0" /><polyline points="4148.5 3171 4148.5 3168" stroke-width="1"  stroke-linecap="round" fill="none" layerid="3" net="" id="gge156" locked="0" /><polyline points="4148.5 3174 4148.5 3171" stroke-width="1"  stroke-linecap="round" fill="none" layerid="3" net="" id="gge157" locked="0" /><polyline points="4168.5 3174 4148.5 3174" stroke-width="1"  stroke-linecap="round" fill="none" layerid="3" net="" id="gge158" locked="0" /><polyline points="4166 3123 4167 3123" stroke-width="1"  stroke-linecap="round" fill="none" layerid="3" net="" id="gge177" locked="0" /><polyline points="4146 3123 4145 3123" stroke-width="1"  stroke-linecap="round" fill="none" layerid="3" net="" id="gge178" locked="0" /><polyline points="4166 3123 4166 3126" stroke-width="1"  stroke-linecap="round" fill="none" layerid="3" net="" id="gge179" locked="0" /><polyline points="4166 3120 4166 3123" stroke-width="1"  stroke-linecap="round" fill="none" layerid="3" net="" id="gge180" locked="0" /><polyline points="4146 3120 4166 3120" stroke-width="1"  stroke-linecap="round" fill="none" layerid="3" net="" id="gge181" locked="0" /><polyline points="4146 3123 4146 3120" stroke-width="1"  stroke-linecap="round" fill="none" layerid="3" net="" id="gge182" locked="0" /><polyline points="4146 3126 4146 3123" stroke-width="1"  stroke-linecap="round" fill="none" layerid="3" net="" id="gge183" locked="0" /><polyline points="4166 3126 4146 3126" stroke-width="1"  stroke-linecap="round" fill="none" layerid="3" net="" id="gge184" locked="0" /><polyline points="4169.5 3139 4170.5 3139" stroke-width="1"  stroke-linecap="round" fill="none" layerid="3" net="" id="gge203" locked="0" /><polyline points="4149.5 3139 4148.5 3139" stroke-width="1"  stroke-linecap="round" fill="none" layerid="3" net="" id="gge204" locked="0" /><polyline points="4169.5 3139 4169.5 3142" stroke-width="1"  stroke-linecap="round" fill="none" layerid="3" net="" id="gge205" locked="0" /><polyline points="4169.5 3136 4169.5 3139" stroke-width="1"  stroke-linecap="round" fill="none" layerid="3" net="" id="gge206" locked="0" /><polyline points="4149.5 3136 4169.5 3136" stroke-width="1"  stroke-linecap="round" fill="none" layerid="3" net="" id="gge207" locked="0" /><polyline points="4149.5 3139 4149.5 3136" stroke-width="1"  stroke-linecap="round" fill="none" layerid="3" net="" id="gge208" locked="0" /><polyline points="4149.5 3142 4149.5 3139" stroke-width="1"  stroke-linecap="round" fill="none" layerid="3" net="" id="gge209" locked="0" /><polyline points="4169.5 3142 4149.5 3142" stroke-width="1"  stroke-linecap="round" fill="none" layerid="3" net="" id="gge210" locked="0" /><polyline points="4041.445 3096.134 4041.445 3137.866" stroke-width="1"  stroke-linecap="round" fill="none" layerid="3" net="" id="gge229" locked="0" /><polyline points="4039.48 3137.87 4039.48 3096.13 4058.37 3096.13 4058.37 3137.87 4039.5 3137.87 4039.48 3137.87" stroke-width="1"  stroke-linecap="round" fill="none" layerid="3" net="" id="gge230" locked="0" /><polyline points="4122.81 3122 4122.81 3129.93 4087.28 3129.93 4087.28 3109.07 4122.81 3109.07 4122.81 3117" stroke-width="0.7874"  stroke-linecap="round" fill="none" layerid="3" net="" id="gge255" locked="0" /><g c_partid="part_pcbtext" c_etype="" c_origin="4049.06,3041.56" c_rotation="0" c_mirror="0" id="gge3" locked="0" layerid="3" c_shapetype="group" display="none"><path c_fontsize="4.5" c_fontfamily="" c_text="FASE DE ENTRADA" d="M 4049.06 3037.02 L 4049.06 3041.31 M 4049.06 3037.02 L 4051.72 3037.02 M 4049.06 3039.06 L 4050.7 3039.06 M 4054.71 3037.02 L 4053.07 3041.31 M 4054.71 3037.02 L 4056.34 3041.31 M 4053.68 3039.88 L 4055.73 3039.88 M 4060.56 3037.63 L 4060.15 3037.22 L 4059.53 3037.02 L 4058.71 3037.02 L 4058.1 3037.22 L 4057.69 3037.63 L 4057.69 3038.04 L 4057.9 3038.45 L 4058.1 3038.66 L 4058.51 3038.86 L 4059.74 3039.27 L 4060.15 3039.47 L 4060.35 3039.68 L 4060.56 3040.09 L 4060.56 3040.7 L 4060.15 3041.11 L 4059.53 3041.31 L 4058.71 3041.31 L 4058.1 3041.11 L 4057.69 3040.7 M 4061.91 3037.02 L 4061.91 3041.31 M 4061.91 3037.02 L 4064.56 3037.02 M 4061.91 3039.06 L 4063.54 3039.06 M 4061.91 3041.31 L 4064.56 3041.31 M 4069.06 3037.02 L 4069.06 3041.31 M 4069.06 3037.02 L 4070.5 3037.02 L 4071.11 3037.22 L 4071.52 3037.63 L 4071.72 3038.04 L 4071.93 3038.66 L 4071.93 3039.68 L 4071.72 3040.29 L 4071.52 3040.7 L 4071.11 3041.11 L 4070.5 3041.31 L 4069.06 3041.31 M 4073.28 3037.02 L 4073.28 3041.31 M 4073.28 3037.02 L 4075.94 3037.02 M 4073.28 3039.06 L 4074.91 3039.06 M 4073.28 3041.31 L 4075.94 3041.31 M 4080.44 3037.02 L 4080.44 3041.31 M 4080.44 3037.02 L 4083.1 3037.02 M 4080.44 3039.06 L 4082.07 3039.06 M 4080.44 3041.31 L 4083.1 3041.31 M 4084.45 3037.02 L 4084.45 3041.31 M 4084.45 3037.02 L 4087.31 3041.31 M 4087.31 3037.02 L 4087.31 3041.31 M 4090.09 3037.02 L 4090.09 3041.31 M 4088.66 3037.02 L 4091.52 3037.02 M 4092.87 3037.02 L 4092.87 3041.31 M 4092.87 3037.02 L 4094.71 3037.02 L 4095.33 3037.22 L 4095.53 3037.43 L 4095.74 3037.84 L 4095.74 3038.25 L 4095.53 3038.66 L 4095.33 3038.86 L 4094.71 3039.06 L 4092.87 3039.06 M 4094.31 3039.06 L 4095.74 3041.31 M 4098.72 3037.02 L 4097.09 3041.31 M 4098.72 3037.02 L 4100.36 3041.31 M 4097.7 3039.88 L 4099.75 3039.88 M 4101.71 3037.02 L 4101.71 3041.31 M 4101.71 3037.02 L 4103.14 3037.02 L 4103.76 3037.22 L 4104.16 3037.63 L 4104.37 3038.04 L 4104.57 3038.66 L 4104.57 3039.68 L 4104.37 3040.29 L 4104.16 3040.7 L 4103.76 3041.11 L 4103.14 3041.31 L 4101.71 3041.31 M 4107.56 3037.02 L 4105.92 3041.31 M 4107.56 3037.02 L 4109.2 3041.31 M 4106.54 3039.88 L 4108.58 3039.88" fill="none"  stroke-width="0.6" c_note="note_name" /></g><g c_partid="part_pcbtext" c_etype="" c_origin="4049.06,3048.56" c_rotation="0" c_mirror="0" id="gge5" locked="0" layerid="3" c_shapetype="group" ><path c_fontsize="4.5" c_fontfamily="" c_text="P1" d="M 4049.06 3044.02 L 4049.06 3048.31 M 4049.06 3044.02 L 4050.9 3044.02 L 4051.51 3044.22 L 4051.72 3044.43 L 4051.92 3044.84 L 4051.92 3045.45 L 4051.72 3045.86 L 4051.51 3046.06 L 4050.9 3046.27 L 4049.06 3046.27 M 4053.27 3044.84 L 4053.68 3044.63 L 4054.3 3044.02 L 4054.3 3048.31" fill="none"  stroke-width="0.6" c_note="note_pre" /></g><g c_partid="part_pcbtext" c_etype="" c_origin="4104.56,3041.56" c_rotation="0" c_mirror="0" id="gge27" locked="0" layerid="3" c_shapetype="group" display="none"><path c_fontsize="4.5" c_fontfamily="" c_text="NEUTRO" d="M 4104.56 3037.02 L 4104.56 3041.31 M 4104.56 3037.02 L 4107.42 3041.31 M 4107.42 3037.02 L 4107.42 3041.31 M 4108.77 3037.02 L 4108.77 3041.31 M 4108.77 3037.02 L 4111.43 3037.02 M 4108.77 3039.06 L 4110.41 3039.06 M 4108.77 3041.31 L 4111.43 3041.31 M 4112.78 3037.02 L 4112.78 3040.09 L 4112.99 3040.7 L 4113.4 3041.11 L 4114.01 3041.31 L 4114.42 3041.31 L 4115.03 3041.11 L 4115.44 3040.7 L 4115.65 3040.09 L 4115.65 3037.02 M 4118.43 3037.02 L 4118.43 3041.31 M 4117 3037.02 L 4119.86 3037.02 M 4121.21 3037.02 L 4121.21 3041.31 M 4121.21 3037.02 L 4123.05 3037.02 L 4123.66 3037.22 L 4123.87 3037.43 L 4124.07 3037.84 L 4124.07 3038.25 L 4123.87 3038.66 L 4123.66 3038.86 L 4123.05 3039.06 L 4121.21 3039.06 M 4122.64 3039.06 L 4124.07 3041.31 M 4126.65 3037.02 L 4126.24 3037.22 L 4125.83 3037.63 L 4125.63 3038.04 L 4125.42 3038.66 L 4125.42 3039.68 L 4125.63 3040.29 L 4125.83 3040.7 L 4126.24 3041.11 L 4126.65 3041.31 L 4127.47 3041.31 L 4127.88 3041.11 L 4128.29 3040.7 L 4128.49 3040.29 L 4128.7 3039.68 L 4128.7 3038.66 L 4128.49 3038.04 L 4128.29 3037.63 L 4127.88 3037.22 L 4127.47 3037.02 L 4126.65 3037.02" fill="none"  stroke-width="0.6" c_note="note_name" /></g><g c_partid="part_pcbtext" c_etype="" c_origin="4104.56,3048.56" c_rotation="0" c_mirror="0" id="gge29" locked="0" layerid="3" c_shapetype="group" ><path c_fontsize="4.5" c_fontfamily="" c_text="P2" d="M 4104.56 3044.02 L 4104.56 3048.31 M 4104.56 3044.02 L 4106.4 3044.02 L 4107.01 3044.22 L 4107.22 3044.43 L 4107.42 3044.84 L 4107.42 3045.45 L 4107.22 3045.86 L 4107.01 3046.06 L 4106.4 3046.27 L 4104.56 3046.27 M 4108.98 3045.04 L 4108.98 3044.84 L 4109.18 3044.43 L 4109.39 3044.22 L 4109.8 3044.02 L 4110.61 3044.02 L 4111.02 3044.22 L 4111.23 3044.43 L 4111.43 3044.84 L 4111.43 3045.25 L 4111.23 3045.66 L 4110.82 3046.27 L 4108.77 3048.31 L 4111.64 3048.31" fill="none"  stroke-width="0.6" c_note="note_pre" /></g><g c_partid="part_pcbtext" c_etype="" c_origin="4163.06,3040.06" c_rotation="0" c_mirror="0" id="gge51" locked="0" layerid="3" c_shapetype="group" display="none"><path c_fontsize="4.5" c_fontfamily="" c_text="FASE DE SALIDA" d="M 4163.06 3035.52 L 4163.06 3039.81 M 4163.06 3035.52 L 4165.72 3035.52 M 4163.06 3037.56 L 4164.7 3037.56 M 4168.71 3035.52 L 4167.07 3039.81 M 4168.71 3035.52 L 4170.34 3039.81 M 4167.68 3038.38 L 4169.73 3038.38 M 4174.56 3036.13 L 4174.15 3035.72 L 4173.53 3035.52 L 4172.71 3035.52 L 4172.1 3035.72 L 4171.69 3036.13 L 4171.69 3036.54 L 4171.9 3036.95 L 4172.1 3037.16 L 4172.51 3037.36 L 4173.74 3037.77 L 4174.15 3037.97 L 4174.35 3038.18 L 4174.56 3038.59 L 4174.56 3039.2 L 4174.15 3039.61 L 4173.53 3039.81 L 4172.71 3039.81 L 4172.1 3039.61 L 4171.69 3039.2 M 4175.91 3035.52 L 4175.91 3039.81 M 4175.91 3035.52 L 4178.56 3035.52 M 4175.91 3037.56 L 4177.54 3037.56 M 4175.91 3039.81 L 4178.56 3039.81 M 4183.06 3035.52 L 4183.06 3039.81 M 4183.06 3035.52 L 4184.5 3035.52 L 4185.11 3035.72 L 4185.52 3036.13 L 4185.72 3036.54 L 4185.93 3037.16 L 4185.93 3038.18 L 4185.72 3038.79 L 4185.52 3039.2 L 4185.11 3039.61 L 4184.5 3039.81 L 4183.06 3039.81 M 4187.28 3035.52 L 4187.28 3039.81 M 4187.28 3035.52 L 4189.94 3035.52 M 4187.28 3037.56 L 4188.91 3037.56 M 4187.28 3039.81 L 4189.94 3039.81 M 4197.3 3036.13 L 4196.89 3035.72 L 4196.28 3035.52 L 4195.46 3035.52 L 4194.85 3035.72 L 4194.44 3036.13 L 4194.44 3036.54 L 4194.64 3036.95 L 4194.85 3037.16 L 4195.26 3037.36 L 4196.48 3037.77 L 4196.89 3037.97 L 4197.1 3038.18 L 4197.3 3038.59 L 4197.3 3039.2 L 4196.89 3039.61 L 4196.28 3039.81 L 4195.46 3039.81 L 4194.85 3039.61 L 4194.44 3039.2 M 4200.29 3035.52 L 4198.65 3039.81 M 4200.29 3035.52 L 4201.92 3039.81 M 4199.26 3038.38 L 4201.31 3038.38 M 4203.27 3035.52 L 4203.27 3039.81 M 4203.27 3039.81 L 4205.73 3039.81 M 4207.08 3035.52 L 4207.08 3039.81 M 4208.43 3035.52 L 4208.43 3039.81 M 4208.43 3035.52 L 4209.86 3035.52 L 4210.47 3035.72 L 4210.88 3036.13 L 4211.09 3036.54 L 4211.29 3037.16 L 4211.29 3038.18 L 4211.09 3038.79 L 4210.88 3039.2 L 4210.47 3039.61 L 4209.86 3039.81 L 4208.43 3039.81 M 4214.28 3035.52 L 4212.64 3039.81 M 4214.28 3035.52 L 4215.91 3039.81 M 4213.26 3038.38 L 4215.3 3038.38" fill="none"  stroke-width="0.6" c_note="note_name" /></g><g c_partid="part_pcbtext" c_etype="" c_origin="4163.06,3047.06" c_rotation="0" c_mirror="0" id="gge53" locked="0" layerid="3" c_shapetype="group" ><path c_fontsize="4.5" c_fontfamily="" c_text="P3" d="M 4163.06 3042.52 L 4163.06 3046.81 M 4163.06 3042.52 L 4164.9 3042.52 L 4165.51 3042.72 L 4165.72 3042.93 L 4165.92 3043.34 L 4165.92 3043.95 L 4165.72 3044.36 L 4165.51 3044.56 L 4164.9 3044.77 L 4163.06 3044.77 M 4167.68 3042.52 L 4169.93 3042.52 L 4168.71 3044.16 L 4169.32 3044.16 L 4169.73 3044.36 L 4169.93 3044.56 L 4170.14 3045.18 L 4170.14 3045.59 L 4169.93 3046.2 L 4169.52 3046.61 L 4168.91 3046.81 L 4168.3 3046.81 L 4167.68 3046.61 L 4167.48 3046.41 L 4167.27 3046" fill="none"  stroke-width="0.6" c_note="note_pre" /></g><g c_partid="part_pcbtext" c_etype="" c_origin="4156.1,3089.2" c_rotation="0" c_mirror="0" id="gge75" locked="0" layerid="3" c_shapetype="group" display="none"><path c_fontsize="4.5" c_fontfamily="" c_text="0.1u" d="M 4157.33 3084.66 L 4156.71 3084.86 L 4156.3 3085.48 L 4156.1 3086.5 L 4156.1 3087.11 L 4156.3 3088.14 L 4156.71 3088.75 L 4157.33 3088.95 L 4157.74 3088.95 L 4158.35 3088.75 L 4158.76 3088.14 L 4158.96 3087.11 L 4158.96 3086.5 L 4158.76 3085.48 L 4158.35 3084.86 L 4157.74 3084.66 L 4157.33 3084.66 M 4160.52 3087.93 L 4160.31 3088.14 L 4160.52 3088.34 L 4160.72 3088.14 L 4160.52 3087.93 M 4162.07 3085.48 L 4162.48 3085.27 L 4163.1 3084.66 L 4163.1 3088.95 M 4164.45 3086.09 L 4164.45 3088.14 L 4164.65 3088.75 L 4165.06 3088.95 L 4165.67 3088.95 L 4166.08 3088.75 L 4166.7 3088.14 M 4166.7 3086.09 L 4166.7 3088.95" fill="none"  stroke-width="0.6" c_note="note_name" /></g><g c_partid="part_pcbtext" c_etype="" c_origin="4156.1,3096.2" c_rotation="0" c_mirror="0" id="gge77" locked="0" layerid="3" c_shapetype="group" ><path c_fontsize="4.5" c_fontfamily="" c_text="C1" d="M 4159.17 3092.68 L 4158.96 3092.27 L 4158.55 3091.86 L 4158.15 3091.66 L 4157.33 3091.66 L 4156.92 3091.86 L 4156.51 3092.27 L 4156.3 3092.68 L 4156.1 3093.3 L 4156.1 3094.32 L 4156.3 3094.93 L 4156.51 3095.34 L 4156.92 3095.75 L 4157.33 3095.95 L 4158.15 3095.95 L 4158.55 3095.75 L 4158.96 3095.34 L 4159.17 3094.93 M 4160.52 3092.48 L 4160.93 3092.27 L 4161.54 3091.66 L 4161.54 3095.95" fill="none"  stroke-width="0.6" c_note="note_pre" /></g><g c_partid="part_pcbtext" c_etype="" c_origin="4068.5,3152.9" c_rotation="0" c_mirror="0" id="gge94" locked="0" layerid="3" c_shapetype="group" display="none"><path c_fontsize="4.5" c_fontfamily="" c_text="NEGATIVO DE ARDUINO" d="M 4068.5 3148.36 L 4068.5 3152.65 M 4068.5 3148.36 L 4071.36 3152.65 M 4071.36 3148.36 L 4071.36 3152.65 M 4072.71 3148.36 L 4072.71 3152.65 M 4072.71 3148.36 L 4075.37 3148.36 M 4072.71 3150.4 L 4074.35 3150.4 M 4072.71 3152.65 L 4075.37 3152.65 M 4079.79 3149.38 L 4079.59 3148.97 L 4079.18 3148.56 L 4078.77 3148.36 L 4077.95 3148.36 L 4077.54 3148.56 L 4077.13 3148.97 L 4076.93 3149.38 L 4076.72 3150 L 4076.72 3151.02 L 4076.93 3151.63 L 4077.13 3152.04 L 4077.54 3152.45 L 4077.95 3152.65 L 4078.77 3152.65 L 4079.18 3152.45 L 4079.59 3152.04 L 4079.79 3151.63 L 4079.79 3151.02 M 4078.77 3151.02 L 4079.79 3151.02 M 4082.78 3148.36 L 4081.14 3152.65 M 4082.78 3148.36 L 4084.41 3152.65 M 4081.75 3151.22 L 4083.8 3151.22 M 4087.2 3148.36 L 4087.2 3152.65 M 4085.76 3148.36 L 4088.63 3148.36 M 4089.98 3148.36 L 4089.98 3152.65 M 4091.33 3148.36 L 4092.96 3152.65 M 4094.6 3148.36 L 4092.96 3152.65 M 4097.18 3148.36 L 4096.77 3148.56 L 4096.36 3148.97 L 4096.15 3149.38 L 4095.95 3150 L 4095.95 3151.02 L 4096.15 3151.63 L 4096.36 3152.04 L 4096.77 3152.45 L 4097.18 3152.65 L 4098 3152.65 L 4098.4 3152.45 L 4098.81 3152.04 L 4099.02 3151.63 L 4099.22 3151.02 L 4099.22 3150 L 4099.02 3149.38 L 4098.81 3148.97 L 4098.4 3148.56 L 4098 3148.36 L 4097.18 3148.36 M 4103.72 3148.36 L 4103.72 3152.65 M 4103.72 3148.36 L 4105.15 3148.36 L 4105.77 3148.56 L 4106.18 3148.97 L 4106.38 3149.38 L 4106.59 3150 L 4106.59 3151.02 L 4106.38 3151.63 L 4106.18 3152.04 L 4105.77 3152.45 L 4105.15 3152.65 L 4103.72 3152.65 M 4107.94 3148.36 L 4107.94 3152.65 M 4107.94 3148.36 L 4110.6 3148.36 M 4107.94 3150.4 L 4109.57 3150.4 M 4107.94 3152.65 L 4110.6 3152.65 M 4116.73 3148.36 L 4115.1 3152.65 M 4116.73 3148.36 L 4118.37 3152.65 M 4115.71 3151.22 L 4117.75 3151.22 M 4119.72 3148.36 L 4119.72 3152.65 M 4119.72 3148.36 L 4121.56 3148.36 L 4122.17 3148.56 L 4122.38 3148.77 L 4122.58 3149.18 L 4122.58 3149.59 L 4122.38 3150 L 4122.17 3150.2 L 4121.56 3150.4 L 4119.72 3150.4 M 4121.15 3150.4 L 4122.58 3152.65 M 4123.93 3148.36 L 4123.93 3152.65 M 4123.93 3148.36 L 4125.36 3148.36 L 4125.98 3148.56 L 4126.39 3148.97 L 4126.59 3149.38 L 4126.8 3150 L 4126.8 3151.02 L 4126.59 3151.63 L 4126.39 3152.04 L 4125.98 3152.45 L 4125.36 3152.65 L 4123.93 3152.65 M 4128.15 3148.36 L 4128.15 3151.43 L 4128.35 3152.04 L 4128.76 3152.45 L 4129.37 3152.65 L 4129.78 3152.65 L 4130.4 3152.45 L 4130.8 3152.04 L 4131.01 3151.43 L 4131.01 3148.36 M 4132.36 3148.36 L 4132.36 3152.65 M 4133.71 3148.36 L 4133.71 3152.65 M 4133.71 3148.36 L 4136.57 3152.65 M 4136.57 3148.36 L 4136.57 3152.65 M 4139.15 3148.36 L 4138.74 3148.56 L 4138.33 3148.97 L 4138.13 3149.38 L 4137.92 3150 L 4137.92 3151.02 L 4138.13 3151.63 L 4138.33 3152.04 L 4138.74 3152.45 L 4139.15 3152.65 L 4139.97 3152.65 L 4140.38 3152.45 L 4140.79 3152.04 L 4140.99 3151.63 L 4141.2 3151.02 L 4141.2 3150 L 4140.99 3149.38 L 4140.79 3148.97 L 4140.38 3148.56 L 4139.97 3148.36 L 4139.15 3148.36" fill="none"  stroke-width="0.6" c_note="note_name" /></g><g c_partid="part_pcbtext" c_etype="" c_origin="4068.5,3159.9" c_rotation="0" c_mirror="0" id="gge96" locked="0" layerid="3" c_shapetype="group" ><path c_fontsize="4.5" c_fontfamily="" c_text="J2" d="M 4070.55 3155.36 L 4070.55 3158.63 L 4070.34 3159.25 L 4070.14 3159.45 L 4069.73 3159.65 L 4069.32 3159.65 L 4068.91 3159.45 L 4068.7 3159.25 L 4068.5 3158.63 L 4068.5 3158.22 M 4072.1 3156.38 L 4072.1 3156.18 L 4072.3 3155.77 L 4072.51 3155.56 L 4072.92 3155.36 L 4073.74 3155.36 L 4074.15 3155.56 L 4074.35 3155.77 L 4074.55 3156.18 L 4074.55 3156.59 L 4074.35 3157 L 4073.94 3157.61 L 4071.9 3159.65 L 4074.76 3159.65" fill="none"  stroke-width="0.6" c_note="note_pre" /></g><g c_partid="part_pcbtext" c_etype="" c_origin="4102.5,3147.36" c_rotation="0" c_mirror="0" id="gge308" locked="0" layerid="3" c_shapetype="group" display="none"><path c_fontsize="4.5" c_fontfamily="" c_text="SEÑAL + DE ARDUINO" d="M 4103.73 3145.42 C 4103.38 3145.28 4103.17 3145.09 4103.17 3144.78 C 4103.17 3144.4 4103.47 3144.2 4103.86 3144.2 C 4104.02 3144.2 4104.14 3144.23 4104.26 3144.3 L 4104.39 3144.89 L 4104.65 3144.89 L 4104.68 3144.25 C 4104.46 3144.09 4104.2 3143.98 4103.87 3143.98 C 4103.25 3143.98 4102.77 3144.32 4102.77 3144.89 C 4102.77 3145.38 4103.11 3145.67 4103.62 3145.87 L 4103.81 3145.95 C 4104.25 3146.13 4104.43 3146.28 4104.43 3146.6 C 4104.43 3147 4104.12 3147.22 4103.64 3147.22 C 4103.43 3147.22 4103.28 3147.18 4103.12 3147.09 L 4102.99 3146.48 L 4102.74 3146.48 L 4102.71 3147.17 C 4102.94 3147.32 4103.3 3147.43 4103.67 3147.43 C 4104.35 3147.43 4104.83 3147.08 4104.83 3146.5 C 4104.83 3146.03 4104.59 3145.76 4103.93 3145.5 Z  M 4107.54 3146.48 L 4107.41 3147.14 L 4106.14 3147.14 C 4106.14 3146.71 4106.14 3146.27 4106.14 3145.78 L 4106.88 3145.78 L 4106.95 3146.26 L 4107.15 3146.26 L 4107.15 3145.1 L 4106.95 3145.1 L 4106.88 3145.58 L 4106.14 3145.58 C 4106.14 3145.14 4106.14 3144.71 4106.14 3144.28 L 4107.32 3144.28 L 4107.45 3144.93 L 4107.69 3144.93 L 4107.66 3144.06 L 4105.22 3144.06 L 4105.22 3144.23 L 4105.68 3144.28 C 4105.69 3144.71 4105.69 3145.15 4105.69 3145.59 L 4105.69 3145.83 C 4105.69 3146.28 4105.69 3146.71 4105.68 3147.14 L 4105.22 3147.19 L 4105.22 3147.36 L 4107.76 3147.36 L 4107.78 3146.48 Z  M 4110.56 3143.18 C 4110.49 3143.42 4110.39 3143.57 4110.21 3143.57 C 4110.06 3143.57 4109.96 3143.44 4109.84 3143.33 C 4109.73 3143.25 4109.62 3143.17 4109.44 3143.17 C 4109.15 3143.17 4108.99 3143.41 4108.93 3143.79 L 4109.06 3143.82 C 4109.13 3143.58 4109.23 3143.44 4109.4 3143.44 C 4109.55 3143.44 4109.65 3143.57 4109.78 3143.67 C 4109.88 3143.76 4109.99 3143.84 4110.17 3143.84 C 4110.47 3143.84 4110.62 3143.59 4110.68 3143.22 Z  M 4111.39 3144.06 L 4110.23 3144.06 L 4110.23 3144.23 L 4110.75 3144.3 L 4110.76 3146.58 L 4108.94 3144.06 L 4108.18 3144.06 L 4108.18 3144.23 L 4108.53 3144.28 L 4108.58 3144.34 L 4108.57 3147.13 L 4108.16 3147.19 L 4108.16 3147.36 L 4109.32 3147.36 L 4109.32 3147.19 L 4108.8 3147.12 L 4108.79 3144.63 L 4110.8 3147.39 L 4110.97 3147.39 L 4110.98 3144.29 L 4111.39 3144.23 Z  M 4112.4 3146.07 L 4112.9 3144.54 L 4113.41 3146.07 Z  M 4114.23 3147.14 L 4113.17 3144.04 L 4112.88 3144.04 L 4111.83 3147.13 L 4111.43 3147.19 L 4111.43 3147.36 L 4112.53 3147.36 L 4112.53 3147.19 L 4112.05 3147.13 L 4112.33 3146.27 L 4113.48 3146.27 L 4113.76 3147.13 L 4113.28 3147.19 L 4113.28 3147.36 L 4114.62 3147.36 L 4114.62 3147.19 Z  M 4117.07 3146.43 L 4116.9 3147.15 L 4115.77 3147.15 C 4115.76 3146.72 4115.76 3146.29 4115.76 3145.92 L 4115.76 3145.59 C 4115.76 3145.15 4115.76 3144.71 4115.77 3144.28 L 4116.23 3144.23 L 4116.23 3144.06 L 4114.84 3144.06 L 4114.84 3144.23 L 4115.3 3144.28 C 4115.31 3144.71 4115.31 3145.15 4115.31 3145.59 L 4115.31 3145.85 C 4115.31 3146.27 4115.31 3146.7 4115.3 3147.14 L 4114.84 3147.19 L 4114.84 3147.36 L 4117.29 3147.36 L 4117.32 3146.43 Z  M 4121.16 3145.61 L 4120.13 3145.61 L 4120.13 3144.52 L 4119.87 3144.52 L 4119.87 3145.61 L 4118.84 3145.61 L 4118.84 3145.85 L 4119.87 3145.85 L 4119.87 3146.97 L 4120.13 3146.97 L 4120.13 3145.85 L 4121.16 3145.85 Z  M 4123.6 3147.16 C 4123.6 3146.72 4123.6 3146.27 4123.6 3145.77 L 4123.6 3145.6 C 4123.6 3145.14 4123.6 3144.69 4123.6 3144.25 L 4124.03 3144.25 C 4124.78 3144.25 4125.2 3144.76 4125.2 3145.71 C 4125.2 3146.63 4124.78 3147.16 4123.99 3147.16 Z  M 4122.68 3144.06 L 4122.68 3144.23 L 4123.14 3144.28 C 4123.15 3144.71 4123.15 3145.15 4123.15 3145.6 L 4123.15 3145.77 C 4123.15 3146.27 4123.15 3146.71 4123.14 3147.14 L 4122.68 3147.19 L 4122.68 3147.36 L 4124.02 3147.36 C 4125 3147.36 4125.72 3146.77 4125.72 3145.71 C 4125.72 3144.65 4125.07 3144.06 4124.11 3144.06 Z  M 4128.36 3146.48 L 4128.23 3147.14 L 4126.96 3147.14 C 4126.95 3146.71 4126.95 3146.27 4126.95 3145.78 L 4127.7 3145.78 L 4127.77 3146.26 L 4127.97 3146.26 L 4127.97 3145.1 L 4127.77 3145.1 L 4127.7 3145.58 L 4126.95 3145.58 C 4126.95 3145.14 4126.95 3144.71 4126.96 3144.28 L 4128.13 3144.28 L 4128.26 3144.93 L 4128.51 3144.93 L 4128.48 3144.06 L 4126.03 3144.06 L 4126.03 3144.23 L 4126.49 3144.28 C 4126.5 3144.71 4126.5 3145.15 4126.5 3145.59 L 4126.5 3145.83 C 4126.5 3146.28 4126.5 3146.71 4126.49 3147.14 L 4126.03 3147.19 L 4126.03 3147.36 L 4128.57 3147.36 L 4128.6 3146.48 Z  M 4130.94 3146.07 L 4131.44 3144.54 L 4131.95 3146.07 Z  M 4132.77 3147.14 L 4131.71 3144.04 L 4131.42 3144.04 L 4130.37 3147.13 L 4129.97 3147.19 L 4129.97 3147.36 L 4131.07 3147.36 L 4131.07 3147.19 L 4130.59 3147.13 L 4130.87 3146.27 L 4132.02 3146.27 L 4132.3 3147.13 L 4131.82 3147.19 L 4131.82 3147.36 L 4133.16 3147.36 L 4133.16 3147.19 Z  M 4134.3 3145.63 C 4134.3 3145.12 4134.3 3144.69 4134.31 3144.25 L 4134.74 3144.25 C 4135.26 3144.25 4135.49 3144.5 4135.49 3144.92 C 4135.49 3145.33 4135.23 3145.63 4134.7 3145.63 Z  M 4135.93 3147.15 L 4135.7 3146.38 C 4135.58 3146 4135.42 3145.83 4135.11 3145.76 C 4135.67 3145.66 4135.95 3145.31 4135.95 3144.93 C 4135.95 3144.38 4135.51 3144.06 4134.76 3144.06 L 4133.38 3144.06 L 4133.38 3144.23 L 4133.84 3144.28 C 4133.85 3144.71 4133.85 3145.15 4133.85 3145.59 L 4133.85 3145.83 C 4133.85 3146.28 4133.85 3146.71 4133.84 3147.14 L 4133.38 3147.19 L 4133.38 3147.36 L 4134.77 3147.36 L 4134.77 3147.19 L 4134.31 3147.13 C 4134.3 3146.71 4134.3 3146.28 4134.3 3145.82 L 4134.56 3145.82 C 4134.97 3145.82 4135.13 3145.91 4135.23 3146.31 L 4135.44 3147.09 C 4135.49 3147.32 4135.63 3147.41 4135.93 3147.41 C 4136.09 3147.41 4136.21 3147.39 4136.31 3147.36 L 4136.31 3147.19 Z  M 4137.52 3147.16 C 4137.51 3146.72 4137.51 3146.27 4137.51 3145.77 L 4137.51 3145.6 C 4137.51 3145.14 4137.51 3144.69 4137.52 3144.25 L 4137.95 3144.25 C 4138.7 3144.25 4139.12 3144.76 4139.12 3145.71 C 4139.12 3146.63 4138.7 3147.16 4137.91 3147.16 Z  M 4136.6 3144.06 L 4136.6 3144.23 L 4137.06 3144.28 C 4137.06 3144.71 4137.06 3145.15 4137.06 3145.6 L 4137.06 3145.77 C 4137.06 3146.27 4137.06 3146.71 4137.06 3147.14 L 4136.6 3147.19 L 4136.6 3147.36 L 4137.94 3147.36 C 4138.92 3147.36 4139.63 3146.77 4139.63 3145.71 C 4139.63 3144.65 4138.99 3144.06 4138.03 3144.06 Z  M 4143.19 3144.06 L 4142.01 3144.06 L 4142.01 3144.23 L 4142.53 3144.3 L 4142.54 3145.91 C 4142.54 3146.79 4142.25 3147.11 4141.67 3147.11 C 4141.16 3147.11 4140.84 3146.84 4140.84 3145.99 L 4140.84 3145.59 C 4140.84 3145.15 4140.84 3144.71 4140.85 3144.29 L 4141.35 3144.23 L 4141.35 3144.06 L 4139.97 3144.06 L 4139.97 3144.23 L 4140.39 3144.28 C 4140.39 3144.71 4140.39 3145.15 4140.39 3145.59 L 4140.39 3146.1 C 4140.39 3147.04 4140.88 3147.43 4141.59 3147.43 C 4142.27 3147.43 4142.75 3147.04 4142.75 3146.02 L 4142.75 3144.29 L 4143.19 3144.23 Z  M 4144.88 3144.23 L 4144.88 3144.06 L 4143.49 3144.06 L 4143.49 3144.23 L 4143.95 3144.28 C 4143.96 3144.71 4143.96 3145.15 4143.96 3145.59 L 4143.96 3145.83 C 4143.96 3146.28 4143.96 3146.71 4143.95 3147.14 L 4143.49 3147.19 L 4143.49 3147.36 L 4144.88 3147.36 L 4144.88 3147.19 L 4144.42 3147.13 C 4144.41 3146.7 4144.41 3146.27 4144.41 3145.83 L 4144.41 3145.59 C 4144.41 3145.15 4144.41 3144.71 4144.42 3144.28 Z  M 4148.52 3144.06 L 4147.36 3144.06 L 4147.36 3144.23 L 4147.88 3144.3 L 4147.89 3146.58 L 4146.07 3144.06 L 4145.31 3144.06 L 4145.31 3144.23 L 4145.66 3144.28 L 4145.71 3144.34 L 4145.7 3147.13 L 4145.29 3147.19 L 4145.29 3147.36 L 4146.45 3147.36 L 4146.45 3147.19 L 4145.92 3147.12 L 4145.92 3144.63 L 4147.93 3147.39 L 4148.1 3147.39 L 4148.11 3144.29 L 4148.52 3144.23 Z  M 4149.38 3145.71 C 4149.38 3144.93 4149.69 3144.2 4150.38 3144.2 C 4151.06 3144.2 4151.36 3144.93 4151.36 3145.71 C 4151.36 3146.49 4151.06 3147.22 4150.38 3147.22 C 4149.69 3147.22 4149.38 3146.49 4149.38 3145.71 Z  M 4150.38 3143.98 C 4149.6 3143.98 4148.87 3144.63 4148.87 3145.71 C 4148.87 3146.83 4149.6 3147.43 4150.38 3147.43 C 4151.15 3147.43 4151.87 3146.79 4151.87 3145.71 C 4151.87 3144.6 4151.14 3143.98 4150.38 3143.98 Z "  stroke="none" stroke-width="0.6" c_note="note_name" /></g><g c_partid="part_pcbtext" c_etype="" c_origin="4102.5,3159.9" c_rotation="0" c_mirror="0" id="gge108" locked="0" layerid="3" c_shapetype="group" ><path c_fontsize="4.5" c_fontfamily="" c_text="J1" d="M 4104.55 3155.36 L 4104.55 3158.63 L 4104.34 3159.25 L 4104.14 3159.45 L 4103.73 3159.65 L 4103.32 3159.65 L 4102.91 3159.45 L 4102.7 3159.25 L 4102.5 3158.63 L 4102.5 3158.22 M 4105.9 3156.18 L 4106.3 3155.97 L 4106.92 3155.36 L 4106.92 3159.65" fill="none"  stroke-width="0.6" c_note="note_pre" /></g><g c_partid="part_pcbtext" c_etype="" c_origin="4150.88,3171.79" c_rotation="0" c_mirror="0" id="gge121" locked="0" layerid="3" c_shapetype="group" display="none"><path c_fontsize="4.5" c_fontfamily="" c_text="1k" d="M 4150.8802 3168.0703 L 4151.2902 3167.8603 L 4151.9002 3167.2503 L 4151.9002 3171.5403 M 4153.2502 3167.2503 L 4153.2502 3171.5403 M 4155.3002 3168.6803 L 4153.2502 3170.7303 M 4154.0702 3169.9103 L 4155.5002 3171.5403" fill="none"  stroke-width="0.6" c_note="note_name" /></g><g c_partid="part_pcbtext" c_etype="" c_origin="4157.5,3151.5" c_rotation="180" c_mirror="0" id="gge123" locked="0" layerid="3" c_shapetype="group" ><path c_fontsize="4.5" c_fontfamily="" c_text="R3" d="M 4157.5 3156.04 L 4157.5 3151.75 M 4157.5 3156.04 L 4155.66 3156.04 L 4155.05 3155.84 L 4154.84 3155.63 L 4154.64 3155.22 L 4154.64 3154.81 L 4154.84 3154.4 L 4155.05 3154.2 L 4155.66 3154 L 4157.5 3154 M 4156.07 3154 L 4154.64 3151.75 M 4152.88 3156.04 L 4150.63 3156.04 L 4151.85 3154.4 L 4151.24 3154.4 L 4150.83 3154.2 L 4150.63 3154 L 4150.42 3153.38 L 4150.42 3152.97 L 4150.63 3152.36 L 4151.04 3151.95 L 4151.65 3151.75 L 4152.26 3151.75 L 4152.88 3151.95 L 4153.08 3152.15 L 4153.29 3152.56" fill="none"  stroke-width="0.6" c_note="note_pre" /></g><g c_partid="part_pcbtext" c_etype="" c_origin="4153.88,3188.79" c_rotation="0" c_mirror="0" id="gge147" locked="0" layerid="3" c_shapetype="group" display="none"><path c_fontsize="4.5" c_fontfamily="" c_text="1k" d="M 4153.8802 3185.0703 L 4154.2902 3184.8603 L 4154.9002 3184.2503 L 4154.9002 3188.5403 M 4156.2502 3184.2503 L 4156.2502 3188.5403 M 4158.3002 3185.6803 L 4156.2502 3187.7303 M 4157.0702 3186.9103 L 4158.5002 3188.5403" fill="none"  stroke-width="0.6" c_note="note_name" /></g><g c_partid="part_pcbtext" c_etype="" c_origin="4159.5,3169" c_rotation="180" c_mirror="0" id="gge149" locked="0" layerid="3" c_shapetype="group" ><path c_fontsize="4.5" c_fontfamily="" c_text="R4" d="M 4159.5 3173.54 L 4159.5 3169.25 M 4159.5 3173.54 L 4157.66 3173.54 L 4157.05 3173.34 L 4156.84 3173.13 L 4156.64 3172.72 L 4156.64 3172.31 L 4156.84 3171.9 L 4157.05 3171.7 L 4157.66 3171.5 L 4159.5 3171.5 M 4158.07 3171.5 L 4156.64 3169.25 M 4153.24 3173.54 L 4155.29 3170.68 L 4152.22 3170.68 M 4153.24 3173.54 L 4153.24 3169.25" fill="none"  stroke-width="0.6" c_note="note_pre" /></g><g c_partid="part_pcbtext" c_etype="" c_origin="4151.38,3140.79" c_rotation="0" c_mirror="0" id="gge173" locked="0" layerid="3" c_shapetype="group" display="none"><path c_fontsize="4.5" c_fontfamily="" c_text="1k" d="M 4151.3802 3137.0703 L 4151.7902 3136.8603 L 4152.4002 3136.2503 L 4152.4002 3140.5403 M 4153.7502 3136.2503 L 4153.7502 3140.5403 M 4155.8002 3137.6803 L 4153.7502 3139.7303 M 4154.5702 3138.9103 L 4156.0002 3140.5403" fill="none"  stroke-width="0.6" c_note="note_name" /></g><g c_partid="part_pcbtext" c_etype="" c_origin="4157,3121" c_rotation="180" c_mirror="0" id="gge175" locked="0" layerid="3" c_shapetype="group" ><path c_fontsize="4.5" c_fontfamily="" c_text="R1" d="M 4157 3125.54 L 4157 3121.25 M 4157 3125.54 L 4155.16 3125.54 L 4154.55 3125.34 L 4154.34 3125.13 L 4154.14 3124.72 L 4154.14 3124.31 L 4154.34 3123.9 L 4154.55 3123.7 L 4155.16 3123.5 L 4157 3123.5 M 4155.57 3123.5 L 4154.14 3121.25 M 4152.79 3124.72 L 4152.38 3124.93 L 4151.76 3125.54 L 4151.76 3121.25" fill="none"  stroke-width="0.6" c_note="note_pre" /></g><g c_partid="part_pcbtext" c_etype="" c_origin="4154.88,3156.79" c_rotation="0" c_mirror="0" id="gge199" locked="0" layerid="3" c_shapetype="group" display="none"><path c_fontsize="4.5" c_fontfamily="" c_text="1k" d="M 4154.8802 3153.0703 L 4155.2902 3152.8603 L 4155.9002 3152.2503 L 4155.9002 3156.5403 M 4157.2502 3152.2503 L 4157.2502 3156.5403 M 4159.3002 3153.6803 L 4157.2502 3155.7303 M 4158.0702 3154.9103 L 4159.5002 3156.5403" fill="none"  stroke-width="0.6" c_note="note_name" /></g><g c_partid="part_pcbtext" c_etype="" c_origin="4162,3137" c_rotation="180" c_mirror="0" id="gge201" locked="0" layerid="3" c_shapetype="group" ><path c_fontsize="4.5" c_fontfamily="" c_text="R2" d="M 4162 3141.54 L 4162 3137.25 M 4162 3141.54 L 4160.16 3141.54 L 4159.55 3141.34 L 4159.34 3141.13 L 4159.14 3140.72 L 4159.14 3140.31 L 4159.34 3139.9 L 4159.55 3139.7 L 4160.16 3139.5 L 4162 3139.5 M 4160.57 3139.5 L 4159.14 3137.25 M 4157.58 3140.52 L 4157.58 3140.72 L 4157.38 3141.13 L 4157.17 3141.34 L 4156.76 3141.54 L 4155.95 3141.54 L 4155.54 3141.34 L 4155.33 3141.13 L 4155.13 3140.72 L 4155.13 3140.31 L 4155.33 3139.9 L 4155.74 3139.29 L 4157.79 3137.25 L 4154.92 3137.25" fill="none"  stroke-width="0.6" c_note="note_pre" /></g><g c_partid="part_pcbtext" c_etype="" c_origin="4029.5,3117.5" c_rotation="90" c_mirror="0" id="gge225" locked="0" layerid="3" c_shapetype="group" display="none"><path c_fontsize="4.5" c_fontfamily="" c_text="BTA24-800B" d="M 4024.96 3117.4998 L 4029.25 3117.4998 M 4024.96 3117.4998 L 4024.96 3115.6598 L 4025.16 3115.0498 L 4025.37 3114.8398 L 4025.78 3114.6398 L 4026.19 3114.6398 L 4026.6 3114.8398 L 4026.8 3115.0498 L 4027 3115.6598 M 4027 3117.4998 L 4027 3115.6598 L 4027.21 3115.0498 L 4027.41 3114.8398 L 4027.82 3114.6398 L 4028.44 3114.6398 L 4028.85 3114.8398 L 4029.05 3115.0498 L 4029.25 3115.6598 L 4029.25 3117.4998 M 4024.96 3111.8498 L 4029.25 3111.8498 M 4024.96 3113.2898 L 4024.96 3110.4198 M 4024.96 3107.4398 L 4029.25 3109.0698 M 4024.96 3107.4398 L 4029.25 3105.7998 M 4027.82 3108.4598 L 4027.82 3106.4098 M 4025.98 3104.2498 L 4025.78 3104.2498 L 4025.37 3104.0398 L 4025.16 3103.8398 L 4024.96 3103.4298 L 4024.96 3102.6098 L 4025.16 3102.1998 L 4025.37 3101.9998 L 4025.78 3101.7898 L 4026.19 3101.7898 L 4026.6 3101.9998 L 4027.21 3102.3998 L 4029.25 3104.4498 L 4029.25 3101.5898 M 4024.96 3098.1898 L 4027.82 3100.2398 L 4027.82 3097.1698 M 4024.96 3098.1898 L 4029.25 3098.1898 M 4027.41 3095.8198 L 4027.41 3092.1398 M 4024.96 3089.7598 L 4025.16 3090.3798 L 4025.57 3090.5798 L 4025.98 3090.5798 L 4026.39 3090.3798 L 4026.6 3089.9698 L 4026.8 3089.1498 L 4027 3088.5398 L 4027.41 3088.1298 L 4027.82 3087.9198 L 4028.44 3087.9198 L 4028.85 3088.1298 L 4029.05 3088.3298 L 4029.25 3088.9498 L 4029.25 3089.7598 L 4029.05 3090.3798 L 4028.85 3090.5798 L 4028.44 3090.7898 L 4027.82 3090.7898 L 4027.41 3090.5798 L 4027 3090.1698 L 4026.8 3089.5598 L 4026.6 3088.7398 L 4026.39 3088.3298 L 4025.98 3088.1298 L 4025.57 3088.1298 L 4025.16 3088.3298 L 4024.96 3088.9498 L 4024.96 3089.7598 M 4024.96 3085.3498 L 4025.16 3085.9598 L 4025.78 3086.3698 L 4026.8 3086.5698 L 4027.41 3086.5698 L 4028.44 3086.3698 L 4029.05 3085.9598 L 4029.25 3085.3498 L 4029.25 3084.9398 L 4029.05 3084.3198 L 4028.44 3083.9098 L 4027.41 3083.7098 L 4026.8 3083.7098 L 4025.78 3083.9098 L 4025.16 3084.3198 L 4024.96 3084.9398 L 4024.96 3085.3498 M 4024.96 3081.1298 L 4025.16 3081.7498 L 4025.78 3082.1498 L 4026.8 3082.3598 L 4027.41 3082.3598 L 4028.44 3082.1498 L 4029.05 3081.7498 L 4029.25 3081.1298 L 4029.25 3080.7198 L 4029.05 3080.1098 L 4028.44 3079.6998 L 4027.41 3079.4998 L 4026.8 3079.4998 L 4025.78 3079.6998 L 4025.16 3080.1098 L 4024.96 3080.7198 L 4024.96 3081.1298 M 4024.96 3078.1498 L 4029.25 3078.1498 M 4024.96 3078.1498 L 4024.96 3076.2998 L 4025.16 3075.6898 L 4025.37 3075.4898 L 4025.78 3075.2798 L 4026.19 3075.2798 L 4026.6 3075.4898 L 4026.8 3075.6898 L 4027 3076.2998 M 4027 3078.1498 L 4027 3076.2998 L 4027.21 3075.6898 L 4027.41 3075.4898 L 4027.82 3075.2798 L 4028.44 3075.2798 L 4028.85 3075.4898 L 4029.05 3075.6898 L 4029.25 3076.2998 L 4029.25 3078.1498" fill="none"  stroke-width="0.6" c_note="note_name" /></g><g c_partid="part_pcbtext" c_etype="" c_origin="4036.5,3117.5" c_rotation="90" c_mirror="0" id="gge227" locked="0" layerid="3" c_shapetype="group" ><path c_fontsize="4.5" c_fontfamily="" c_text="Q1" d="M 4031.96 3116.27 L 4032.16 3116.68 L 4032.57 3117.09 L 4032.98 3117.3 L 4033.6 3117.5 L 4034.62 3117.5 L 4035.23 3117.3 L 4035.64 3117.09 L 4036.05 3116.68 L 4036.25 3116.27 L 4036.25 3115.45 L 4036.05 3115.05 L 4035.64 3114.64 L 4035.23 3114.43 L 4034.62 3114.23 L 4033.6 3114.23 L 4032.98 3114.43 L 4032.57 3114.64 L 4032.16 3115.05 L 4031.96 3115.45 L 4031.96 3116.27 M 4035.44 3115.66 L 4036.66 3114.43 M 4032.78 3112.88 L 4032.57 3112.47 L 4031.96 3111.85 L 4036.25 3111.85" fill="none"  stroke-width="0.6" c_note="note_pre" /></g><g c_partid="part_pcbtext" c_etype="" c_origin="4078.67,3150.79" c_rotation="0" c_mirror="0" id="gge251" locked="0" layerid="3" c_shapetype="group" display="none"><path c_fontsize="4.5" c_fontfamily="" c_text="MOC3021" d="M 4078.6699 3146.25 L 4078.6699 3150.54 M 4078.6699 3146.25 L 4080.3099 3150.54 M 4081.9399 3146.25 L 4080.3099 3150.54 M 4081.9399 3146.25 L 4081.9399 3150.54 M 4084.5199 3146.25 L 4084.1099 3146.45 L 4083.6999 3146.86 L 4083.4999 3147.27 L 4083.2899 3147.89 L 4083.2899 3148.91 L 4083.4999 3149.52 L 4083.6999 3149.93 L 4084.1099 3150.34 L 4084.5199 3150.54 L 4085.3399 3150.54 L 4085.7499 3150.34 L 4086.1599 3149.93 L 4086.3599 3149.52 L 4086.5699 3148.91 L 4086.5699 3147.89 L 4086.3599 3147.27 L 4086.1599 3146.86 L 4085.7499 3146.45 L 4085.3399 3146.25 L 4084.5199 3146.25 M 4090.9799 3147.27 L 4090.7799 3146.86 L 4090.3699 3146.45 L 4089.9599 3146.25 L 4089.1399 3146.25 L 4088.7299 3146.45 L 4088.3199 3146.86 L 4088.1199 3147.27 L 4087.9199 3147.89 L 4087.9199 3148.91 L 4088.1199 3149.52 L 4088.3199 3149.93 L 4088.7299 3150.34 L 4089.1399 3150.54 L 4089.9599 3150.54 L 4090.3699 3150.34 L 4090.7799 3149.93 L 4090.9799 3149.52 M 4092.7399 3146.25 L 4094.9899 3146.25 L 4093.7699 3147.89 L 4094.3799 3147.89 L 4094.7899 3148.09 L 4094.9899 3148.29 L 4095.1999 3148.91 L 4095.1999 3149.32 L 4094.9899 3149.93 L 4094.5799 3150.34 L 4093.9699 3150.54 L 4093.3599 3150.54 L 4092.7399 3150.34 L 4092.5399 3150.14 L 4092.3299 3149.73 M 4097.7699 3146.25 L 4097.1599 3146.45 L 4096.7499 3147.07 L 4096.5499 3148.09 L 4096.5499 3148.7 L 4096.7499 3149.73 L 4097.1599 3150.34 L 4097.7699 3150.54 L 4098.1799 3150.54 L 4098.7999 3150.34 L 4099.2099 3149.73 L 4099.4099 3148.7 L 4099.4099 3148.09 L 4099.2099 3147.07 L 4098.7999 3146.45 L 4098.1799 3146.25 L 4097.7699 3146.25 M 4100.9699 3147.27 L 4100.9699 3147.07 L 4101.1699 3146.66 L 4101.3699 3146.45 L 4101.7799 3146.25 L 4102.5999 3146.25 L 4103.0099 3146.45 L 4103.2199 3146.66 L 4103.4199 3147.07 L 4103.4199 3147.48 L 4103.2199 3147.89 L 4102.8099 3148.5 L 4100.7599 3150.54 L 4103.6199 3150.54 M 4104.9699 3147.07 L 4105.3799 3146.86 L 4105.9999 3146.25 L 4105.9999 3150.54" fill="none"  stroke-width="0.6" c_note="note_name" /></g><g c_partid="part_pcbtext" c_etype="" c_origin="4100.5,3122" c_rotation="0" c_mirror="0" id="gge253" locked="0" layerid="3" c_shapetype="group" ><path c_fontsize="4.5" c_fontfamily="" c_text="U2" d="M 4100.5 3117.46 L 4100.5 3120.53 L 4100.7 3121.14 L 4101.11 3121.55 L 4101.73 3121.75 L 4102.14 3121.75 L 4102.75 3121.55 L 4103.16 3121.14 L 4103.36 3120.53 L 4103.36 3117.46 M 4104.92 3118.48 L 4104.92 3118.28 L 4105.12 3117.87 L 4105.33 3117.66 L 4105.74 3117.46 L 4106.55 3117.46 L 4106.96 3117.66 L 4107.17 3117.87 L 4107.37 3118.28 L 4107.37 3118.69 L 4107.17 3119.1 L 4106.76 3119.71 L 4104.71 3121.75 L 4107.58 3121.75" fill="none"  stroke-width="0.6" c_note="note_pre" /></g><path d="M 4060.2 3127.9 A 0.7874 0.7874 0 1 0 4060.2 3127.89" locked="0"  fill="none" stroke-width="1.5748" c_helper_type="arc2" net="" layerid="3" id="gge231" /><path d="M 4122.81 3117 A 2.5 2.5 0 0 0 4122.81 3122" locked="0"  fill="none" stroke-width="0.7874" c_helper_type="arc2" net="" layerid="3" id="gge256" /><path d="M 4119.96 3112.81 A 1.1811 1.1811 0 1 0 4119.96 3112.83" locked="0"  fill="none" stroke-width="2.3622" c_helper_type="arc2" net="" layerid="3" id="gge257" /><path d="M 4120.63 3104.54 A 0.5906 0.5906 0 1 0 4120.63 3104.55" locked="0"  fill="none" stroke-width="1.1811" c_helper_type="arc2" net="" layerid="3" id="gge258" /><polyline points="4035 3042 4201 3042 4201 3182.5 4020 3182.5 4020 3042 4035 3042" stroke-width="1"  stroke-linecap="round" fill="none" layerid="10" net="" id="gge645" locked="0" /></svg>