<svg viewBox="0 0 96 96" xmlns="http://www.w3.org/2000/svg" xmlns:xlink="http://www.w3.org/1999/xlink" id="Icons_OpticalDisc" overflow="hidden"><path d="M48 62C40.3 62 34 55.7 34 48 34 40.3 40.3 34 48 34 55.7 34 62 40.3 62 48 62 55.7 55.7 62 48 62ZM48 10C27 10 10 27 10 48 10 69 27 86 48 86 69 86 86 69 86 48 86 27 69 10 48 10Z" stroke="#4472C4" fill="#4472C4"/><path d="M48 52C45.8 52 44 50.2 44 48 44 45.8 45.8 44 48 44 50.2 44 52 45.8 52 48 52 50.2 50.2 52 48 52ZM48 38C42.5 38 38 42.5 38 48 38 53.5 42.5 58 48 58 53.5 58 58 53.5 58 48 58 42.5 53.5 38 48 38Z" stroke="#4472C4" fill="#4472C4"/></svg>