<svg viewBox="0 0 96 96" xmlns="http://www.w3.org/2000/svg" xmlns:xlink="http://www.w3.org/1999/xlink" id="Icons_WiFi" overflow="hidden"><path d="M48 25C35.3 25 23.8 30.2 15.5 38.5L21.2 44.2C28 37.3 37.5 33 48 33 58.5 33 68 37.3 74.9 44.1L80.6 38.4C72.1 30.2 60.7 25 48 25Z" stroke="#4472C4" fill="#4472C4"/><path d="M24 47 29.7 52.7C34.2 47.9 40.8 45 48 45 55.2 45 61.7 47.9 66.4 52.6L72 47C65.8 40.8 57.3 37 48 37 38.7 37 30.1 40.8 24 47Z" stroke="#4472C4" fill="#4472C4"/><path d="M32.5 55.5 38.2 61.2C40.7 58.7 44.2 57.1 48.1 57.1 52 57.1 55.5 58.7 58 61.2L63.7 55.5C59.7 51.5 54.2 49 48.2 49 42.2 49 36.4 51.5 32.5 55.5Z" stroke="#4472C4" fill="#4472C4"/><path d="M40.9 63.9 48 71 55.1 63.9C53.2 62.1 50.8 61 48 61 45.2 61 42.7 62.1 40.9 63.9Z" stroke="#4472C4" fill="#4472C4"/></svg>